<svg width="20" height="21" viewBox="0 0 20 21" fill="none" xmlns="http://www.w3.org/2000/svg">
<path d="M18.1706 8.86775H17.4994V8.83317H9.99935V12.1665H14.7089C14.0219 14.1069 12.1756 15.4998 9.99935 15.4998C7.2381 15.4998 4.99935 13.2611 4.99935 10.4998C4.99935 7.73859 7.2381 5.49984 9.99935 5.49984C11.2739 5.49984 12.4335 5.98067 13.3164 6.76609L15.6735 4.409C14.1852 3.02192 12.1944 2.1665 9.99935 2.1665C5.39727 2.1665 1.66602 5.89775 1.66602 10.4998C1.66602 15.1019 5.39727 18.8332 9.99935 18.8332C14.6014 18.8332 18.3327 15.1019 18.3327 10.4998C18.3327 9.94109 18.2752 9.39567 18.1706 8.86775Z" fill="#FFC107"/>
<path d="M2.62695 6.62109L5.36487 8.629C6.1057 6.79484 7.89973 5.49984 9.99935 5.49984C11.2739 5.49984 12.4335 5.98067 13.3164 6.76609L15.6735 4.409C14.1852 3.02192 12.1944 2.1665 9.99935 2.1665C6.79848 2.1665 4.02279 3.97359 2.62695 6.62109Z" fill="#FF3D00"/>
<path d="M10.0007 18.8331C12.1532 18.8331 14.1091 18.0094 15.5878 16.6698L13.0087 14.4873C12.1439 15.145 11.0872 15.5007 10.0007 15.4998C7.83328 15.4998 5.99286 14.1177 5.29953 12.189L2.58203 14.2827C3.9612 16.9815 6.76203 18.8331 10.0007 18.8331Z" fill="#4CAF50"/>
<path d="M18.1706 8.86775H17.4994V8.83317H9.99935V12.1665H14.7089C14.3802 13.09 13.7889 13.8973 13.0067 14.4881L13.0087 14.4873L15.5878 16.6698C15.4053 16.8357 18.3327 14.6664 18.3327 10.4998C18.3327 9.94109 18.2752 9.39567 18.1706 8.86775Z" fill="#1976D2"/>
</svg>
