<svg xmlns="http://www.w3.org/2000/svg" width="230" height="49" viewBox="0 0 230 49" fill="none"><path d="M110.089 17.2983H115.89V11.2204H110.089V0.600098H103.458V11.2204H98.6771V17.2983H103.458V46.6642H110.089V17.2983Z" fill="#8917EE"/><path d="M163.385 0.600098H156.755V46.6642H163.385V0.600098Z" fill="#8917EE"/><path d="M227.383 36.2358C227.383 43.2094 222.283 47.5599 215.525 47.5599C213.995 47.5599 212.465 47.24 210.999 46.7281C205.933 44.9304 203.202 40.8486 203.038 35.532H209.707C210.089 38.9267 211.887 41.482 215.653 41.482C218.585 41.482 220.753 39.6906 220.753 36.6196C220.753 29.1982 204.624 33.0369 204.624 20.4972C204.624 14.4193 209.915 10.2608 215.717 10.2608C221.773 10.2608 226.427 14.4833 226.554 20.6252H219.924C219.605 18.0661 218.075 16.3387 215.398 16.3387C213.166 16.3387 211.254 17.7462 211.254 20.1133C211.254 23.2483 214.314 23.952 216.737 24.7198C222.538 26.5111 227.383 29.3901 227.383 36.2358Z" fill="#8917EE"/><path d="M145.151 29.0063C145.151 35.8519 139.732 41.482 132.847 41.482C126.09 41.482 120.798 35.66 120.798 29.0063C120.798 22.0967 125.898 16.3387 132.911 16.3387C140.115 16.3387 145.151 21.9047 145.151 29.0063ZM145.024 46.6642H151.654V11.2204H145.024V16.2107H144.896C142.282 12.1801 137.629 10.2608 132.911 10.2608C122.201 10.2608 114.168 18.322 114.168 29.0702C114.168 39.7546 122.328 47.5599 132.911 47.5599C137.756 47.5599 142.41 45.4486 144.896 41.1621H145.024V46.6642Z" fill="#8917EE"/><path d="M60.7443 30.7977H44.9339V46.6642H60.7443V30.7977Z" fill="#8917EE"/><path d="M93.2576 26.7031H70.4345C70.817 20.8811 76.1084 16.3387 81.8461 16.3387C87.5837 16.3387 92.8751 20.8811 93.2576 26.7031ZM99.8877 28.4944C99.8877 18.5139 91.9188 10.2608 81.9098 10.2608C71.5821 10.2608 63.8044 18.6419 63.8044 28.8783C63.8044 38.7949 71.7096 47.5599 81.7823 47.5599C89.4962 47.5599 96.0626 42.7615 98.7402 35.532H92.11C90.1975 39.2427 86.1812 41.482 82.0373 41.482C76.2359 41.482 71.7733 37.3234 70.4345 31.8213H99.6965C99.8237 30.7169 99.8876 29.6062 99.8877 28.4944Z" fill="#8917EE"/><path d="M195.898 26.7031H173.074C173.457 20.8811 178.748 16.3387 184.486 16.3387C190.224 16.3387 195.515 20.8811 195.898 26.7031ZM202.528 28.4944C202.528 18.5139 194.559 10.2608 184.55 10.2608C174.222 10.2608 166.444 18.6419 166.444 28.8783C166.444 38.7949 174.35 47.5599 184.422 47.5599C192.136 47.5599 198.703 42.7615 201.38 35.532H194.75C192.837 39.2427 188.821 41.482 184.677 41.482C178.876 41.482 174.413 37.3234 173.074 31.8213H202.336C202.464 30.7169 202.528 29.6062 202.528 28.4944Z" fill="#8917EE"/><path d="M26.8049 46.6642L43.5314 11.2204H36.3275L24.1197 38.0911H23.9661L11.5281 11.2204H4.32422L21.2037 46.6642H26.8049Z" fill="#8917EE"/><path d="M52.8391 27.9187C57.6979 27.9187 61.6368 23.9659 61.6368 19.0898C61.6368 14.2137 57.6979 10.2608 52.8391 10.2608C47.9802 10.2608 44.0413 14.2137 44.0413 19.0898C44.0413 23.9659 47.9802 27.9187 52.8391 27.9187Z" fill="#EEB117"/></svg>