<svg width="24" height="24" viewBox="0 0 24 24" fill="none" xmlns="http://www.w3.org/2000/svg">
<mask id="mask0_1250_10279" style="mask-type:alpha" maskUnits="userSpaceOnUse" x="0" y="0" width="24" height="24">
<rect width="24" height="24" fill="#D9D9D9"/>
</mask>
<g mask="url(#mask0_1250_10279)">
<path d="M15.5978 13.0462L14.3748 11.8232C14.4414 11.1449 14.2386 10.5879 13.7661 10.152C13.2937 9.71611 12.7632 9.5315 12.1748 9.59816L10.9517 8.37511C11.1107 8.32383 11.2796 8.28537 11.4585 8.25974C11.6373 8.23409 11.8177 8.22126 11.9998 8.22126C13.051 8.22126 13.9433 8.58793 14.6767 9.32126C15.41 10.0546 15.7767 10.9469 15.7767 11.9982C15.7767 12.1802 15.7639 12.3639 15.7382 12.5491C15.7126 12.7344 15.6658 12.9001 15.5978 13.0462ZM18.9036 16.3328L17.9498 15.3982C18.5498 14.9315 19.0956 14.419 19.5873 13.8607C20.0789 13.3023 20.4914 12.6815 20.8248 11.9982C20.0081 10.3148 18.8039 8.994 17.2123 8.03566C15.6206 7.07733 13.8831 6.59816 11.9998 6.59816C11.5664 6.59816 11.1414 6.62316 10.7248 6.67316C10.3081 6.72316 9.89978 6.8065 9.49978 6.92316L8.43443 5.85781C9.01648 5.63986 9.60782 5.49211 10.2085 5.41454C10.8091 5.33697 11.4062 5.29819 11.9998 5.29819C14.21 5.29819 16.261 5.89434 18.1526 7.08664C20.0443 8.27895 21.4138 9.91613 22.2613 11.9982C21.9074 12.8584 21.4456 13.6424 20.8757 14.3501C20.3058 15.0577 19.6485 15.7186 18.9036 16.3328ZM19.1613 21.0173L16.0652 17.902C15.5024 18.1417 14.8758 18.3343 14.1854 18.4799C13.495 18.6254 12.7664 18.6981 11.9998 18.6981C9.78313 18.6981 7.73218 18.102 5.84693 16.9097C3.96168 15.7174 2.59213 14.0802 1.73828 11.9982C2.12418 11.0482 2.64277 10.1783 3.29406 9.38854C3.94534 8.5988 4.6806 7.9065 5.49983 7.31164L2.98061 4.81164L3.90943 3.88281L20.0901 20.0885L19.1613 21.0173ZM6.42866 8.26544C5.80046 8.71929 5.18667 9.26225 4.58731 9.89431C3.98794 10.5264 3.5171 11.2276 3.17478 11.9982C3.99145 13.6815 5.19561 15.0023 6.78728 15.9607C8.37895 16.919 10.1164 17.3982 11.9998 17.3982C12.5549 17.3982 13.1081 17.3514 13.6594 17.2578C14.2107 17.1642 14.6851 17.0514 15.0825 16.9193L13.5921 15.4481C13.3716 15.5507 13.1158 15.6308 12.8248 15.6885C12.5338 15.7462 12.2588 15.7751 11.9998 15.7751C10.9485 15.7751 10.0562 15.4084 9.32288 14.6751C8.58955 13.9417 8.22288 13.0494 8.22288 11.9982C8.22288 11.7456 8.26006 11.4754 8.33443 11.1876C8.4088 10.8998 8.48059 10.6392 8.54981 10.4058L6.42866 8.26544Z" fill="#525252"/>
</g>
</svg>
