<?xml version="1.0" encoding="UTF-8"?> <svg xmlns="http://www.w3.org/2000/svg" width="24" height="24" viewBox="0 0 24 24" fill="none"><mask id="mask0_5098_222576" style="mask-type:alpha" maskUnits="userSpaceOnUse" x="0" y="0" width="24" height="24"><rect width="24" height="24" fill="#D9D9D9"></rect></mask><g mask="url(#mask0_5098_222576)"><path d="M4.61538 19C4.15513 19 3.77083 18.8458 3.4625 18.5375C3.15417 18.2292 3 17.8449 3 17.3846V6.61537C3 6.15512 3.15417 5.77083 3.4625 5.4625C3.77083 5.15417 4.15513 5 4.61538 5H19.3846C19.8449 5 20.2292 5.15417 20.5375 5.4625C20.8458 5.77083 21 6.15512 21 6.61537V17.3846C21 17.8449 20.8458 18.2292 20.5375 18.5375C20.2292 18.8458 19.8449 19 19.3846 19H4.61538ZM9.95963 18H19.3846C19.5385 18 19.6795 17.9359 19.8077 17.8077C19.9359 17.6795 20 17.5385 20 17.3846V9.42885L19.5173 8.75385L17 9.58078L14.5077 8.75385L12.9395 10.8961L10.425 11.7096V14.3519L8.8654 16.5L9.95963 18ZM8.7346 18L7.64037 16.5L9.42387 14.0397V10.9937L12.3104 10.0564L14.1173 7.59615L17 8.51922L20 7.54422V6.61537C20 6.46154 19.9359 6.32052 19.8077 6.1923C19.6795 6.0641 19.5385 6 19.3846 6H4.61538C4.46154 6 4.32052 6.0641 4.1923 6.1923C4.0641 6.32052 4 6.46154 4 6.61537V17.3846C4 17.5385 4.0641 17.6795 4.1923 17.8077C4.32052 17.9359 4.46154 18 4.61538 18H8.7346Z" fill="#0A0A0A"></path></g></svg> 