<svg width="839" height="37" viewBox="0 0 839 37" fill="currentColor" xmlns="http://www.w3.org/2000/svg">
<g clip-path="url(#clip0_5732_65229)">
<path fill-rule="evenodd" clip-rule="evenodd" d="M816 0.929688V36.685H813V0.929688H816ZM684 1.15052V36.685H681V1.15052H684ZM882 1.35064V36.685H879V1.35064H882ZM222 1.42479V36.685H219V1.42479H222ZM594 1.4824V36.685H591V1.4824H594ZM228 2.41039V36.685H225V2.41039H228ZM966 2.44218V36.685H963V2.44218H966ZM576 2.59105V36.685H573V2.59105H576ZM90 2.63781V36.685H87V2.63781H90ZM708 2.79684V36.685H705V2.79684H708ZM948 3.22913V36.685H945V3.22913H948ZM210 3.23754V36.685H207V3.23754H210ZM132 3.27565V36.685H129V3.27565H132ZM852 3.76791V36.685H849V3.76791H852ZM732 3.83358V36.685H729V3.83358H732ZM492 4.24171V36.685H489V4.24171H492ZM762 4.33205V36.685H759V4.33205H762ZM192 4.37405V36.685H189V4.37405H192ZM702 4.58378V36.685H699V4.58378H702ZM234 4.62858V36.685H231V4.62858H234ZM612 4.8341V36.685H609V4.8341H612ZM12 5.1028V36.685H9V5.1028H12ZM654 5.13192V36.685H651V5.13192H654ZM30 5.1834V36.685H27V5.1834H30ZM696 5.75606V36.685H693V5.75606H696ZM930 5.84938V36.685H927V5.84938H930ZM186 5.9317V36.685H183V5.9317H186ZM408 6.11594V36.685H405V6.11594H408ZM324 6.44457V36.685H321V6.44457H324ZM798 6.57514V36.685H795V6.57514H798ZM102 6.59413V36.685H99V6.59413H102ZM474 6.61904V36.685H471V6.61904H474ZM288 6.98321V36.685H285V6.98321H288ZM936 7.0104V36.685H933V7.0104H936ZM750 7.33343V36.685H747V7.33343H750ZM978 7.68909V36.685H975V7.68909H978ZM18 7.79082V36.685H15V7.79082H18ZM942 8.07459V36.685H939V8.07459H942ZM360 8.22085V36.685H357V8.22085H360ZM348 8.39684V36.685H345V8.39684H348ZM738 8.55518V36.685H735V8.55518H738ZM828 8.56038V36.685H825V8.56038H828ZM420 8.65174V36.685H417V8.65174H420ZM630 8.70504V36.685H627V8.70504H630ZM504 8.85202V36.685H501V8.85202H504ZM912 8.90671V36.685H909V8.90671H912ZM312 8.94875V36.685H309V8.94875H312ZM114 9.57537V36.685H111V9.57537H114ZM318 10.0279V36.685H315V10.0279H318ZM384 10.3205V36.685H381V10.3205H384ZM372 10.3281V36.685H369V10.3281H372ZM342 10.3974V36.685H339V10.3974H342ZM480 10.4132V36.685H477V10.4132H480ZM456 10.6688V36.685H453V10.6688H456ZM552 10.8826V36.685H549V10.8826H552ZM540 11.0601V36.685H537V11.0601H540ZM960 11.2294V36.685H957V11.2294H960ZM426 11.2339V36.685H423V11.2339H426ZM84 11.2454V36.685H81V11.2454H84ZM60 11.3691V36.685H57V11.3691H60ZM300 11.4238V36.685H297V11.4238H300ZM768 11.7231V36.685H765V11.7231H768ZM672 11.8288V36.685H669V11.8288H672ZM678 12.0772V36.685H675V12.0772H678ZM720 12.1601V36.685H717V12.1601H720ZM858 12.1815V36.685H855V12.1815H858ZM972 12.2342V36.685H969V12.2342H972ZM744 12.7185V36.685H741V12.7185H744ZM198 13.0452V36.685H195V13.0452H198ZM246 13.3348V36.685H243V13.3348H246ZM636 13.357V36.685H633V13.357H636ZM804 13.5246V36.685H801V13.5246H804ZM624 13.631V36.685H621V13.631H624ZM150 13.653V36.685H147V13.653H150ZM402 14.1971V36.685H399V14.1971H402ZM546 14.2414V36.685H543V14.2414H546ZM204 14.275V36.685H201V14.275H204ZM714 14.522V36.685H711V14.522H714ZM786 14.5616V36.685H783V14.5616H786ZM564 14.6076V36.685H561V14.6076H564ZM180 14.9138V36.685H177V14.9138H180ZM354 15.2451V36.685H351V15.2451H354ZM48 15.3659V36.685H45V15.3659H48ZM516 15.4097V36.685H513V15.4097H516ZM432 16.2041V36.685H429V16.2041H432ZM78 16.3284V36.685H75V16.3284H78ZM216 16.4498V36.685H213V16.4498H216ZM648 16.5015V36.685H645V16.5015H648ZM336 16.8514V36.685H333V16.8514H336ZM276 16.8908V36.685H273V16.8908H276ZM690 16.9093V36.685H687V16.9093H690ZM168 17.1072V36.685H165V17.1072H168ZM924 17.4334V36.685H921V17.4334H924ZM906 17.5325V36.685H903V17.5325H906ZM642 17.6352V36.685H639V17.6352H642ZM780 17.7283V36.685H777V17.7283H780ZM264 17.9087V36.685H261V17.9087H264ZM258 18.3178V36.685H255V18.3178H258ZM498 18.6803V36.685H495V18.6803H498ZM726 18.7277V36.685H723V18.7277H726ZM846 18.7515V36.685H843V18.7515H846ZM486 18.856V36.685H483V18.856H486ZM162 18.961V36.685H159V18.961H162ZM306 19.2022V36.685H303V19.2022H306ZM54 19.9148V36.685H51V19.9148H54ZM156 19.9612V36.685H153V19.9612H156ZM144 20.0365V36.685H141V20.0365H144ZM954 20.2058V36.685H951V20.2058H954ZM450 20.2701V36.685H447V20.2701H450ZM438 20.2745V36.685H435V20.2745H438ZM6 20.645V36.685H3V20.645H6ZM870 20.6983V36.685H867V20.6983H870ZM876 21.4061V36.685H873V21.4061H876ZM774 21.5235V36.685H771V21.5235H774ZM864 21.5914V36.685H861V21.5914H864ZM660 21.6636V36.685H657V21.6636H660ZM528 21.8901V36.685H525V21.8901H528ZM792 22.3832V36.685H789V22.3832H792ZM396 22.6107V36.685H393V22.6107H396ZM558 22.6716V36.685H555V22.6716H558ZM840 22.7434V36.685H837V22.7434H840ZM366 22.8307V36.685H363V22.8307H366ZM240 22.9327V36.685H237V22.9327H240ZM468 23.0758V36.685H465V23.0758H468ZM72 23.1298V36.685H69V23.1298H72ZM378 23.1835V36.685H375V23.1835H378ZM120 23.487V36.685H117V23.487H120ZM918 23.5878V36.685H915V23.5878H918ZM618 24.0168V36.685H615V24.0168H618ZM756 24.1444V36.685H753V24.1444H756ZM138 24.1614V36.685H135V24.1614H138ZM666 24.898V36.685H663V24.898H666ZM42 24.9739V36.685H39V24.9739H42ZM282 25.0506V36.685H279V25.0506H282ZM810 25.1644V36.685H807V25.1644H810ZM834 25.3215V36.685H831V25.3215H834ZM570 25.4513V36.685H567V25.4513H570ZM390 25.505V36.685H387V25.505H390ZM444 25.7161V36.685H441V25.7161H444ZM174 25.9506V36.685H171V25.9506H174ZM588 26.1674V36.685H585V26.1674H588ZM294 26.4409V36.685H291V26.4409H294ZM522 26.6091V36.685H519V26.6091H522ZM126 26.6503V36.685H123V26.6503H126ZM582 26.8898V36.685H579V26.8898H582ZM96 27.1853V36.685H93V27.1853H96ZM600 27.2093V36.685H597V27.2093H600ZM510 27.2257V36.685H507V27.2257H510ZM462 27.272V36.685H459V27.272H462ZM888 27.4166V36.685H885V27.4166H888ZM36 27.4179V36.685H33V27.4179H36ZM822 27.5254V36.685H819V27.5254H822ZM330 27.7217V36.685H327V27.7217H330ZM270 27.7384V36.685H267V27.7384H270ZM66 27.7572V36.685H63V27.7572H66ZM414 27.829V36.685H411V27.829H414ZM606 27.9775V36.685H603V27.9775H606ZM252 28.1941V36.685H249V28.1941H252ZM24 28.2925V36.685H21V28.2925H24ZM534 28.8455V36.685H531V28.8455H534ZM108 28.8875V36.685H105V28.8875H108ZM900 29.1006V36.685H897V29.1006H900ZM894 29.1723V36.685H891V29.1723H894Z" fill="#F3E6FF"/>
</g>
<defs>
<clipPath id="clip0_5732_65229">
<rect width="839" height="36" fill="white" transform="translate(0 0.685547)"/>
</clipPath>
</defs>
</svg>
