<?xml version="1.0" encoding="UTF-8"?> <svg xmlns="http://www.w3.org/2000/svg" width="24" height="24" viewBox="0 0 24 24" fill="none"><mask id="mask0_7001_357543" style="mask-type:alpha" maskUnits="userSpaceOnUse" x="0" y="0" width="24" height="24"><rect width="24" height="24" fill="#D9D9D9"></rect></mask><g mask="url(#mask0_7001_357543)"><path d="M4.61538 20C4.15513 20 3.77083 19.8458 3.4625 19.5375C3.15417 19.2292 3 18.8449 3 18.3846V5.61537C3 5.15512 3.15417 4.77083 3.4625 4.4625C3.77083 4.15417 4.15513 4 4.61538 4H19.3846C19.8449 4 20.2292 4.15417 20.5375 4.4625C20.8458 4.77083 21 5.15512 21 5.61537V18.3846C21 18.8449 20.8458 19.2292 20.5375 19.5375C20.2292 19.8458 19.8449 20 19.3846 20H4.61538ZM4.61538 19H19.3846C19.5385 19 19.6795 18.9359 19.8077 18.8077C19.9359 18.6795 20 18.5385 20 18.3846V5.61537C20 5.46154 19.9359 5.32052 19.8077 5.1923C19.6795 5.0641 19.5385 5 19.3846 5H4.61538C4.46154 5 4.32052 5.0641 4.1923 5.1923C4.0641 5.32052 4 5.46154 4 5.61537V18.3846C4 18.5385 4.0641 18.6795 4.1923 18.8077C4.32052 18.9359 4.46154 19 4.61538 19ZM6.76923 16.2308H17.2308V15.2308H6.76923V16.2308ZM6.76923 12.5H10.1539V7.76922H6.76923V12.5ZM12.5385 12.5H17.2308V11.5H12.5385V12.5ZM12.5385 8.76922H17.2308V7.76922H12.5385V8.76922Z" fill="#1C1B1F"></path></g></svg> 