<svg width="25" height="25" viewBox="0 0 25 25" fill="none" xmlns="http://www.w3.org/2000/svg">
    <path d="M18.4153 11.1504C15.1919 9.23602 9.87493 9.06004 6.79777 9.99396C6.30349 10.1439 5.781 9.865 5.63135 9.37081C5.4816 8.87635 5.76022 8.35413 6.25468 8.20394C9.78716 7.13174 15.6591 7.3388 19.37 9.5416C19.8146 9.80553 19.9602 10.3795 19.6968 10.8232C19.4331 11.2677 18.8586 11.4143 18.4152 11.1504M18.3097 13.9856C18.0836 14.3526 17.6037 14.4677 17.2372 14.2424C14.55 12.5906 10.4521 12.1119 7.2727 13.077C6.86046 13.2015 6.42493 12.9692 6.29973 12.5576C6.24004 12.3597 6.26125 12.1463 6.35871 11.964C6.45616 11.7818 6.62192 11.6456 6.81962 11.5853C10.4515 10.4831 14.9666 11.0169 18.0532 12.9138C18.4197 13.1395 18.535 13.6195 18.3097 13.9856ZM17.0861 16.7086C17.0435 16.7785 16.9875 16.8394 16.9214 16.8877C16.8552 16.936 16.7802 16.9708 16.7006 16.99C16.621 17.0093 16.5384 17.0127 16.4575 17C16.3765 16.9873 16.2989 16.9587 16.2291 16.916C13.8808 15.4808 10.9251 15.1567 7.4442 15.9518C7.36445 15.97 7.28188 15.9724 7.20121 15.9587C7.12054 15.945 7.04336 15.9156 6.97408 15.8721C6.90479 15.8286 6.84475 15.7718 6.7974 15.7051C6.75004 15.6384 6.7163 15.563 6.69809 15.4832C6.67975 15.4034 6.67733 15.3208 6.69097 15.2401C6.70461 15.1594 6.73404 15.0821 6.77757 15.0128C6.82111 14.9435 6.87789 14.8834 6.94467 14.8361C7.01145 14.7887 7.08692 14.755 7.16675 14.7368C10.976 13.8661 14.2434 14.2409 16.8793 15.8515C16.9491 15.8942 17.0099 15.9502 17.0581 16.0164C17.1063 16.0826 17.1411 16.1576 17.1603 16.2372C17.1795 16.3168 17.1828 16.3994 17.1701 16.4802C17.1574 16.5611 17.1289 16.6387 17.0861 16.7086M12.4998 2.28516C6.97724 2.28516 2.5 6.76222 2.5 12.285C2.5 17.8083 6.97724 22.2852 12.4999 22.2852C18.0228 22.2852 22.5 17.8083 22.5 12.285C22.5 6.76231 18.0229 2.28516 12.4999 2.28516" fill="#6B13B6"/>
</svg>