<?xml version="1.0" encoding="UTF-8"?> <svg xmlns="http://www.w3.org/2000/svg" width="24" height="24" viewBox="0 0 24 24" fill="none"><mask id="mask0_7001_357545" style="mask-type:alpha" maskUnits="userSpaceOnUse" x="0" y="0" width="24" height="24"><rect width="24" height="24" fill="#D9D9D9"></rect></mask><g mask="url(#mask0_7001_357545)"><path d="M4.61538 21C4.15513 21 3.77083 20.8458 3.4625 20.5375C3.15417 20.2292 3 19.8449 3 19.3846V10.6154C3 10.1551 3.15417 9.77083 3.4625 9.46249C3.77083 9.15416 4.15513 8.99999 4.61538 8.99999H19.3846C19.8449 8.99999 20.2292 9.15416 20.5375 9.46249C20.8458 9.77083 21 10.1551 21 10.6154V19.3846C21 19.8449 20.8458 20.2292 20.5375 20.5375C20.2292 20.8458 19.8449 21 19.3846 21H4.61538ZM4.61538 20H19.3846C19.5385 20 19.6795 19.9359 19.8077 19.8077C19.9359 19.6795 20 19.5385 20 19.3846V10.6154C20 10.4615 19.9359 10.3205 19.8077 10.1923C19.6795 10.0641 19.5385 9.99999 19.3846 9.99999H4.61538C4.46154 9.99999 4.32052 10.0641 4.1923 10.1923C4.0641 10.3205 4 10.4615 4 10.6154V19.3846C4 19.5385 4.0641 19.6795 4.1923 19.8077C4.32052 19.9359 4.46154 20 4.61538 20ZM10.5 18.0769L15.1154 15L10.5 11.9231V18.0769ZM4.5 7.23077V6.23074H19.5V7.23077H4.5ZM7.5 4.46152V3.46152H16.5V4.46152H7.5Z" fill="#1C1B1F"></path></g></svg> 