  <svg
        width="230"
        height="48"
        viewBox="0 0 230 48"
        fill="#fff"
        xmlns="http://www.w3.org/2000/svg"
      >
        <g clip-path="url(#clip0_6938_173967)">
          <path
            d="M109.087 17.0681H115.038V10.8556H109.087V0H102.286V10.8556H97.3811V17.0681H102.286V47.0845H109.087V17.0681Z"
            class="fill-current"
          ></path>
          <path
            d="M163.757 0H156.956V47.0845H163.757V0Z"
            class="fill-current"
          ></path>
          <path
            d="M229.405 36.4251C229.405 43.5531 224.174 48 217.242 48C215.672 48 214.103 47.673 212.599 47.1499C207.402 45.3123 204.6 41.1401 204.433 35.7057H211.273C211.666 39.1756 213.51 41.7875 217.373 41.7875C220.381 41.7875 222.604 39.9564 222.604 36.8174C222.604 29.2316 206.059 33.1553 206.059 20.3379C206.059 14.1253 211.487 9.87466 217.438 9.87466C223.65 9.87466 228.424 14.1907 228.555 20.4687H221.754C221.427 17.8529 219.858 16.0872 217.111 16.0872C214.822 16.0872 212.86 17.5259 212.86 19.9455C212.86 23.1499 215.999 23.8692 218.484 24.6539C224.435 26.485 229.405 29.4278 229.405 36.4251Z"
            class="fill-current"
          ></path>
          <path
            d="M145.053 29.0354C145.053 36.0327 139.495 41.7875 132.432 41.7875C125.5 41.7875 120.073 35.8365 120.073 29.0354C120.073 21.9728 125.304 16.0872 132.498 16.0872C139.887 16.0872 145.053 21.7766 145.053 29.0354ZM144.923 47.0845H151.724V10.8556H144.923V15.9564H144.792C142.111 11.8365 137.337 9.87466 132.498 9.87466C121.511 9.87466 113.271 18.1144 113.271 29.1008C113.271 40.0218 121.642 48 132.498 48C137.468 48 142.241 45.842 144.792 41.4605H144.923V47.0845Z"
            class="fill-current"
          ></path>
          <path
            d="M58.4704 30.8665H42.2524V47.0845H58.4704V30.8665Z"
            class="fill-current"
          ></path>
          <path
            d="M91.8219 26.6812H68.4104C68.8028 20.7302 74.2306 16.0872 80.1161 16.0872C86.0017 16.0872 91.4295 20.7302 91.8219 26.6812ZM98.6229 28.5123C98.6229 18.3106 90.4486 9.87466 80.1815 9.87466C69.5875 9.87466 61.6093 18.4414 61.6093 28.9046C61.6093 39.0409 69.7183 48 80.0507 48C87.9635 48 94.6992 43.0954 97.4458 35.7057H90.6447C88.6829 39.4986 84.563 41.7875 80.3123 41.7875C74.3614 41.7875 69.7837 37.5368 68.4104 31.9128H98.4268C98.5573 30.784 98.6228 29.6486 98.6229 28.5123Z"
            class="fill-current"
          ></path>
          <path
            d="M197.108 26.6812H173.697C174.089 20.7302 179.517 16.0872 185.402 16.0872C191.288 16.0872 196.716 20.7302 197.108 26.6812ZM203.909 28.5123C203.909 18.3106 195.735 9.87466 185.468 9.87466C174.874 9.87466 166.895 18.4414 166.895 28.9046C166.895 39.0409 175.004 48 185.337 48C193.25 48 199.985 43.0954 202.732 35.7057H195.931C193.969 39.4986 189.849 41.7875 185.598 41.7875C179.647 41.7875 175.07 37.5368 173.697 31.9128H203.713C203.843 30.784 203.909 29.6486 203.909 28.5123Z"
            class="fill-current"
          ></path>
          <path
            d="M23.656 47.0845L40.8137 10.8556H33.424L20.9015 38.3215H20.7439L7.98535 10.8556H0.595703L17.9104 47.0845H23.656Z"
            class="fill-current"
          ></path>
          <path
            d="M50.3614 27.9238C55.3455 27.9238 59.386 23.8834 59.386 18.8993C59.386 13.9152 55.3455 9.87476 50.3614 9.87476C45.3773 9.87476 41.3369 13.9152 41.3369 18.8993C41.3369 23.8834 45.3773 27.9238 50.3614 27.9238Z"
            fill="#EEB117"
          ></path>
        </g>
        <defs>
          <clipPath id="clip0_6938_173967">
            <rect
              width="228.81"
              height="48"
              class="fill-current"
              transform="translate(0.595703)"
            ></rect>
          </clipPath>
        </defs>
      </svg>