<svg xmlns="http://www.w3.org/2000/svg" xmlns:xlink="http://www.w3.org/1999/xlink" version="1.1" x="0px" y="0px" viewBox="0 0 900 450" style="enable-background:new 0 0 900 450;" xml:space="preserve"> <style type="text/css"> .st0{display:none;} .st1{display:inline;} .st2{opacity:0.5;fill:#46C8F5;} .st3{fill:none;} .st4{fill:none;stroke:#6CCCE2;stroke-miterlimit:10;} .st5{font-family:'MyriadPro-Regular';} .st6{font-size:21px;} .st7{fill:#2E3192;} .st8{opacity:0.5;fill:#ED1C24;} .st9{fill:#171617;} .st10{fill:#FFFFFF;} </style> <g id="series" class="st0"> <g class="st1"> <rect x="96" y="48" class="st2" width="708" height="354"/> <line class="st3" x1="0" y1="0" x2="0" y2="449.9"/> <g> <line class="st4" x1="0" y1="402" x2="900" y2="402"/> <line class="st4" x1="0" y1="450" x2="900" y2="450"/> </g> <g> <line class="st4" x1="0" y1="0" x2="900" y2="0"/> <line class="st4" x1="0" y1="48" x2="900" y2="48"/> </g> <g> <line class="st4" x1="0" y1="0" x2="0" y2="450"/> <line class="st4" x1="96" y1="0" x2="96" y2="450"/> </g> <g> <line class="st4" x1="804" y1="0" x2="804" y2="450"/> <line class="st4" x1="900" y1="0" x2="900" y2="450"/> </g> <text transform="matrix(1 0 0 1 332.9386 231.1637)"><tspan x="0" y="0" class="st5 st6">series titles (900px : 450px)</tspan><tspan x="20.14" y="25.2" class="st7 st5 st6">series_titles_black.svg</tspan></text> <rect y="402" class="st8" width="900" height="48"/> <rect class="st8" width="900" height="48"/> <rect class="st8" width="96" height="450"/> <rect x="804" class="st8" width="96" height="450"/> </g> </g> <g id="Layer_2" class="st0"> <g class="st1"> <path class="st9" d="M345.41,210.67c18.79,2.95,37-13.58,40.67-36.94c3.67-23.35-8.58-44.68-27.38-47.64 c-18.79-2.95-37,13.58-40.67,36.94C314.36,186.39,326.62,207.72,345.41,210.67z M333.3,157.01c3.65-15.57,14.84-26.43,25-24.25 c10.16,2.18,15.44,16.57,11.79,32.15c-3.65,15.57-14.84,26.43-25,24.25C334.93,186.97,329.65,172.58,333.3,157.01z"/> <path class="st9" d="M662.27,131.4v34.12c-3.41-11.8-9.22-21.23-13.76-27.31c0-7.66,0-12.6,0-12.6h-23.17c0,0,3.89,2.92,3.9,6.57 c0.01,3.88,0.02,67.34,0.02,79.36h19.25c0-16.32,0-39.97,0-59.58c8.77,9.8,12.32,16.96,13.76,24.87v33.64h18.97l0-79.06l5-7.08 l-17.02-8.84L662.27,131.4z"/> <path class="st9" d="M566.45,176.46c0,32.2-16.17,34.01-16.17,34.01l18.63,15.7c0,0,17.13-16.05,17.13-42.97 c0-14.84,0-47.85,0-74.47h41.1v-3.24h-12.42c-13.1-8.3-9.49-23.6-9.49-23.6l-11.51,6.26c1.17,9.62,6.63,14.74,11.02,17.35h-18.69 c0-20.13,0-35.85,0-35.85h-1.27c0,14.07-21.93,15.84-21.93,15.84c3.77,0.14,3.62,10.14,3.62,10.14s0,3.76,0,9.87H418.46 l-10.78-8.91l-11.25,9.47v2.68h170.03C566.45,125.42,566.45,154.7,566.45,176.46z"/> <path class="st9" d="M616.25,210.9v-85.29h-18.97c0,0,2.55,2.04,2.55,6.66c0,16.17,0.74,78.63-0.04,78.63 C600.45,210.9,616.25,210.9,616.25,210.9z"/> <path class="st9" d="M759.35,198.2c-0.98-6.8-13.48-107.59-13.48-107.59l6.2-8.83l-19.54-10.41l-4.66,19.3 c0,0,2.96,25.65,6.16,53.41H718.1l-4.98-49.15h-22.4v3.92l3.92,4.23l4.18,41h-8.09v3.91h8.49l6.38,62.64h19.25l-6.35-62.64h15.97 c3.43,29.75,6.99,60.66,7.4,64.2c6.3,54.92,29.41,70.69,29.41,70.69L804,261.67C804,261.67,769.11,266.24,759.35,198.2z"/> <path class="st9" d="M535.7,124.37l-16.91-8.89c0,0-6.04,10.99-6.88,15.74c0,0-0.01-0.01-0.01-0.01c-0.03,0.15-0.06,0.3-0.08,0.46 c-0.38,3.68-0.43,8.04-0.43,8.04c0-10.39-10.26-13.12-11.48-13.41c-17.02-2.67-34.55,10.87-40.37,32.02 c-6.25,22.72,3.37,45.6,21.49,51.1c6.4,1.94,14.17,0.22,20.31-2.22l2.54-29.57c-5.63,9.06-12.58,15.89-19.97,13.63 c-10.09-3.08-14.7-18.48-10.3-34.39c4.4-15.91,16.15-26.32,26.24-23.24c5.52,1.69,9.4,7.06,11.06,14.19 c-0.97,14.01-2.42,32.84-3.09,50.61c-0.89,23.62-24.64,28.3-24.64,28.3l20.68,15.87c22.56-8.12,22.21-41.4,22.21-41.4l3.22-67.26 L535.7,124.37z"/> <path class="st9" d="M217.06,71.36l-22.65,25.17c25.49,1.72,28.99,34.16,22.15,62.23c-7.03,28.87-22.43,49.14-36.37,44.24 c-11.21-3.94-11-24.17-8.21-45.54c1-6.45,2-12.89,2.95-19.06c0,0,0,0,0,0l0,0c3.69-23.82,6.72-43.47,6.72-43.47h-15.44 l-17.55,91.51c0,0-2.74,13.8-4.33,19.39c-18.57,65.58-47.05,55.52-47.05,55.52l31.8,22.58c0,0,25.35-14.52,33.97-69.12 c0.9-5.69,2.28-14.53,3.89-24.89c1.5,9.61,5.46,17.28,13.74,20.38c18.39,6.88,43.7-16.5,54.21-53.32 C246.57,116.13,241.08,83.37,217.06,71.36z"/> <path class="st9" d="M436.04,115.18l-5.29,13.85l-0.73,39.93c-3.24-13.03-9.62-23.4-14.52-29.92c0-8.69,0-12.48,0-12.48h-22.58 l0.05,0.81c0,0,3.26,2.09,3.27,5.7c0.01,3.84,0.08,25.68,0.02,37.58c-0.23,43.67-19.7,42.62-19.7,42.62l26.52,13.15 c0,0,12.43-7.24,12.43-62.52c0-6.02,0-6.77,0-11.23c10.19,11.29,13.34,20.61,14.3,28.14l-0.55,29.82h18.97l0-79.67l4.46-8.31 L436.04,115.18z"/> <path class="st9" d="M291.05,147.99l0,62.64l18.97,0.27V101l4.09-6.27l-16.82-12.7l-6.24,18.8l0,43.25H276.6 c0-23.79,0-49.15,0-49.15h-23.17v3.92l3.92,4.23c0,0-0.14,15.24-0.05,41h-9.69v3.91h9.7c0.01,2.58,0.02,5.25,0.04,8.02 c0.38,67.31-36.13,70.17-36.13,70.17l29.35,16.26c0,0,26.02-25.32,26.02-80.6c0-4.33,0-9.02,0-13.84H291.05z"/> <path class="st9" d="M385.35,248.68c0,0-2.28,9.67-12.07,9.67v5.16h24.14v-5.24C397.42,258.27,389.58,258.53,385.35,248.68z"/> <path class="st9" d="M413.44,266.06c12.38-26.45-6.53-31.81-6.53-31.81l-13.38,9.83c21.33-0.42,13.27,20.49,13.27,20.49 L413.44,266.06z"/> <path class="st9" d="M389.22,268.08c-18.79-2.95-37,13.58-40.67,36.94c-0.55,3.52-0.74,7-0.6,10.37 c-2.35,6.85-14.1,25.37-30.56,24.08c-13.9-1.1-24.2-19.36-20.13-43.94c3.93-23.69,16.78-43.23,34.48-43.49 c6.98-0.1,15.16,2.92,20.17,12.47l6.45-33.58c-4.47-3.1-15.3-7.01-25.66-5.45c-22.19,3.34-46.35,31.26-50.05,66.48 c-3.71,35.21,12.73,61.04,34.51,61.04c17.27,0,27.64-16.66,32.4-26.94c3.74,13.97,13.53,24.57,26.37,26.59 c18.79,2.95,37-13.58,40.67-36.94C420.26,292.36,408.01,271.03,389.22,268.08z M400.6,306.88c-3.65,15.57-14.84,26.43-25,24.25 c-10.16-2.18-15.44-16.57-11.79-32.15c3.65-15.57,14.84-26.43,25-24.25C398.96,276.91,404.24,291.31,400.6,306.88z"/> <path class="st9" d="M487.95,350.62h-12.31c-2.98-4.43-2.93-9.61-2.93-16.92c0-34.57,0-98.1,0-98.1h-1.22 c0,13.51-21.05,15.21-21.05,15.21c3.62,0.14,3.47,4.89,3.47,4.89s0,43.98,0,77.4c0,7.02,2.46,13.77,6.23,17.52h-11.08v2.37h14.5v0 h14.05v0h31.51v-1.83l-10.8-9.09L487.95,350.62z"/> <rect x="532.57" y="362.37" transform="matrix(0.7071 -0.7071 0.7071 0.7071 -103.609 490.8233)" class="st9" width="16.21" height="16.21"/> <path class="st9" d="M618.01,279.9c2.49,0.76,4.69,2.12,6.59,3.92c2.05,2.8,3.48,4.39,3.48,4.39c2.2-0.98,4.34-2.1,6.49-3.19 c-0.65-0.95-1.34-1.86-2.06-2.73c-6.34-9.6-7.4-23.59-7.4-23.59l-12.04,2.77c1.29,4.12,2.95,7.93,4.7,11.31 c-17.06-4.36-35.27,8.92-41.1,30.28c-5.97,21.86,3.29,43.9,20.69,49.22c11.56,3.54,24.54,0.31,31.16-6.38l2.53-24.54 c-5.56,11.08-18.89,17.08-28.2,14.24c-11.17-3.41-16.82-18.64-12.63-34.02C594.39,286.2,606.84,276.49,618.01,279.9z"/> <path class="st9" d="M545.85,273.54v67.93c-7.14,0.66-19.96-0.82-19.96-20.08c0-11.43,0.01-40.69,0.02-44.38 c0.01-3.47,0.03-6.25,0.03-6.25h-20.03v0.41c0,0,1.5,0.5,1.5,2.05c0,3.39,0,27.55,0,46.57c0,35.78,22.29,33.95,22.29,33.95 l16.15-12.27v11.13h18.97l0-79.06l5-7.08l-17.02-8.84L545.85,273.54z"/> </g> </g> <g id="Layer_3"> <g> <path class="st10" d="M531.19,272.07c0,27.75-13.93,29.31-13.93,29.31l16.05,13.53c0,0,14.76-13.84,14.76-37.03 c0-12.94,0-43.01,0-65.4h84.6v-3.46h-29.45l-0.1-0.05c-25.19-4.07-33.94-27.37-33.91-27.13l-13.24,7.19 c3.63,11.39,15.16,17.12,26.54,19.99h-34.45c0-16.1,0-28.42,0-28.42h-1.43c-1.24,8.5-18.57,11.11-18.57,11.11l0,0.07 c3.47,1.18,3.12,8.74,3.12,8.74s0,3.24,0,8.5h-68.22l-10.26-7.67l-8.73,8.16v2.97h87.21C531.19,226.96,531.19,253.6,531.19,272.07 z"/> <path class="st10" d="M620.8,219.47l-2.07,2.9l-0.1-0.04c-4.32,6.55-9.01,10.45-13.25,12.77v-8.9h-20.56l0.01,0.41 c0,0,3.28,2.1,3.29,5.24c0.01,3.34,0.11,69.79,0.11,69.79h17.15v-63.4c4.13-1.54,7.68-3.62,10.56-5.71l1.23,43.32l0.1,0.14 c3.23,46.84,26.73,52.34,26.73,52.34l24.35-15.59c0,0-28.43,12.81-33.71-37.26l-1.54-44.35l2.55-5.22L620.8,219.47z"/> <path class="st10" d="M314.7,301.77l-1.1-70.34l3.18-5.07l-13.2-6.99l-4.93,6.84v0.31c-4.1,4.94-8.34,7.86-12.09,9.56l4.19-55.47 h-1.43c-1.23,8.49-21.4,11.08-21.4,11.08v0.2c3.65,0.89,3.24,8.69,3.24,8.69l-4.42,69.23c-3.66,56.72-34.19,42.96-34.19,42.96 l24.35,15.59c0,0,23.76-5.55,26.78-53.1l2.65-36.26c4.87-1.5,9.01-3.81,12.31-6.16v68.72L314.7,301.77z"/> <path class="st10" d="M418.64,218.83l-4.5,5.91c-4.36,5.29-9.28,8.53-13.58,10.51v-9.05H380l0.01,0.41c0,0,3.28,2.1,3.29,5.24 c0.01,3.34,0.11,69.79,0.11,69.79h17.15v-62.66c5.13-1.58,9.45-4.05,12.83-6.52v69.18h17.65l-0.45-70.79l2.71-5.14L418.64,218.83z "/> <path class="st10" d="M559.35,231.86c0.01,3.34,0.11,69.79,0.11,69.79h17.15V226.2h-20.56l0.01,0.41 C556.07,226.62,559.35,228.72,559.35,231.86z"/> <path class="st10" d="M490.88,226.21l-14.16-6.84l-4.93,6.83h-14.16h-7.28h-13.28l0.01,0.41c0,0,3.28,2.1,3.29,5.24 c0.01,2.13,0.05,13.27,0.08,21.11l-0.08,0c-1.8,39.11,17.98,47.37,17.98,47.37l13.48-11.44c0,1.93,0,3.77,0,5.48 c0,14.55-6.53,25.21-16.58,26.95c-6.35,1.1-12.03-5.4-12.03-5.4s5.47,7.88,11.69,13.44c6.8,6.08,11.26,7.37,11.26,7.37 c23.05-9.2,22.14-40.68,22.14-40.68l0.22-65.11L490.88,226.21z M457.64,253.26V229.7h14.16c0.01,9.61,0.03,38.91,0.04,57.96 C468.01,287.15,457.64,281.31,457.64,253.26z"/> <path class="st10" d="M324.94,231.86c0.01,3.34,0.11,58.61,0.11,58.61l27.34,11.3c20.99-3.21,20.34-35.61,20.34-35.61l0.22-35.23 l2.35-4.74l-14.16-6.84l-4.93,6.83H342.2h-3.3h-17.25l0.01,0.41C321.65,226.62,324.93,228.72,324.94,231.86z M342.2,229.7h14.02 c0.01,5.46,0.03,18.96,0.03,34.79c0,16.74-6.8,23.51-14.05,25.97V229.7z"/> <path class="st10" d="M346.02,355.91c-2.25,0.8-4.86,1.39-7.83,1.77c-0.95,0.13-2,0.17-3.16,0.13c-1.16-0.04-2.34-0.21-3.54-0.5 c-1.2-0.29-2.36-0.74-3.47-1.32c-1.11-0.59-2.09-1.39-2.94-2.4c-0.85-1.01-1.5-2.25-1.95-3.74s-0.62-3.23-0.5-5.25 c0.12-1.87,0.48-3.39,1.07-4.57c0.6-1.18,1.38-2.13,2.35-2.87c0.97-0.74,2.12-1.29,3.45-1.66c1.33-0.37,2.76-0.66,4.27-0.87 c2.24-0.25,4.57-0.16,7,0.27s4.64,0.97,6.66,1.62c2.36,0.76,4.67,1.66,6.93,2.71l-2.6-7.94c-0.57-0.44-1.79-0.87-3.68-1.28 c-1.89-0.41-4.15-0.71-6.8-0.9c-2.65-0.19-5.52-0.21-8.62-0.06c-3.1,0.15-6.14,0.57-9.13,1.26c-3.25,0.78-5.99,1.77-8.21,2.96 c-2.22,1.2-4,2.52-5.34,3.97c-1.34,1.45-2.29,2.96-2.85,4.52c-0.56,1.57-0.84,3.12-0.86,4.65c-0.02,1.53,0.19,2.99,0.62,4.37 c0.43,1.38,1,2.58,1.71,3.61c1.15,1.81,2.69,3.34,4.62,4.59c1.93,1.25,4.11,2.26,6.54,3.03c2.43,0.77,5.1,1.31,7.99,1.64 c2.9,0.33,5.92,0.45,9.07,0.36c2.68-0.08,5.08-0.34,7.19-0.77c2.11-0.43,3.9-0.91,5.38-1.43c1.74-0.59,3.27-1.27,4.6-2.05 l2.42-9.11c-1.29,1.03-2.85,2-4.66,2.9C350.18,354.32,348.27,355.11,346.02,355.91z"/> <path class="st10" d="M407.22,333.15c-2.33-1.47-5.09-2.58-8.28-3.33c-3.19-0.75-6.66-1.12-10.42-1.12 c-4.1,0-7.82,0.37-11.16,1.12c-3.34,0.75-6.2,1.89-8.59,3.42c-2.38,1.53-4.23,3.42-5.56,5.66c-1.32,2.24-1.98,4.84-1.98,7.8 c0,2.75,0.64,5.2,1.92,7.33c1.28,2.13,3.09,3.93,5.42,5.39c2.33,1.46,5.14,2.57,8.43,3.33c3.29,0.76,6.92,1.13,10.9,1.13 c4.3,0,8.11-0.44,11.43-1.32c3.32-0.88,6.11-2.11,8.37-3.69c2.26-1.58,3.98-3.46,5.15-5.66c1.17-2.2,1.76-4.6,1.76-7.2 c0-2.82-0.65-5.3-1.95-7.44C411.37,336.43,409.55,334.62,407.22,333.15z M398.41,351.14c-0.43,1.65-1.11,3.11-2.01,4.38 c-0.91,1.27-2.04,2.29-3.41,3.04c-1.36,0.76-2.97,1.16-4.83,1.2c-1.25,0-2.52-0.19-3.8-0.58c-1.28-0.39-2.45-1.08-3.5-2.07 c-1.05-0.99-1.91-2.33-2.57-4.03c-0.67-1.7-1-3.85-1-6.43c0-2.02,0.2-3.85,0.59-5.48c0.39-1.64,1.02-3.01,1.89-4.13 c0.87-1.11,2-1.99,3.39-2.62c1.39-0.63,3.08-0.97,5.06-1.01c1.86-0.04,3.46,0.25,4.8,0.88c1.34,0.63,2.45,1.5,3.32,2.62 c0.87,1.11,1.52,2.45,1.95,4c0.43,1.56,0.67,3.24,0.71,5.04C399.04,347.76,398.84,349.49,398.41,351.14z"/> <path class="st10" d="M403.66,316.46c0.4-0.26,0.84-0.5,1.3-0.73c0.46-0.22,0.94-0.42,1.42-0.61c0.48-0.18,0.96-0.36,1.42-0.54 c0.46-0.18,0.9-0.38,1.32-0.61c0.41-0.22,0.77-0.47,1.07-0.76c0.3-0.28,0.53-0.61,0.68-0.97c0.15-0.36,0.2-0.8,0.14-1.3 c-0.06-0.48-0.19-0.89-0.38-1.23c-0.19-0.33-0.43-0.62-0.71-0.85c-0.28-0.23-0.6-0.43-0.95-0.59c-0.35-0.16-0.72-0.31-1.11-0.45 c-0.59-0.2-1.28-0.36-2.07-0.48c-0.8-0.12-1.62-0.21-2.47-0.27c-0.85-0.06-1.68-0.1-2.48-0.11c-0.81-0.01-1.5,0.01-2.09,0.05 c-0.4,0.02-0.9,0.07-1.48,0.14c-0.59,0.07-1.14,0.15-1.67,0.23c-0.63,0.08-1.27,0.18-1.94,0.3l-2.39,4.03 c0.75-0.34,1.5-0.67,2.27-0.97c0.65-0.26,1.36-0.51,2.13-0.74c0.78-0.23,1.5-0.39,2.17-0.47c0.46-0.06,0.95-0.11,1.45-0.14 c0.5-0.03,0.98-0.05,1.42-0.05c0.44,0,0.83,0.02,1.17,0.06c0.33,0.04,0.55,0.1,0.65,0.18c0.18,0.12,0.29,0.25,0.32,0.38 c0.03,0.13,0.01,0.27-0.05,0.41c-0.06,0.14-0.16,0.28-0.3,0.41c-0.14,0.13-0.28,0.26-0.42,0.38c-0.06,0.06-0.21,0.17-0.44,0.33 c-0.23,0.16-0.49,0.33-0.77,0.51c-0.28,0.18-0.58,0.36-0.88,0.53c-0.3,0.17-0.56,0.31-0.76,0.41c-0.85,0.4-1.53,0.83-2.04,1.29 c-0.51,0.45-0.89,0.95-1.14,1.48c-0.24,0.54-0.36,1.11-0.36,1.71c0,0.61,0.09,1.26,0.27,1.97l0.03,0.18 c0.4-0.02,0.8-0.04,1.18-0.06c0.34-0.02,0.7-0.03,1.08-0.05c0.37-0.01,0.7-0.02,0.98-0.02c0.3,0,0.65,0.01,1.04,0.02 c0.39,0.01,0.77,0.03,1.14,0.05c0.42,0.02,0.86,0.04,1.3,0.06l-0.24-0.39c-0.16-0.24-0.23-0.55-0.2-0.92 c0.03-0.37,0.14-0.67,0.32-0.89C402.9,317.03,403.26,316.72,403.66,316.46z"/> <path class="st10" d="M380.28,320.19c-0.87,0.99-1.85,2.03-2.95,3.13c-1.1,1.1-2.21,2.11-3.32,3.01h8.93l4.69-4.72l4.24,4.72h9.96 c-1.23-1.05-2.42-2.14-3.56-3.27c-1.14-1.13-2.15-2.17-3.01-3.12c-1.03-1.09-1.96-2.17-2.79-3.24h-9.24 C382.3,317.91,381.31,319.08,380.28,320.19z"/> <path class="st10" d="M537.91,336.7c0.08-1.46,0.17-2.78,0.27-3.97c0.1-1.19,0.21-2.16,0.33-2.92h-15.99 c0.16,0.71,0.29,1.67,0.39,2.85c0.1,1.19,0.18,2.51,0.24,3.97c0.06,1.46,0.09,3.01,0.09,4.65c0,1.64,0,3.26,0,4.85 c0,0.86-0.01,1.85-0.03,2.96c-0.02,1.11-0.07,2.16-0.15,3.15c-0.08,1.18-0.14,2.34-0.18,3.5c-3.35,0.9-6.35,1.44-8.99,1.61 c-1.11,0.08-2.22,0.1-3.32,0.03c-1.1-0.06-2.09-0.26-2.95-0.58c-0.87-0.33-1.59-0.8-2.17-1.42c-0.58-0.62-0.88-1.44-0.92-2.47 c-0.24-3.57-0.28-7.34-0.12-11.3c0.16-3.96,0.46-7.9,0.91-11.8h-16.11c0.2,0.95,0.33,2.35,0.39,4.22 c0.06,1.87,0.09,3.98,0.09,6.32s-0.03,4.82-0.09,7.42c-0.06,2.61-0.11,5.11-0.15,7.5c-0.04,1.34,0.5,2.53,1.62,3.56 c1.12,1.03,2.55,1.9,4.28,2.62c1.74,0.72,3.65,1.25,5.74,1.59c2.09,0.35,4.06,0.5,5.92,0.46c2.56-0.11,4.8-0.31,6.72-0.63 c1.92-0.32,3.54-0.69,4.88-1.13c1.53-0.46,2.88-1,4.03-1.61l-0.12,2.58h15.99c-0.16-0.74-0.29-1.72-0.39-2.95 c-0.1-1.23-0.18-2.58-0.24-4.07s-0.12-3.04-0.17-4.68c-0.05-1.64-0.08-3.27-0.08-4.89c0-1.6,0.03-3.2,0.08-4.82 C537.76,339.7,537.83,338.16,537.91,336.7z"/> <path class="st10" d="M514.38,367.61c-1.41,0-2.6,0.48-3.57,1.45c-0.97,0.97-1.45,2.13-1.45,3.48c0,1.41,0.48,2.6,1.45,3.57 c0.97,0.97,2.16,1.45,3.57,1.45c1.39,0,2.57-0.48,3.54-1.45c0.97-0.97,1.45-2.16,1.45-3.57c0-1.35-0.48-2.51-1.45-3.48 C516.95,368.1,515.77,367.61,514.38,367.61z"/> <path class="st10" d="M584.05,355.91c-2.25,0.8-4.86,1.39-7.83,1.77c-0.95,0.13-2,0.17-3.16,0.13c-1.16-0.04-2.34-0.21-3.54-0.5 c-1.2-0.29-2.36-0.74-3.47-1.32c-1.11-0.59-2.09-1.39-2.94-2.4c-0.85-1.01-1.5-2.25-1.95-3.74c-0.45-1.48-0.62-3.23-0.5-5.25 c0.12-1.87,0.48-3.39,1.08-4.57c0.6-1.18,1.38-2.13,2.35-2.87c0.97-0.74,2.12-1.29,3.45-1.66c1.33-0.37,2.76-0.66,4.27-0.87 c2.24-0.25,4.57-0.16,7,0.27c2.42,0.43,4.64,0.97,6.66,1.62c2.36,0.76,4.67,1.66,6.93,2.71l-2.6-7.94 c-0.57-0.44-1.79-0.87-3.68-1.28c-1.89-0.41-4.15-0.71-6.8-0.9c-2.65-0.19-5.52-0.21-8.62-0.06c-3.1,0.15-6.14,0.57-9.13,1.26 c-3.25,0.78-5.99,1.77-8.21,2.96c-2.22,1.2-4,2.52-5.34,3.97c-1.34,1.45-2.29,2.96-2.85,4.52c-0.56,1.57-0.84,3.12-0.86,4.65 c-0.02,1.53,0.19,2.99,0.62,4.37c0.43,1.38,1,2.58,1.71,3.61c1.15,1.81,2.69,3.34,4.62,4.59c1.93,1.25,4.11,2.26,6.54,3.03 c2.43,0.77,5.1,1.31,7.99,1.64c2.9,0.33,5.92,0.45,9.07,0.36c2.68-0.08,5.08-0.34,7.19-0.77c2.11-0.43,3.9-0.91,5.38-1.43 c1.74-0.59,3.27-1.27,4.6-2.05l2.42-9.11c-1.29,1.03-2.85,2-4.66,2.9C588.21,354.32,586.3,355.11,584.05,355.91z"/> <path class="st10" d="M470.77,357.46c-2.42,0.15-4.65,0.19-6.68,0.13c-2.03-0.06-3.74-0.14-5.13-0.22 c-0.08-0.72-0.27-12.75-0.35-19c-3.63-3.16-6.87-6.87-8.67-9.04c-3.04-3.83-5.07-7.09-5.07-7.09l0.08,8.67 c0,7.08,0.01,23.71-0.04,24.87c-0.06,1.48-0.17,2.83-0.32,4.03c-0.15,1.21-0.35,2.18-0.59,2.92h40l2.6-8.57 c-2.77,1.03-5.49,1.8-8.18,2.32C475.75,356.98,473.19,357.31,470.77,357.46z"/> <path class="st10" d="M777.31,276.94c-9.8-2.74-19.89-10.52-30.77-10.98c-6.37-0.27-13.04,1.58-16.89,7.03 c-3.51,4.96-2.88,11.23,0.91,15.84c1.6,1.94,3.65,3.44,5.77,4.76c4.66,2.88,9.59,6.26,12.49,11.04c3.2,4.9,4.42,10.95,2.44,16.55 c-1.85,5.27-6.17,9.33-11.28,11.43c-5.87,2.41-12.44,2.2-18.41,0.28c-5.51-7.21-11.17-18.36-16.04-35.55 c-1.37-4.82-3.73-16.71-3.73-16.71l-12.39-67.66l1.93-2.42L679.76,203l-4.44,4.03l-0.07-0.03c-0.15,0.17-0.3,0.34-0.45,0.51 l-1.54,1.4c0,0,0.01,0.07,0.03,0.2c-3.78,3.71-8.07,6.09-11.96,7.62c-0.87-9.5-1.75-19-2.62-28.5c-0.24-2.56-0.47-5.13-0.71-7.69 l-1.43,0.03c-0.26,2.08-1.33,3.81-2.87,5.25c-4,3.78-11.04,5.52-14.03,6.12c-0.87,0.17-1.4,0.25-1.4,0.25c0,0.52,0,0.62,0,0.62 s2.92,0.44,3.49,4.83c0.31,2.38,2.75,23.02,4.24,36.07c2.22,19.55,4.06,43.45,4.65,48.72c0.8,7.18,1.96,13.58,3.37,19.28 c0.29,1.23,0.61,2.41,0.93,3.57l6.14-3.74c0,0,7.33-4.46,7.43-4.52c1.44-0.88,2.88-1.75,4.32-2.63 c-3.14-6.08-4.29-12.34-5.58-18.97c-1.21-6.19-1.86-12.31-2.46-18.79c-1.05-11.42-2.1-24.73-3.15-36.15 c5.14-1.4,9.42-3.76,12.57-5.94c3.03,17.33,12.2,71.71,15.17,90.53c0.35,2.24,0.74,4.4,1.16,6.49c2.86,1.83,7.59,6.46,9.82,8.7 c-0.8-0.53-1.59-1.05-2.34-1.54c-0.76-0.53-1.5-1-2.21-1.43c-1.23-0.78-2.34-1.46-3.26-2c-10.03-5.76-14.48-3.49-25.73,3.48 c-24.05,13.29-18.74,20.96-40.64,0.47c9.88,11.49,21.04,18.33,21.44,18.46c8.4-3.21,37.49-27.94,46.5-19.11 c3.92,2.68,9,6.37,14.51,10.03c5.46,4.45,10.79,7.42,15.85,9.3c6.4,3.07,12.5,4.87,17.25,3.91c1.18-0.24,2.59-0.02,3.81-0.16 c1.3-0.14,2.58-0.38,3.84-0.7c2.47-0.63,4.86-1.58,7.08-2.82c4.18-2.32,7.88-5.67,10.35-9.79c2.22-3.7,3.39-8.1,2.57-12.4 c-1-5.22-4.9-9.67-9.59-12.02c-6.1-3.05-12.09-6.54-18.34-9.29c-6.65-2.92-14.49-9.29-11.81-17.52c2.3-7.04,10.47-9.64,17.18-8.65 c7.68,1.13,13.13,7.07,19.73,10.59c4.16,2.22,8.67,4.02,13.4,4.48c10.73,1.06,19.28-5.86,25.45-13.93 c0.21-0.28,0.42-0.56,0.63-0.84C797.16,273.78,787.41,279.67,777.31,276.94z"/> <path class="st10" d="M233.15,318.77c-11.25-6.97-15.7-9.24-25.73-3.48c-0.15,0.09-0.31,0.18-0.47,0.27 c-1.95,0.97-4.92,2.63-7.8,4.99c-0.18,0.12-0.36,0.24-0.55,0.36c1.75-1.78,7.07-7.1,10.28-9.24c0.48-1.99,0.92-4.04,1.32-6.57 c0.58-3.68,1.4-8.66,2.36-14.41l14.88,11.07c0,0,20.13-2.06,27.22-43.23l0.04,0.02l0.23-1.64c0.32-1.97,0.6-5.92,0.85-8.06 l4.47-32.34l3.42-4.7l-13.52-8.92l-6.18,6.07l-0.01,0.1c-7.29,7.21-14.33,9.67-19.53,10.33c1.11-6.42,1.81-10.44,1.81-10.44H207.6 l-0.05,0.41c0,0,3.05,1.14,2.65,3.64c-0.15,0.92-12.39,67.66-12.39,67.66s-2.36,11.89-3.73,16.71 c-4.89,17.26-10.57,28.43-16.1,35.63c-5.85,1.79-12.24,1.93-17.96-0.41c-5.11-2.1-9.43-6.16-11.28-11.43 c-1.97-5.6-0.75-11.66,2.44-16.55c2.91-4.78,7.84-8.16,12.49-11.04c2.12-1.31,4.17-2.81,5.77-4.76 c3.79-4.61,4.42-10.87,0.91-15.84c-3.85-5.45-10.52-7.29-16.89-7.03c-10.88,0.46-20.97,8.24-30.77,10.98 c-10.1,2.74-19.84-3.16-28.75-8.16c0.21,0.28,0.42,0.56,0.63,0.84c6.17,8.08,14.72,14.99,25.45,13.93 c4.73-0.47,9.24-2.26,13.4-4.48c6.59-3.52,12.05-9.46,19.73-10.59c6.72-0.99,14.88,1.61,17.18,8.65 c2.68,8.23-5.15,14.6-11.81,17.52c-6.25,2.74-12.24,6.23-18.34,9.29c-4.69,2.34-8.59,6.79-9.59,12.02 c-0.82,4.3,0.36,8.7,2.57,12.4c2.47,4.12,6.17,7.47,10.35,9.79c2.23,1.24,4.61,2.19,7.08,2.82c1.26,0.32,2.55,0.56,3.84,0.7 c1.22,0.14,2.63-0.08,3.81,0.16c4.25,0.86,9.58-0.5,15.24-2.99c6.65-2.02,13.85-5.85,21.23-12.5c0,0,0,0,0,0 c4.19-2.87,8.02-5.63,11.12-7.74c9.02-8.83,38.11,15.91,46.5,19.11c0.41-0.13,11.56-6.98,21.44-18.46 C251.89,339.73,257.19,332.07,233.15,318.77z M224,221.82c7.64-0.34,14.17-2.93,18.85-5.49l-4.88,32.38 c-6.12,32.18-19.83,39.53-25.15,40.42C216.19,268.93,221.15,238.28,224,221.82z"/> <circle class="st10" cx="782.21" cy="255.48" r="13.64"/> <circle class="st10" cx="117.41" cy="255.48" r="13.64"/> <path class="st10" d="M611.59,339.24c-3.58,0-6.48,2.9-6.48,6.48s2.9,6.48,6.48,6.48c3.58,0,6.48-2.9,6.48-6.48 S615.17,339.24,611.59,339.24z"/> <circle class="st10" cx="288.02" cy="345.72" r="6.48"/> </g> </g> </svg>