<?xml version="1.0" encoding="UTF-8"?> <svg xmlns="http://www.w3.org/2000/svg" id="Layer_1" data-name="Layer 1" viewBox="0 0 900 450"><path d="M267.03,202.92c-.34,0-.68,.03-1.03,.1-.34,.07-.68,.1-1.02,.1-.41,0-.8-.03-1.18-.1-.38-.07-.77-.1-1.18-.1-1.09-.07-2.19,.03-3.28,.31-.27,.21-.62,.31-1.02,.31-.21,0-.51-.07-.92-.21-1.03-.34-1.91-.51-2.67-.51-.34,0-.92,.07-1.74,.2l-1.23,.1-1.23-.1h-.31c-.14,0-.33,.09-.56,.26-.24,.17-.39,.36-.46,.56l-.51,2.66c-.14,.55-.21,.92-.21,1.13,0,.48,.14,1.06,.41,1.74,.34,.48,.51,1.09,.51,1.84,0,.14,.1,.51,.31,1.13,.27,.48,.58,.72,.92,.72,.07,0,.24-.07,.51-.21,.14-.2,.34-.37,.61-.51,.14-.14,.32-.19,.56-.15,.24,.04,.43,.12,.56,.26l.2,.41c.2,.41,.72,.86,1.54,1.33,.96,.55,1.57,1.4,1.84,2.56l.31,1.13c.2,.48,.31,1.02,.31,1.64v7.69c0,1.3-.62,2.32-1.84,3.08-.27,.2-.65,.45-1.13,.72-.48,.27-.85,.55-1.13,.82-.48,.34-.79,.51-.92,.51-.2,0-.41-.17-.62-.51-.34-.82-1.02-1.23-2.05-1.23h-20.3c-.75,0-1.27-.03-1.54-.1-.48,0-.94-.19-1.38-.56-.45-.37-.7-.73-.77-1.08-.07-.34-.17-.89-.31-1.64-.14-.75-.17-1.44-.1-2.05,0-.21-.07-.39-.2-.56-.14-.17-.27-.29-.41-.36-.2-.07-.46-.14-.77-.21-.31-.07-.56-.2-.77-.41-.14,0-.2-.07-.2-.2-.07-.14-.07-.26,0-.36,.07-.1,.17-.15,.31-.15,.07,0,.17,.02,.31,.05,.14,.03,.31,.02,.51-.05,.61,0,.99-.31,1.13-.92,0-.48,.03-.85,.1-1.13,.14-1.23,.2-2.08,.2-2.56,0-.96-.1-1.88-.31-2.77-.14-.34-.09-.67,.15-.97,.24-.31,.56-.49,.97-.56l.72-.1c.34,0,.73-.05,1.18-.15,.44-.1,.84-.19,1.18-.26l2.46-.1c.62-.07,1.09-.34,1.44-.82,.82-.55,1.23-1.33,1.23-2.36-.14-1.23-.21-2.08-.21-2.56-.14-.82-.51-1.5-1.13-2.05-.2-.2-.31-.44-.31-.72l.31-.72c.14-.2,.17-.41,.1-.61-.07-.21-.2-.34-.41-.41-.41-.14-.79-.2-1.13-.2h-5.74c-1.37-.14-2.7-.03-4,.31-1.5-.27-2.56-.41-3.18-.41h-7.18c-3.14,0-5.5,.03-7.07,.1-.89,0-1.54,.03-1.95,.1-.68,.07-1.13,.41-1.33,1.02-.55,1.3-.82,2.53-.82,3.69,0,1.23,.27,2.5,.82,3.79,.14,.41,.58,.72,1.33,.92,1.02,.14,1.91,.34,2.66,.62,.75,.27,1.81,.41,3.18,.41,.34-.68,.68-1.06,1.02-1.13l.21,.1c.14,.14,.14,.27,0,.41,0,.21-.07,.31-.21,.31-.2,.2-.55,.31-1.02,.31,.14,.62,.27,1.02,.41,1.23,.34,.82,.51,1.98,.51,3.49s.03,2.53,.1,3.28c.07,.27,.1,.72,.1,1.33s-.03,1.09-.1,1.44c-.07,.27-.05,.56,.05,.87,.1,.31,.15,.56,.15,.77,.07,.2,.1,.48,.1,.82v.41c-.07,.2-.1,.51-.1,.92s.03,.75,.1,1.03c.27,1.23,.41,2.12,.41,2.66,0,.89-.17,1.84-.51,2.87-.07,.34-.1,.75-.1,1.23,0,.2,.02,.45,.05,.72,.03,.27,.02,.58-.05,.92-.14,.62-.2,1.54-.2,2.77v9.02l.41,2.77c-.27,.89-.41,1.95-.41,3.18v4.41c0,.55-.03,.99-.1,1.33-.14,.62-.41,1.06-.82,1.33-.75,.55-1.47,.86-2.15,.92-1.09,0-1.91,.04-2.46,.1-.55,0-.92,.04-1.13,.1-.62,.21-1.02,.58-1.23,1.13-.14,.55-.2,.92-.2,1.13v6.46c.07,.34,.24,.67,.51,.97,.27,.31,.58,.46,.92,.46,.34,.07,.89,.1,1.64,.1h1.95c.96,.07,1.95-.17,2.97-.72l.2-.2c.07,0,.08,.02,.05,.05-.03,.04-.12,.09-.26,.15,.27,.41,.72,.75,1.33,1.03,.55,.27,1.19,.41,1.95,.41l5.13,.1c.89,0,2.15-.07,3.79-.2,.27-.07,.51-.08,.72-.05,.2,.03,.37,.05,.51,.05,.82,.14,1.33,.2,1.54,.2,3.08,0,5.43-.03,7.07-.1h.72c.27-.07,.55-.24,.82-.51s.48-.55,.61-.82l.1-.92c.14-.48,.21-1.23,.21-2.26,0-.41,.08-.89,.26-1.43,.17-.55,.29-1.03,.36-1.44v-.72c-.2-.68-.61-1.47-1.23-2.36-.2-.2-.41-.31-.62-.31-.07,0-.24,.02-.51,.05-.27,.03-.51,.02-.72-.05-.62-.07-1.33-.17-2.15-.31-.82-.14-1.44-.24-1.84-.31-.41-.14-.77-.36-1.08-.67-.31-.31-.5-.67-.56-1.08-.14-.41-.21-.79-.21-1.13v-5.33l-.41-2.36c.27-1.16,.41-2.46,.41-3.9,0-1.3-.1-2.56-.31-3.79l.51-2.77c.07-.34,.24-.63,.51-.87,.27-.24,.58-.46,.92-.67,.14-.07,.41-.1,.82-.1,.62-.07,1.71-.1,3.28-.1,1.98,0,3.45-.03,4.41-.1,.55,0,1.02-.2,1.44-.61-.07,0-.17-.07-.31-.21,0-.14,.03-.17,.1-.1,.07,.07,.14,.17,.2,.31l1.64,.41c.75,.2,1.5,.31,2.26,.31h5.23c.55,0,1.08-.03,1.59-.1,.51-.07,1.01-.1,1.49-.1,.48-.07,1.11-.05,1.9,.05,.79,.1,1.38,.15,1.79,.15h3.59c.34-.34,.58-.51,.72-.51s.2,.07,.2,.2-.03,.2-.1,.2c-.2,.07-.48,.1-.82,.1,.55,1.23,.82,2.29,.82,3.18,0,1.85,.03,3.21,.1,4.1v2.46c0,.41,.14,.89,.41,1.43,.2,.14,.37,.38,.51,.72l-.2,.41c-.41,.41-.62,.92-.62,1.54v.31c.07,.27,.1,.65,.1,1.13v.41c-.14,.55-.22,1.15-.26,1.79-.03,.65-.05,1.15-.05,1.49,0,.89-.03,1.57-.1,2.05-.07,.14-.14,.31-.2,.51-.07,.21-.17,.41-.31,.62-.61,.96-1.47,1.44-2.56,1.44-.68,.07-1.64,.1-2.87,.1-.27,0-.55,.07-.82,.2-.34,0-.65,.31-.92,.92-.07,.07-.14,.15-.2,.26-.07,.1-.1,.22-.1,.36v6.46c0,.14,.03,.24,.1,.31,.07,.07,.1,.17,.1,.31,.14,.96,.79,1.5,1.95,1.64,.34,.07,.67,.08,.97,.05,.31-.03,.63-.02,.97,.05,.48,0,1.16-.05,2.05-.15,.89-.1,1.57-.12,2.05-.05,.96,.14,2.29,.2,4,.2h10.97c1.02,0,2.03-.03,3.02-.1,.99-.07,1.9-.27,2.72-.62,.55-.07,1.08-.15,1.59-.26s1.01-.19,1.49-.26c.2,0,.34-.03,.41-.1,.34-.14,.58-.34,.72-.62,.21-.55,.31-1.06,.31-1.54l-.1-.82c-.07-.34-.26-.68-.56-1.02-.31-.34-.67-.58-1.08-.72l-1.23,.1c-.27,0-.41-.14-.41-.41,0-.07,.07-.17,.2-.31,.27-.34,.62-.51,1.02-.51l1.13,.1c.27,0,.5-.07,.67-.2,.17-.14,.26-.31,.26-.51v-1.23c-.14-.82-.55-1.37-1.23-1.64-.27-.2-.75-.37-1.44-.51l-2.87-.1c-.07,0-.24-.03-.51-.1-.27-.07-.51-.17-.72-.31-1.23-.48-1.95-1.37-2.15-2.67v-2.46c0-9.02-.04-15.79-.1-20.3v-2.87c-.14-.41-.27-.75-.41-1.02l-.72-1.13c-.07-.48,.05-1.03,.36-1.64,.31-.62,.5-1.06,.56-1.33,0-.2-.02-.53-.05-.97-.04-.44-.02-.8,.05-1.08,.14-1.09,.2-1.88,.2-2.36v-.92c0-2.6,.03-4.48,.1-5.64,0-.89,.03-1.57,.1-2.05,.07-.68,.51-1.37,1.33-2.05,.27-.14,.89-.37,1.85-.72,1.5-.27,2.56-.51,3.18-.72,.14,.14,.41,.21,.82,.21l.41,.1c.27,0,.53-.1,.77-.31,.24-.2,.39-.44,.46-.72,.07-.82,.1-2.05,.1-3.69s-.04-2.77-.1-3.59l-.1-.41c-.07-.27-.27-.56-.61-.87-.34-.31-.62-.5-.82-.56-.82-.14-1.44-.2-1.85-.2s-1.02,.07-1.84,.2c-.2,0-.45,.07-.72,.2-.34,.34-.68,.55-1.02,.62-.2,0-.45-.07-.72-.2-.68-.48-1.47-.72-2.36-.72-.62,0-1.35-.02-2.2-.05-.85-.03-1.86-.02-3.02,.05Zm-13.12,4.51l-.31-.1c0-.07,.14-.1,.41-.1l.21,.1c-.07,.07-.17,.1-.31,.1Zm-24.12-1.86c.4-.36,.75-.36,1.05,0v.4c-.3,.18-.65,.18-1.05,0-.1-.09-.15-.18-.15-.27s.05-.13,.15-.13Zm-25.39-.09l.21-.31,.1,.31h-.31Zm2.15,3.69v-.31l.2,.21-.2,.1Zm1.54-2.46l.1-.31,.2,.1-.31,.21Zm1.84,63.45l-.31-.1,.31-.1v.2Zm0-2.36l-.31-.2,.31-.21v.41Zm.82-21.94l-.2-.31,.31-.1-.1,.41Zm.21,9.23l.2-.31,.1,.31h-.31Zm19.27,10.15c0-.21,.24-.31,.72-.31s.85,.1,1.13,.31c.2,.07,.23,.23,.11,.49l.59-.13v.4l-.59-.26s0,0,0,.01c-.2,.21-.34,.31-.41,.31-.21,.07-.41,.05-.62-.05-.21-.1-.34-.19-.41-.26-.41-.2-.58-.37-.51-.51Zm-2.36,1.44v.2l-.21-.1,.21-.1Zm-4.49-41.89c0-.09,.05-.13,.15-.13s.2-.04,.3-.13c.4,0,.65,.13,.75,.4l-.15,.54h-.6c-.2,0-.35-.07-.45-.2-.1-.13-.1-.29,0-.47Zm-1.97,6.73v.41l-.31-.2,.31-.2Zm-.62,23.27c.2-.14,.37-.14,.51,0,.21,.07,.31,.27,.31,.61,0,.27-.14,.45-.41,.51-.07,.07-.14,.09-.2,.05-.07-.03-.14-.05-.2-.05-.2-.14-.31-.31-.31-.51,0-.34,.1-.55,.31-.61Zm-1.02-31.37v.41l-.41-.31,.41-.1Zm-.51,13.53l.1,.31-.31-.1,.2-.21Zm-.85,5c.2-.27,.5-.4,.9-.4,.8,0,1.2,.36,1.2,1.07,0,.54-.25,.94-.75,1.21h-.6c-.6-.27-.9-.71-.9-1.34,0-.27,.05-.45,.15-.54Zm1.56,18.38l-.2,.1c-.14,0-.21-.07-.21-.21l.21-.1,.2,.21Zm-.92,4.71c0,.07-.02,.09-.05,.05-.04-.03-.09-.12-.15-.26-.27-.14-.34-.37-.2-.72l.2-.2c0-.07,.02-.2,.05-.41,.03-.21,.15-.34,.36-.41l.1,.31c-.14,.21-.31,.38-.51,.51v.92l.21,.2Zm-.28,2.98l-.6,.13v-.54l.6,.4Zm-.44-11.18h.31c.14,0,.2,.07,.2,.2,.07,.07,.05,.15-.05,.26s-.22,.15-.36,.15c-.27,0-.41-.14-.41-.41,0-.14,.1-.2,.31-.2Zm-1.54-22.45l.1,.41h-.2l.1-.41Zm-1.23-28.8l.21,.2-.31,.1,.1-.31Zm-1.13,12.92c.2-.27,.51-.48,.92-.61,.34,0,.55,.1,.62,.31v.41c-.27,.41-.55,.65-.82,.72-.41,.14-.65,.1-.72-.1-.2-.27-.2-.51,0-.72Zm-.62,38.7c.07,.03,.14,.12,.2,.26l.21,.2c0,.07-.02,.09-.05,.05-.04-.03-.09-.12-.15-.26l-.31-.1c0-.14,.03-.19,.1-.15Zm-.38,8.48l-.15,.4-.15-.4h.3Zm-1.26-45.95l.1-.31,.2,.2-.31,.1Zm2.77,51.36l-.41-.2,.41-.1v.31Zm.51-3.08c-.2,.14-.79,.38-1.74,.72-.2,0-.45-.14-.72-.41l.31-.31c.14-.07,.39-.2,.77-.41,.37-.21,.73-.31,1.08-.31,.27,0,.44,.14,.51,.41l-.2,.31Zm7.07,5.51c-.4,.09-.85,.13-1.36,.13h-1.05c-.6-.09-1.2-.4-1.81-.94-.7,0-1.31-.04-1.81-.13-.2,0-.38-.04-.53-.13-.15-.09-.23-.22-.23-.4-.1-.27,0-.54,.3-.8,.4-.36,.95-.54,1.66-.54s1.05,.31,1.05,.94v.13c-.3,.54-.45,.85-.45,.94,1.81,0,3.16,.05,4.06,.13,.4,0,.6,.18,.6,.54l-.45,.13Zm1.39-13.81c-.04,.07-.12,.14-.26,.2l-.51,.41c-.2,.14-.38,.07-.51-.21-.2-.14-.27-.24-.2-.31,.2-.34,.41-.44,.62-.31l.61,.41c.07-.07,.1-.14,.1-.2s.03-.1,.1-.1,.08,.03,.05,.1Zm.89-.8c-.05,.13-.23,.25-.53,.34-.4,.18-.7,.05-.9-.4,.3-.27,.6-.36,.9-.27,.4,.09,.58,.2,.53,.33Zm-.84-8.74l.2-.31,.1,.31h-.31Zm.99-4.27c-.05,.05-.07,.11-.07,.2l-.6,.13c-.5-.18-.6-.4-.3-.67,.3-.27,.6-.22,.9,.13,.1,.09,.12,.16,.07,.2Zm1.17-12.33v-.2l.31,.1-.31,.1Zm7.48,2.36l-.41-.2,.41-.1v.31Zm5.13-1.02c-.2,.2-.48,.31-.82,.31h-.31c-.2-.07-.34-.2-.41-.41-.07-.21-.03-.37,.1-.51,.21-.27,.55-.48,1.03-.62,.14-.07,.29-.05,.46,.05,.17,.1,.26,.26,.26,.46,0,.27-.1,.51-.31,.72Zm16.09-2.15l-.31-.2,.31-.1v.31Zm6.25-28.8l.2,.1-.2,.1v-.2Zm-2.26,59.25c-.14,.2-.41,.45-.82,.72-.14,.14-.24,.2-.31,.2-.14,0-.15-.02-.05-.05,.1-.03,.22-.08,.36-.15,.14-.34,.41-.58,.82-.72l.1-.41c.21,0,.17,.14-.1,.41Zm.82-20.71l-.31-.2,.31-.1v.31Zm0-16.3l-.31-.1,.31-.1v.2Zm1.59,46.49c-.03,.1-.09,.15-.15,.15-.14,.07-.38,.1-.72,.1l-.1,.31c-.14,0-.2-.03-.2-.1s.1-.14,.31-.21c.34-.41,.58-.61,.72-.61,.07,0,.1,.03,.1,.1,.07,.07,.08,.15,.05,.26Zm.05-25.68c-.27,0-.41-.17-.41-.51l.31-.1c.34,0,.51,.17,.51,.51l-.41,.1Zm-.41-17.43h-.2l-.31-.1,.1-.31c.14-.07,.37-.12,.72-.15,.34-.03,.65-.05,.92-.05,.34-.41,.55-.61,.62-.61,.14,0,.2,.07,.2,.2l-.1,.31c-.2,.07-.45,.1-.72,.1-.41,.41-.82,.62-1.23,.62Zm-.51-5.02v-.31l.2,.2-.2,.1Zm2.36,16.91l.31,.1-.31,.2v-.31Zm.62,4.41l.1,.31h-.41l.31-.31Zm-.31-7.07l.31-.31,.1,.31h-.41Zm.61,21.12l-.1,.2c-.07,0-.1-.02-.1-.05s.07-.08,.2-.15c.07-.07,.1-.15,.1-.26s.03-.15,.1-.15c.2,.2,.14,.34-.21,.41Zm2.05-49.51c-.14,.41-.38,.68-.72,.82h-.51l-.61-.2c-.68-.34-1.71-1.02-3.08-2.05-.55-.61-.86-1.23-.92-1.84,0-.14,.08-.29,.26-.46,.17-.17,.32-.26,.46-.26h.1c.2,.07,.51,.19,.92,.36,.41,.17,.72,.39,.92,.67,.07,.14,.17,.27,.31,.41,.14,.14,.27,.31,.41,.51,.27,.41,.62,.61,1.02,.61l.82,.21c.2,.07,.37,.2,.51,.41,.14,.2,.2,.41,.2,.62l-.1,.2Zm1.13,54.12v-.41l.31,.31-.31,.1Zm.82-6.56c-.2,.27-.45,.27-.72,0v-.31c.27-.07,.51-.07,.72,0v.31Zm.1-23.58l-.31-.2,.31-.1v.31Zm.72,37.21c.07,0,.12-.02,.15-.05,.03-.03,.08-.02,.15,.05,.07,0,.24,.14,.51,.41-.07,0-.2-.02-.41-.05-.2-.03-.34-.15-.41-.36Zm0-17.02c0-.2,.17-.31,.51-.31l.31,.2c0,.34-.17,.45-.51,.31-.21,0-.31-.07-.31-.21Zm.82,17.53c.21,0,.31,.07,.31,.21s-.1,.07-.31-.21Zm-.1-39.77c-.2,.2-.41,.2-.62,0-.27-.14-.34-.31-.2-.51,0-.34,.17-.51,.51-.51,.48,0,.72,.21,.72,.62,0,.2-.14,.34-.41,.41Zm8.61,39.16l-.41,.2c-.34,0-.63-.12-.87-.36-.24-.24-.36-.49-.36-.77v-.1c0-.14,.1-.2,.31-.2,.27,0,.58,.15,.92,.46,.34,.31,.48,.56,.41,.77Zm-1.84-5.64c.14-.14,.31-.21,.51-.21h.41c.07-.07,.14-.08,.2-.05,.07,.04,.14,.05,.2,.05h.51c.34,0,.51,.14,.51,.41-.07,.2-.31,.31-.72,.31h-1.44c-.2-.2-.27-.37-.2-.51Zm-3.38-3.28c.14-.07,.27-.07,.41,0,.14,.07,.31,.27,.51,.62,0,.07,.02,.12,.05,.15,.03,.04,.02,.09-.05,.15-.21,.2-.41,.2-.62,0-.34-.14-.51-.31-.51-.51s.07-.34,.2-.41Zm8.1-51.36l.31,.21-.31,.1v-.31Zm-1.95-.1l-.2-.2h.41l-.2,.2Zm-2.05-4.2c.14-.07,.29-.15,.46-.26,.17-.1,.39-.19,.67-.26,.48-.2,.92-.03,1.33,.51,.07,.07,.14,.1,.2,.1s.1,.04,.1,.1c0,.14-.1,.07-.31-.2-.14,.2-.29,.36-.46,.46-.17,.1-.29,.19-.36,.26-.34,.34-.79,.31-1.33-.1l-.31-.62-.21-.1c0-.07,.07-.03,.21,.1Zm-4.82,53.2v.31l-.31-.21,.31-.1Zm-1.03-43.16l.41,.21-.41,.1v-.31Z" style="fill: #fff;"></path><path d="M331.09,260.33l-1.13,1.64-1.85,.2c-1.16,.62-2.63,1.16-4.41,1.64-1.03,.34-1.95,.51-2.77,.51-.41,0-.96-.07-1.64-.21-.62-.14-1.45-.32-2.51-.56-1.06-.24-1.97-.46-2.72-.67-1.09-.41-2.02-.96-2.77-1.64-1.09-1.09-1.81-1.74-2.15-1.95-.27,.41-.58,.68-.92,.82l-.2,.21c-.07,0-.09-.02-.05-.05s.12-.08,.26-.15c.14-.41,.37-.72,.72-.92l-.92-1.33c-.62-.68-1.02-1.54-1.23-2.56l-1.03-2.36c-.68-1.57-1.09-2.56-1.23-2.97-.07-.41-.31-.85-.72-1.33-.2-.62-.31-.99-.31-1.13s.03-.24,.1-.31,.1-.14,.1-.2c.2-.75,.31-1.44,.31-2.05,0-.68-.03-1.19-.1-1.54-.07-.27-.1-.65-.1-1.13v-.51c.14-.48,.2-1.3,.2-2.46v-8.2c0-1.02-.34-1.84-1.02-2.46-.34-.41-.27-.72,.2-.92,.55-.27,.92-.62,1.13-1.02,.34-.89,.51-1.3,.51-1.23,.07-.68,.31-1.71,.72-3.08,.23-.65,.46-1.23,.69-1.78-2.68-4.25-5.28-8.37-7.76-12.32-.08,.06-.15,.11-.21,.15-.2,.14-.51,.36-.92,.67-.41,.31-.72,.6-.92,.87-.14,.14-.46,.45-.97,.92-.51,.48-.91,.99-1.18,1.54,.07,.07,.14,.1,.2,.1s.07,.03,0,.1c0,.07-.02,.09-.05,.05-.03-.03-.09-.08-.15-.15-.34,.07-.79,.41-1.33,1.02-.14,.2-.29,.46-.46,.77-.17,.31-.39,.63-.67,.97-.62,.55-1.16,1.21-1.64,2-.48,.79-.82,1.32-1.02,1.59-1.03,1.57-1.71,2.91-2.05,4-.34,.89-.65,1.68-.92,2.36-.27,.68-.51,1.27-.72,1.74-.07,.2-.1,.51-.1,.92-.14,1.57-.38,2.94-.72,4.1-.14,.41-.2,.99-.2,1.74,0,.68,.03,1.16,.1,1.44,.07,.27,.27,.41,.62,.41l.82-.1c.2-.07,.39-.14,.56-.21,.17-.07,.39-.14,.67-.2,.2,0,.41,.14,.62,.41,.07,.07,.07,.17,0,.31-.07,.14-.17,.24-.31,.31-1.09,.41-1.81,.75-2.15,1.03-.55,.27-.82,.72-.82,1.33-.07,.14-.07,.31,0,.51,.14,.82,.2,1.4,.2,1.74,0,.41-.07,1.02-.2,1.84-.07,.55,0,1.09,.2,1.64,.34,.89,.51,1.81,.51,2.77,0,.75,.1,1.44,.31,2.05,.62,.89,.92,1.57,.92,2.05v.2c.14,.96,.48,2.15,1.03,3.59,.48,.96,1.54,2.7,3.18,5.23,.07,.07,.31,.21,.72,.41,.07,.07,.27,.2,.62,.41,.34,.14,.55,.26,.62,.36,.07,.1,.03,.29-.1,.56-.14,.34-.1,.68,.1,1.02,.82,.96,1.5,1.61,2.05,1.95,.68,.48,1.09,.89,1.23,1.23,.62,.89,1.5,1.68,2.66,2.36,.34,.2,.65,.43,.92,.67,.27,.24,.48,.43,.62,.56,.75,.62,1.33,.99,1.74,1.13,1.16,.61,2.01,1.06,2.56,1.33,1.16,.55,2.19,.96,3.07,1.23,1.85,.34,3.55,.75,5.13,1.23,.82,.14,1.4,.21,1.74,.21,1.16,.07,2.94,.1,5.33,.1s4.17-.04,5.33-.1c.27,0,.82-.07,1.64-.21l2.67-.72c1.3-.27,2.22-.58,2.77-.92l.2-.31c.14-.48,.34-.72,.62-.72h.2c.68,.14,1.16,.2,1.44,.2,.55,0,.99-.14,1.33-.41l.72-.31c.42-.21,.8-.41,1.17-.61-2.21-3.52-4.42-7.05-6.63-10.56-.03,.03-.06,.08-.08,.1Zm-43.36-20.6h-.31c-.27-.07-.41-.24-.41-.51s.1-.51,.31-.72c.27-.14,.51-.14,.72,0l.1,.21c.07,.48-.07,.82-.41,1.02Zm1.13,2.56l-.1-.41,.2,.1-.1,.31Zm1.44,14.25l-.41-.2,.41-.1v.31Zm7.38-33.11v.31l-.41-.2,.41-.1Zm-1.13-2.05c0-.14,.07-.07,.2,.2l.2,.1c0,.21-.07,.17-.2-.1-.07-.07-.14-.1-.2-.1s-.07-.03,0-.1Zm-.87,4.82c.03,.07,.05,.14,.05,.2l-.1-.2c0-.07,.02-.07,.05,0Zm-.05,37.01c0-.07,.02-.08,.05-.05,.03,.04,.08,.12,.15,.26l-.2-.2Zm.46,.41s-.09-.07-.15-.21l.2,.1c0,.07-.02,.1-.05,.1Zm1.38-27.57v-.31l.31,.2-.31,.1Zm.51-7.28h-.31c-.34-.07-.65-.31-.92-.72-.34,0-.58-.03-.72-.1-.14-.07-.26-.19-.36-.36-.1-.17-.12-.32-.05-.46l.31-.51c.41,.21,.68,.68,.82,1.44,.2,.07,.58,.1,1.13,.1,.27,0,.41,.17,.41,.51l-.31,.1Zm2.05,9.94c-.07,.34-.1,.79-.1,1.33,0,.34-.14,.51-.41,.51-.27,.14-.48,.03-.61-.31-.07-.21-.04-.44,.1-.72l.31-.31c.34-.14,.58-.31,.72-.51l.1-.21c.21,0,.17,.07-.1,.21Zm5.84,27.68l-.41-.1,.41-.1v.2Zm4.1,1.33v.41l-.41-.2,.41-.2Zm1.29,.45c-.05,.09-.13,.13-.23,.13-.2,.09-.55,.13-1.05,.13l-.3,.27c-.1,0,0-.09,.3-.27,.5-.45,.85-.67,1.05-.67,.1,0,.15,.09,.15,.27,.1,0,.12,.05,.07,.13Zm7.84-.86c0,.07-.04,.1-.1,.1s-.1,.04-.1,.1l-.21,.2c-.07,0-.09-.02-.05-.05s.12-.08,.26-.15v-.82c-.41-.34-.62-.58-.62-.72s.07-.21,.2-.21,.2,.04,.2,.1l.21,.82c.14,.07,.22,.17,.26,.31,.03,.14,.02,.24-.05,.31Zm6.25,5.02c-.14,.07-.38,.1-.72,.1l.31,.72c0,.41-.14,.61-.41,.61-.21,0-.31-.07-.31-.2-.27-.34-.41-.72-.41-1.13h-.82c-.55,.82-1.5,1.33-2.87,1.54-.27,0-.41-.14-.41-.41l.2-.41c.89-.48,1.91-.72,3.08-.72,.14-.21,.29-.31,.46-.31s.29,.1,.36,.31h.82c.34-.41,.58-.62,.72-.62l.2,.2c-.07,.2-.14,.31-.2,.31Zm4.72-7.07c-.07,0-.12-.03-.15-.1-.03-.07-.02-.1,.05-.1,0-.34,.14-.51,.41-.51l.31,.31c-.2,.34-.41,.48-.61,.41Z" style="fill: #fff;"></path><path d="M307.52,218.3c.21-.2,.65-.78,1.33-1.74,1.64-1.3,3.18-2.32,4.61-3.08,.48-.14,.92-.48,1.33-1.02l-.31-.1c0-.14,.1-.1,.31,.1,3.07,0,5.36-.03,6.87-.1,1.78,0,3.35,.27,4.72,.82,.27,.14,.68,.27,1.23,.41l2.36,1.64c1.3,.75,2.29,1.81,2.97,3.18l.92,1.74c.27,.48,.75,.96,1.44,1.44,.41-.48,.65-.72,.72-.72,.14,0,.2,.07,.2,.21l-.1,.31-.82,.2c.07,.2,.1,.46,.1,.77s.03,.56,.1,.77c.48,1.57,.72,2.91,.72,4,.07,1.23,.51,2.32,1.33,3.28,.27,.27,.41,.46,.41,.56s-.1,.26-.31,.46c-.34,.55-.55,1.06-.62,1.54v12.1c0,1.37-.14,2.6-.41,3.69-.14,.41,0,.89,.41,1.44,.07,0,.15,.02,.26,.05,.1,.04,.22,.12,.36,.26,.34,.07,.51,.27,.51,.62s-.17,.55-.51,.62l-.72,.2,.31,.72c.14,.48,.15,.82,.05,1.02-.1,.21-.36,.38-.77,.51-.14,.07-.36,.14-.67,.2-.31,.07-.56,.2-.77,.41-.14,.55-.27,.96-.41,1.23-.75,1.23-1.5,2.19-2.25,2.87-.29,.29-.52,.52-.71,.73l6.87,10.73c1.43-.81,2.49-1.56,3.17-2.24,.07-.07,.2-.17,.41-.31,.62-.27,1.28-.75,2-1.44,.72-.68,1.32-1.19,1.79-1.54,.41-.34,.62-.72,.62-1.13-.14-.62,.14-1.02,.82-1.23,1.57-.48,2.46-1.54,2.67-3.18l-.21-.2c0-.07,.02-.08,.05-.05,.03,.04,.08,.12,.15,.26,.07-.07,.17-.14,.31-.2,.14-.07,.24-.17,.31-.31l1.13-1.74c.48-.68,.75-1.3,.82-1.84-.07-.07-.15-.1-.26-.1s-.15-.03-.15-.1c.07-.07,.21,0,.41,.2l.41-.62,1.44-2.87c.27-.34,.41-.89,.41-1.64s-.04-1.3-.1-1.64l.1-.41c.61-.96,.92-1.71,.92-2.26,.07-.68,.2-1.33,.41-1.95,.21-.82,.31-1.61,.31-2.36,0-.55-.04-.96-.1-1.23l-.1-1.03,.1-1.02c.07-.55,.1-1.37,.1-2.46,0-.96-.1-1.88-.31-2.77l-.2-.82c-.2-1.91-.62-3.52-1.23-4.82-.07-.14-.1-.37-.1-.72,0-.75-.14-1.5-.41-2.25-.27-.75-.45-1.19-.51-1.33-1.16-2.6-2.39-4.75-3.69-6.46-1.3-1.98-2.17-3.23-2.61-3.74-.45-.51-1.38-1.45-2.82-2.82-.2-.27-.41-.48-.62-.62-.2-.14-.38-.27-.51-.41-.2-.2-.58-.44-1.13-.72-.14-.07-.6-.31-1.38-.72-.79-.41-1.42-.92-1.9-1.54-.48-.41-1.06-.79-1.74-1.13-.48-.2-1.13-.51-1.95-.92-.82-.41-1.5-.72-2.05-.92l-4.1-1.02c-.41,.07-1.09,.1-2.05,.1l-1.95-.72c-.48-.2-.99-.1-1.54,.31l-.72,.31c-.2,.14-.48,.14-.82,0l-.62-.31c-.62-.41-1.23-.61-1.84-.61-.27,0-.48,.03-.62,.1-1.09,.34-2.84,.58-5.23,.72-.61,.14-1.09,.38-1.43,.72l-.82,.31c-.27-.07-.79-.1-1.54-.1-.82-.14-1.44,.07-1.85,.62,.07,0,.14,.07,.21,.2,0,.07-.02,.09-.05,.05-.04-.03-.09-.12-.15-.26-1.09,.2-1.88,.68-2.36,1.43-.07,.14-.19,.24-.36,.31-.17,.07-.29,.14-.36,.2-.89-.14-1.64,0-2.26,.41-.96,.34-1.9,.82-2.82,1.44-.58,.38-1.01,.68-1.33,.9l7.71,12.04c.34-.74,.69-1.37,1.06-1.87Zm26.14,43.16l-.2-.1,.2-.2v.31Zm1.9-4.05s-.12,.09-.26,.15l-.1,.41c-.2,0-.17-.14,.1-.41l.2-.2c.07,0,.08,.02,.05,.05Zm17.38-23.42c0,.2-.2,.27-.62,.2-.14,0-.2-.07-.2-.2,0-.34,.14-.55,.41-.62,.34,.14,.48,.34,.41,.62Zm-1.23-3.59c.2-.2,.48-.31,.82-.31,.27,0,.53,.14,.77,.41,.24,.27,.36,.58,.36,.92,0,.21-.17,.41-.51,.62-.48,.14-.89,.07-1.23-.2l-.2-.41c-.07-.14-.12-.31-.15-.51-.03-.2,.02-.37,.15-.51Zm-3.18,7.79v.31l-.31-.1,.31-.2Zm0,18.14c0,.14-.1,.2-.31,.2,0,.14-.1,.2-.31,.2-.14,0-.24-.05-.31-.15-.07-.1-.07-.19,0-.26,.14-.14,.24-.21,.31-.21,.34,0,.55,.07,.62,.21Zm-.82-16.5v.31l-.31-.1,.31-.2Zm-.92,13.74l-.1,.2c-.2,0-.17-.07,.1-.2l.2-.31c.2,0,.14,.1-.2,.31Zm-1.08-37.67s.12-.08,.26-.15c.48-.34,.75-.51,.82-.51s.1,.04,.1,.1l-.1,.31-.82,.1-.2,.2c-.07,0-.09-.02-.05-.05Zm-.36,33.26c.14,0,.1,.1-.1,.31,0-.07,.03-.17,.1-.31Zm-3.59,4.2h-.31c-.34,0-.51-.1-.51-.31l.41-.21c.27,0,.44,.07,.51,.21l-.1,.31Zm.82-9.43l.31,.31h-.31v-.31Zm-.2-21.83l.1,.41h-.31l.2-.41Zm-.41,23.37c.48,0,.72,.1,.72,.31s-.24,.31-.72,.31h-.2c-.34,0-.62-.1-.82-.31,0-.2,.24-.31,.72-.31h.31Zm-.72-6.15c.2,0,.17,.07-.1,.21l.1-.21Zm-.21,.31c-.27,.41-.48,.62-.61,.62s-.21-.07-.21-.21c-.07,0-.09-.05-.05-.15,.03-.1,.08-.15,.15-.15,.14-.07,.37-.1,.72-.1Zm-.51-8.82c0,.14-.1,.07-.31-.21,.07,.07,.14,.1,.21,.1s.1,.03,.1,.1Zm-.51-.56c.07,.04,.14,.12,.2,.26l-.31-.1c0-.14,.03-.19,.1-.15Zm.31,25.99v.31l-.41-.2,.41-.1Zm-2.66,1.74l.41,.1-.41,.1v-.2Zm.92,4.92c.14,.14,.21,.24,.21,.31,0,.27-.17,.41-.51,.41-.14,0-.2-.1-.2-.31,.07-.27,.24-.41,.51-.41Zm-.82-38.65v.31l-.2-.1,.2-.2Zm-6.77-17.53c.2-.21,.44-.31,.72-.31,.2,.07,.37,.17,.51,.31,.14,.14,.21,.31,.21,.51,.14,.27,.07,.55-.21,.82-.34,.21-.72,.24-1.13,.1-.27-.27-.41-.51-.41-.72,0-.27,.1-.51,.31-.72Zm-6.77-3.49l.21,.41-.41-.2,.2-.21Zm-8.61,5.43l.2,.41c-.14,.27-.31,.38-.51,.31-.07,0-.14-.07-.2-.2,.14-.34,.31-.51,.51-.51Zm-1.74-3.59l.15-.15s.08-.05,.15-.05c.14,0,.15,.02,.05,.05-.1,.04-.22,.09-.36,.15l-.1,.2c-.2,0-.17-.07,.1-.2Zm-7.84,9.69s-.12,.09-.26,.15c0,.07-.07,.17-.2,.31-.2,0-.14-.1,.2-.31l.21-.2c.07,0,.08,.02,.05,.05Z" style="fill: #fff;"></path><path d="M336.12,197.18c-.2-.34-.48-.62-.82-.82l-1.54-1.33c-.48-.48-.89-.78-1.23-.92l-.51-.72c-.2-.41-.8-1.06-1.79-1.95-.99-.89-1.66-1.5-2-1.85-.27-.34-.79-.91-1.54-1.69-.75-.78-1.57-1.52-2.46-2.2-.89-.68-1.98-1.02-3.28-1.02h-1.13l-.41-.1h-.41l-.2,.1-.31,.1h-.2l-.31,.62-.72,.72c-.41,.41-1.54,1.57-3.38,3.49-.2,.21-.5,.51-.87,.92-.38,.41-.67,.79-.87,1.13l-.51,.41c-.82,.55-1.33,.99-1.54,1.33l-.51,.72c-.34,.14-.75,.45-1.23,.92l-1.54,1.33c-.34,.2-.62,.48-.82,.82-.21,.34-.34,.55-.41,.61-.2,.34-.19,.55,.05,.62,.24,.07,.39,.1,.46,.1l.92,.1c3.96,.14,7,.2,9.12,.2h.62c.68-.14,1.23-.44,1.64-.92l.2-.51,2.46-2.87c2.26,2.73,3.69,4.17,4.31,4.31h.62c2.12,0,5.16-.07,9.12-.2l.92-.1c.07,0,.22-.03,.46-.1,.24-.07,.26-.27,.05-.62-.07-.07-.21-.27-.41-.61Zm-22.24-1.33h-.2l.2-.41h.21l-.21,.41Z" style="fill: #fff;"></path><path d="M344.11,183.96l-.1-.62c-.34-.55-.89-.89-1.64-1.02h-.82c-3.35,0-6.66,.1-9.94,.31h-1.03c-.14,.07-.31,.14-.51,.2-.21,.07-.31,.17-.31,.31s.03,.24,.1,.31c.27,.68,.65,1.23,1.13,1.64l1.33,1.43c.62,.62,1.03,.99,1.23,1.13l.51,.62c.14,.41,.58,.92,1.33,1.54l.62,.41c.14,.41,.65,1.2,1.54,2.36l1.54,1.84,1.54,1.85,.62,.92,.1,.2,.92,.62h.41c.34-.07,.85-.1,1.54-.1h2.36l.72-.1h.2c.34-.55,.51-.85,.51-.92v-.2l-.2-.72-3.69-11.99Zm-5.64,2.15l-.1-.41h.31l.1,.41h-.31Zm5.74,4.61l-.2-.1h.2v.1Z" style="fill: #fff;"></path><path d="M389.89,256.01c0,.61-.07,1.09-.2,1.43-.14,.41-.21,.75-.21,1.03l.1,.82c.14,.55,.21,.96,.21,1.23-.27,1.37-.34,3.11-.21,5.23,0,.89,.31,1.74,.92,2.56,.2,.55,.58,.92,1.13,1.13,1.23,.48,2.08,.89,2.56,1.23,.41,.27,.72,.45,.92,.51,1.09,.41,1.88,.65,2.36,.72,1.5,.34,2.9,.75,4.2,1.23,1.37,.41,2.42,.62,3.18,.62,1.5,0,2.7,.2,3.59,.61,.41,.14,1.06,.21,1.95,.21h8c.96,0,1.78-.1,2.46-.31,.48-.27,1.03-.27,1.64,0,.96,.21,1.88,.31,2.77,.31,1.16,0,2.19-.14,3.08-.41,.62-.27,1.3-.41,2.05-.41,1.44,0,2.87-.21,4.31-.62,.07-.07,.17-.1,.31-.1,.75-.07,1.67-.37,2.77-.92,1.37-.55,2.22-.89,2.56-1.03,.34-.14,.78-.41,1.33-.82l.72-1.02c.34-.55,.79-.82,1.33-.82l.41,.1c.14,.07,.41,.1,.82,.1,.48,0,.82-.17,1.02-.51,.07-.07,.03-.34-.1-.82-.14-.21-.19-.36-.15-.46,.03-.1,.22-.19,.56-.26,.55-.14,.92-.2,1.13-.2,.55-.41,1.03-.96,1.44-1.64,.14-.14,.39-.41,.77-.82,.37-.41,.7-.89,.97-1.43,.55-.89,1.23-2.46,2.05-4.72,.2-.82,.31-1.61,.31-2.36v-6.77c0-.41-.04-.72-.1-.92-.07-.14-.1-.29-.1-.46s-.07-.39-.2-.67c-.41-.55-.89-1.5-1.44-2.87-.2-.27-.58-.87-1.13-1.79-.55-.92-1.2-1.73-1.95-2.41l-2.25-2.15c-.48-.27-1.08-.67-1.79-1.18-.72-.51-1.38-.91-2-1.18-.34-.07-.75-.34-1.23-.82-.82-.75-1.68-1.16-2.56-1.23-1.5-.07-3.04-.51-4.61-1.33-.2-.2-.58-.41-1.13-.62-.34-.14-.72-.1-1.13,.1-.21,.21-.43,.27-.67,.21-.24-.07-.46-.17-.67-.31-.55-.41-.96-.75-1.23-1.02-.41-.14-.68-.2-.82-.2-3.42-.82-5.98-1.5-7.69-2.05-.14-.07-.82-.27-2.05-.62l-1.84-.51c-.62-.41-1.23-.75-1.84-1.02-.62-.27-1.2-.58-1.74-.92-.41-.14-.75-.34-1.02-.61-.34-.27-.68-.68-1.02-1.23-.41-.89-.72-1.88-.92-2.97,0-.41,.03-.68,.1-.82,.2-1.02,.62-1.88,1.23-2.56l.72-.82c2.12-1.37,4-2.08,5.64-2.15,.14,0,.89-.2,2.26-.61,.68-.14,1.26-.21,1.74-.21,.75,0,1.54,.1,2.36,.31,.2,.07,.46,.15,.77,.26,.31,.1,.67,.19,1.08,.26,.48,.07,1.26,.31,2.36,.72l1.74,.82c1.09,.21,1.91,.68,2.46,1.44l.92,.82c.34,.34,.68,.51,1.02,.51,.27,0,.48-.07,.62-.2,.48-.48,1.13-.79,1.95-.92l1.44-.41c.27-.07,.51,.03,.72,.31,.14,.21,.1,.48-.1,.82-.14,.34-.38,.58-.72,.72-1.23,.34-1.91,.55-2.05,.62-.14,.07-.24,.2-.31,.41-.07,.21-.03,.38,.1,.51l1.54,2.36c.2,.41,.62,.75,1.23,1.02l1.54,.41c.75,.27,1.57,.41,2.46,.41,.68,0,1.19-.03,1.54-.1,.75-.2,1.64-.48,2.66-.82,.14-.07,.26-.15,.36-.26l.26-.26c-.07-.07-.12-.12-.15-.15-.03-.03-.05-.08-.05-.15s.02-.07,.05,0c.03,.07,.08,.17,.15,.31,.41-.41,.61-.92,.61-1.54,.07-.34,.1-.85,.1-1.54,0-.55-.04-.96-.1-1.23-.14-.96-.2-1.67-.2-2.15,0-.27,.07-.75,.2-1.44,.07-.55,.1-1.4,.1-2.56s-.04-2.05-.1-2.67v-.31c-.27-.75-.65-1.3-1.13-1.64-.96-.68-2.29-1.33-4-1.95l-2.97-.82c-.82-.41-1.74-.65-2.77-.72-.48,0-.99-.1-1.54-.31-.14,0-.51-.1-1.13-.31l-3.18-.72-.82,.2c-.48,.2-1.03,.31-1.64,.31-.48,0-.99-.1-1.54-.31-.41-.14-.79-.2-1.13-.2-.41,.07-1.06,.03-1.95-.1-.27-.07-.65-.1-1.13-.1h-.41c-3.83,0-6.66,.03-8.51,.1-.2,0-.45,.07-.72,.2,0,.07-.03,.14-.1,.2l-.2,.2c-.2,.41-.48,.58-.82,.51-.62-.2-1.23-.31-1.84-.31-.34,0-.92,.07-1.74,.2-.41,.14-.89,.27-1.43,.41-.55,.14-1.16,.31-1.85,.51-1.78,.89-3.14,1.54-4.1,1.95l-1.44,.92c-.41,.27-.61,.72-.61,1.33l.1,.72c0,.48-.21,.72-.62,.72h-.2c-.27-.14-.55-.2-.82-.2-.34-.14-.68-.07-1.03,.2-1.3,1.02-2.12,1.91-2.46,2.66-.48,.41-.85,.92-1.13,1.54l-.92,2.56c-.2,.82-.31,1.61-.31,2.36,.07,0,.22,.02,.46,.05,.24,.03,.39,.15,.46,.36l-.41,.1c-.2-.14-.38-.31-.51-.51-.48,.27-.72,.75-.72,1.44v.31c0,.34,.03,.7,.1,1.08,.07,.38,.1,.74,.1,1.08s-.04,.58-.1,.72c-.07,.21-.04,.41,.1,.62,.14,.2,.24,.34,.31,.41l.41,1.02c0,.07,.02,.17,.05,.31,.03,.14,.02,.24-.05,.31-.07,.27-.1,.72-.1,1.33,0,.75,.1,1.44,.31,2.05l.92,2.36c.41,.96,.85,1.61,1.33,1.95,.82,.68,1.3,1.3,1.44,1.84,.34,.62,.65,1.03,.92,1.23,2.87,1.98,4.54,3.11,5.02,3.38,.2,.07,.49,.05,.87-.05,.37-.1,.63-.19,.77-.26,.2,0,.51,.02,.92,.05,.41,.03,.75,.02,1.02-.05,.62-.07,1.4,.03,2.36,.31,.34,0,.51,.14,.51,.41l-.31,.31c-.27,.2-.62,.31-1.03,.31-.48,.14-.72,.31-.72,.51s.21,.31,.62,.31c.48,.2,1.02,.31,1.64,.31h.31c.61-.14,1.13,0,1.54,.41,.82,.48,1.54,.79,2.15,.92,.55,.27,1.21,.5,2,.67,.78,.17,1.42,.33,1.9,.46,1.23,.34,2.39,.51,3.49,.51v-.82c-.07,0-.22-.02-.46-.05-.24-.03-.39-.15-.46-.36,.07,0,.17-.07,.31-.2,.27,.2,.48,.41,.61,.62,.34,.14,.44,.31,.31,.51l-.31,.31c.27,.27,.48,.45,.62,.51,1.37,.55,2.36,.89,2.97,1.03,1.44,.2,2.73,.58,3.9,1.13,1.3,.41,2.26,.92,2.87,1.54,.89,.75,1.74,1.61,2.56,2.56,.41,.68,.65,1.27,.72,1.74,0,.89,.03,1.57,.1,2.05,0,.34,.07,.56,.2,.67,.14,.1,.41,.19,.82,.26,.34,0,.58,.1,.72,.31,.07,.07,.05,.17-.05,.31-.1,.14-.22,.24-.36,.31l-.72,.31c-.68,.34-1.2,.72-1.54,1.13l-.51,.72c-.55,.75-1.3,1.3-2.26,1.64-.2,.14-.45,.26-.72,.36-.27,.1-.51,.22-.72,.36-.75,.27-1.95,.55-3.59,.82-1.37,.27-2.39,.51-3.08,.72h-.72c-.55,.07-1.37,.1-2.46,.1-1.02,0-1.95-.14-2.77-.41-.61-.27-1.4-.41-2.36-.41h-2.77c-.34-.07-.75-.1-1.23-.1s-.99-.21-1.54-.62l-.92-1.13-1.84-1.23-2.46-1.74c-.62-.89-1.02-1.47-1.23-1.74-.14-.21-.41-.63-.82-1.28-.41-.65-.68-1.28-.82-1.9l-.31-.72c-.14-.27-.51-.65-1.13-1.13-.55-.14-.92-.2-1.13-.2h-.41c-1.64,.41-2.87,.62-3.69,.62-.48-.07-.89-.08-1.23-.05-.34,.03-.62,.05-.82,.05l-.72,.1c-.21,.07-.43,.22-.67,.46-.24,.24-.36,.46-.36,.67,0,.55,.03,.92,.1,1.13,.14,.27,.2,.75,.2,1.44Zm56.89-6.36h-.51c-.27,0-.41-.14-.41-.41-.07-.2,.1-.31,.51-.31h.31c.48,0,.72,.1,.72,.31,0,.27-.2,.41-.61,.41Zm4.41,.92l.21,.41c-.14,.14-.24,.21-.31,.21l-1.64,.2-1.02-.31c-.07,0-.14-.03-.2-.1-.07-.07-.07-.1,0-.1,0-.07,.1-.2,.31-.41,.27-.07,.72-.1,1.33-.1s1.06,.07,1.33,.2Zm-4.05-3.64c.03-.1,.08-.15,.15-.15,.55-.41,1.09-.31,1.64,.31,.07,.07,.1,.17,.1,.31,.14,.2,.03,.38-.31,.51-.61,.14-1.09,.07-1.44-.2-.27-.14-.41-.31-.41-.51,.14-.07,.22-.15,.26-.26Zm-2-4.25c.27,.07,.48,.27,.62,.62h.41c.2,0,.37,.1,.51,.31-.07,.07-.17,.1-.31,.1-.2-.07-.41-.2-.61-.41-.07,0-.22-.02-.46-.05-.24-.03-.39-.19-.46-.46,.07-.07,.17-.1,.31-.1Zm-1.44,13.84c.27-.68,.79-1.02,1.54-1.02,.2-.14,.44-.07,.72,.2,.14,.14,.19,.33,.15,.56-.04,.24-.12,.39-.26,.46-.48,.21-.99,.31-1.54,.31h-.41c-.27-.14-.34-.31-.2-.51Zm-2.77,1.44l.2,.1-.31,.1,.1-.2Zm-2.05-18.91c0-.1,.03-.15,.1-.15,.2,0,.36,.05,.46,.15,.1,.1,.15,.22,.15,.36,0,.2-.07,.31-.2,.31-.41,0-.62-.14-.62-.41,.07-.07,.1-.15,.1-.26Zm4.51-22.19l.72-.21c.34-.34,.72-.51,1.13-.51h.2c.2,0,.31,.03,.31,.1,.14,.14,.07,.2-.21,.2-.2,.14-.46,.2-.77,.2h-.67c-.27,.41-.48,.62-.62,.62s-.2-.07-.2-.2l.1-.2Zm-3.38-8l.31,.2-.31,.1v-.31Zm-.72,12.1l.31,.2-.31,.1v-.31Zm-8-11.79l.41,.1c.2,.41,.1,.65-.31,.72-.07-.07-.17-.1-.31-.1-.14-.34-.07-.58,.21-.72Zm-3.18,.31c-.07,.07-.1,.14-.1,.21s-.03,.1-.1,.1c-.2,0-.14-.1,.21-.31v-.41c0-.2,.1-.37,.31-.51,.07,.07,.1,.17,.1,.31-.07,.2-.2,.41-.41,.61Zm-1.95-4.82c.14-.07,.34-.24,.62-.51,.41-.14,.78-.07,1.13,.2,.55,.41,.82,.92,.82,1.54-.14,.55-.41,.72-.82,.51-.14-.07-.34-.17-.61-.31-.27-.14-.55-.2-.82-.2-.41-.14-.62-.34-.62-.62,0-.2,.1-.41,.31-.62Zm-2.26,6.77l.21-.1,.1,.2c-.07,.07-.17,.1-.31,.1v-.2Zm-7.69,.72l-.1,.31-.31-.2,.41-.1Zm-17.73,12.1l-.1,.2-.2-.1,.31-.1Zm-.51-12.61l.1,.31h-.31l.2-.31Zm1.84,15.38l-.72,.1-.31,.31c-.2,.2-.41,.31-.62,.31s-.45-.14-.72-.41c-.2-.21-.24-.37-.1-.51,.14-.14,.24-.17,.31-.1l1.43,.41c.48-.34,.75-.51,.82-.51s.1,.03,.1,.1c0,.2-.07,.31-.21,.31Zm2.05-11.99c-.27-.55-.2-1.02,.2-1.43,.2-.21,.41-.24,.62-.1l.41,.31v.31c0,.55-.14,.92-.41,1.13-.14,.14-.24,.2-.31,.2-.27,0-.45-.14-.51-.41Zm1.33,22.24c-.34,0-.55-.14-.61-.41l.2-.21c.41,0,.62,.14,.62,.41,0,.14-.07,.2-.21,.2Zm3.18-25.01c0-.07,.03-.12,.1-.15,.07-.03,.14-.08,.2-.15,.34,0,.51,.14,.51,.41,0,.14-.14,.2-.41,.2-.41,.14-.55,.04-.41-.31Zm-.82,17.12l-.2-.2,.41-.1-.21,.31Zm1.44,7.07c-.34-.14-.55-.27-.62-.41-.07-.07-.14-.1-.2-.1s-.1-.03-.1-.1c.07-.07,.17,0,.31,.21h.41c.2,0,.37,.1,.51,.31-.07,.07-.17,.1-.31,.1Zm.1-19.37c.21-.2,.44-.27,.72-.2,.14,.07,.2,.15,.2,.26s-.1,.19-.31,.26c-.27,.14-.48,.04-.62-.31Zm1.64,11.79l-.72,.51c-.14,0-.2-.07-.2-.2,.07-.14,.14-.2,.2-.2,.21-.07,.44-.1,.72-.1v-1.74l-.2-.1c0-.2,.07-.17,.2,.1,.41,.41,.62,.68,.62,.82,0,.2-.2,.51-.62,.92Zm.82-14.15c0-.2,.03-.31,.1-.31,.14-.07,.37-.1,.72-.1,.41-.41,.65-.61,.72-.61,.14,0,.21,.07,.21,.2l-.1,.2-.82,.2c-.27,.41-.48,.62-.61,.62s-.21-.07-.21-.2Zm2.36,12.4l-.2-.1c0-.2,.07-.17,.2,.1,.07,.07,.14,.1,.21,.1s.1,.03,.1,.1-.04,.09-.1,.05c-.07-.03-.14-.12-.21-.26Zm1.03,2.36h-.41c-.34,0-.51-.1-.51-.31-.07-.2,.14-.31,.62-.31h.31c.48,0,.72,.1,.72,.31s-.24,.31-.72,.31Zm2.66,4.41c-.14,.2-.34,.34-.62,.41-.27,0-.45-.03-.51-.1-.07,0-.17-.1-.31-.31,0-.34,.27-.72,.82-1.13,.27-.27,.48-.24,.62,.1,.14,0,.2,.1,.2,.31,0,.27-.07,.51-.2,.72Zm4,4.61l-.31,.31c-.34,.14-.62-.1-.82-.72,0-.34,.14-.58,.41-.72,.2,0,.34,.04,.41,.1,.2,.07,.31,.31,.31,.72v.31Zm5.13,7.79h-.31c-.27,0-.41-.1-.41-.31,.07-.07,.17-.1,.31-.1,.2-.14,.37-.07,.51,.2l-.1,.2Zm2.77,.41c0,.07-.04,.12-.1,.15-.07,.04-.14,.09-.21,.15l-.51-.51c-.14-.75,0-1.33,.41-1.74l.41-.1c.2,.07,.31,.14,.31,.21,.07,.41-.03,1.02-.31,1.84Zm2.05-5.64c-.07,0-.1-.02-.1-.05s.07-.08,.2-.15c.14-.14,.29-.21,.46-.21s.29,.07,.36,.21l.2,.1c0,.14-.07,.1-.2-.1h-.82l-.1,.2Zm1.64,3.69l-.72,.1-.1,.2c-.2,0-.17-.07,.1-.2,.34-.41,.55-.62,.61-.62,.14,0,.21,.07,.21,.2s-.04,.24-.1,.31Zm5.95-2.56l.2,.21c0,.27-.14,.41-.41,.41,0,.07-.07,.04-.21-.1,0-.2,.14-.37,.41-.51Zm-5.02,29.11c.14,.07,.31,.12,.51,.15,.2,.03,.34,.15,.41,.36l-.41,.1c-.27-.14-.45-.34-.51-.61l-.31-.1c.07-.21,.17-.17,.31,.1Zm-1.74-6.66c0-.07,.07-.17,.21-.31,.2-.07,.44-.03,.72,.1,.27,.07,.41,.31,.41,.72-.07,.2-.31,.31-.72,.31-.14-.07-.27-.17-.41-.31-.14-.14-.21-.27-.21-.41v-.1Zm-2.25,4.72c.14-.2,.48-.31,1.02-.31h.72c.41,0,.62,.1,.62,.31s-.24,.31-.72,.31h-1.44c-.2-.14-.27-.24-.2-.31Zm-.92-2.05c.07,.07,.14,.1,.21,.1s.1,.03,.1,.1c0,.27-.1,.2-.31-.2l-.2-.1c0-.21,.07-.17,.2,.1Zm-2.05,1.84c.14-.41,.34-.48,.62-.2,.2,.07,.31,.27,.31,.61,.07,.14,.07,.26,0,.36-.07,.1-.17,.15-.31,.15-.07,.07-.17,.09-.31,.05-.14-.03-.24-.12-.31-.26-.2-.34-.2-.58,0-.72Zm-.72-3.28h.31l.1,.31c-.14,.34-.31,.45-.51,.31-.07,0-.17-.1-.31-.31,0-.2,.14-.31,.41-.31Zm-2.66,2.56l-.1,.2-.21-.1,.31-.1Zm.12,3.34v.27l-.6-.13,.6-.13Zm-6.58-.06v.2l-.31-.1,.31-.1Zm-2.9-.61c.3,0,.25,.09-.15,.27l.15-.27Zm-1.51,.67c.1-.09,.2-.13,.3-.13,.1-.09,.4-.13,.9-.13-.1,.09-.23,.2-.38,.34-.15,.13-.3,.22-.45,.27-.15,.05-.28-.02-.38-.2-.1,0-.1-.04,0-.13Zm-3.28-1.19l-.1,.41c-.2,.14-.43,.21-.67,.21s-.39-.03-.46-.1c-.07-.07-.1-.17-.1-.31,.27-.27,.58-.41,.92-.41,.14,0,.27,.07,.41,.21Zm-1.64-4.1c.07-.07,.12-.08,.15-.05,.03,.03,.08,.05,.15,.05,.34,.07,.51,.34,.51,.82,0,.34-.14,.51-.41,.51-.2,.14-.38,0-.51-.41-.14-.2-.19-.39-.15-.56,.03-.17,.12-.29,.26-.36Zm-1.55,1.54c.1,.09,.15,.22,.15,.4-.1,.18-.23,.29-.38,.34-.15,.05-.33,.02-.53-.07-.1,0-.15-.09-.15-.27,.2-.45,.5-.58,.9-.4Zm-6.03,1.54l-.2-.2,.31-.1-.1,.31Zm-.89-4.76c.3-.45,.6-.45,.9,0,.4,.27,.7,.67,.9,1.21,0,.09,.05,.16,.15,.2,.1,.05,.15,.11,.15,.2-.1,.18-.25,.13-.45-.13,0,0,0,0,0,0-.04,.03-.08,.07-.15,.11,0-.07-.02-.12-.05-.15,0,0,0-.02,0-.03-.17-.06-.37-.13-.62-.19-.35-.09-.63-.22-.83-.4-.1-.27-.1-.54,0-.8Zm-.75-7.11l.3,.13c0,.27-.1,.22-.3-.13-.1-.09-.2-.13-.3-.13s-.15-.04-.15-.13c0-.27,.15-.18,.45,.27Zm-1.53,9.1l-.1,.31-.2-.2,.31-.1Zm-2.77-3.9c.07-.07,.17-.07,.31,0,.14,.07,.24,.17,.31,.31,.07,.07,.08,.12,.05,.15-.04,.03-.05,.09-.05,.15-.07,.14-.17,.26-.31,.36-.14,.1-.27,.15-.41,.15s-.24-.03-.31-.1c-.07,0-.17-.1-.31-.31-.14-.34,.1-.58,.72-.72Z" style="fill: #fff;"></path><path d="M506.75,219.03l.92,1.74c.27,.48,.75,.96,1.44,1.44,.41-.48,.65-.72,.72-.72,.14,0,.2,.07,.2,.21l-.1,.31-.82,.2c.07,.2,.1,.46,.1,.77s.03,.56,.1,.77c.48,1.57,.72,2.91,.72,4,.07,1.23,.51,2.32,1.33,3.28,.27,.27,.41,.46,.41,.56s-.1,.26-.31,.46c-.34,.55-.55,1.06-.61,1.54v12.1c0,1.37-.14,2.6-.41,3.69-.14,.41,0,.89,.41,1.44,.07,0,.15,.02,.26,.05,.1,.04,.22,.12,.36,.26,.34,.07,.51,.27,.51,.62s-.17,.55-.51,.62l-.72,.2,.31,.72c.14,.48,.15,.82,.05,1.02-.1,.21-.36,.38-.77,.51-.14,.07-.36,.14-.67,.2-.31,.07-.56,.2-.77,.41-.14,.55-.27,.96-.41,1.23-.75,1.23-1.5,2.19-2.25,2.87-.75,.75-1.2,1.23-1.33,1.44l-1.13,1.64-1.85,.2c-1.16,.62-2.63,1.16-4.41,1.64-1.02,.34-1.95,.51-2.77,.51-.41,0-.96-.07-1.64-.21-.62-.14-1.45-.32-2.51-.56-1.06-.24-1.96-.46-2.72-.67-1.09-.41-2.02-.96-2.77-1.64-1.09-1.09-1.81-1.74-2.15-1.95-.27,.41-.58,.68-.92,.82l-.2,.21c-.07,0-.09-.02-.05-.05,.03-.03,.12-.08,.26-.15,.14-.41,.37-.72,.72-.92l-.92-1.33c-.61-.68-1.02-1.54-1.23-2.56l-1.03-2.36c-.68-1.57-1.09-2.56-1.23-2.97-.07-.41-.31-.85-.72-1.33-.2-.62-.31-.99-.31-1.13s.03-.24,.1-.31c.07-.07,.1-.14,.1-.2,.2-.75,.31-1.44,.31-2.05,0-.68-.03-1.19-.1-1.54-.07-.27-.1-.65-.1-1.13v-.51c.14-.48,.2-1.3,.2-2.46v-8.2c0-1.02-.34-1.84-1.03-2.46-.34-.41-.27-.72,.21-.92,.54-.27,.92-.62,1.13-1.02,.34-.89,.51-1.3,.51-1.23,.07-.68,.31-1.71,.72-3.08,.61-1.78,1.26-3.14,1.95-4.1,.2-.2,.65-.78,1.33-1.74,1.64-1.3,3.18-2.32,4.61-3.08,.48-.14,.92-.48,1.33-1.02l-.31-.1c0-.14,.1-.1,.31,.1,3.08,0,5.36-.03,6.87-.1,1.78,0,3.35,.27,4.72,.82,.27,.14,.68,.27,1.23,.41l2.36,1.64c.7,.4,1.3,.91,1.82,1.49l1.97-13.52c-.13-.06-.29-.13-.41-.17l-4.1-1.02c-.41,.07-1.09,.1-2.05,.1l-1.95-.72c-.48-.2-.99-.1-1.54,.31l-.72,.31c-.2,.14-.48,.14-.82,0l-.61-.31c-.61-.41-1.23-.61-1.84-.61-.27,0-.48,.03-.62,.1-1.09,.34-2.84,.58-5.23,.72-.61,.14-1.09,.38-1.44,.72l-.82,.31c-.27-.07-.79-.1-1.54-.1-.82-.14-1.44,.07-1.85,.62,.07,0,.14,.07,.2,.2,0,.07-.02,.09-.05,.05-.03-.03-.09-.12-.15-.26-1.09,.2-1.88,.68-2.36,1.43-.07,.14-.19,.24-.36,.31-.17,.07-.29,.14-.36,.2-.89-.14-1.64,0-2.26,.41-.96,.34-1.9,.82-2.82,1.44-.92,.62-1.52,1.03-1.79,1.23-.2,.14-.51,.36-.92,.67-.41,.31-.72,.6-.92,.87-.14,.14-.46,.45-.97,.92-.51,.48-.91,.99-1.18,1.54,.07,.07,.14,.1,.2,.1s.07,.03,0,.1c0,.07-.02,.09-.05,.05-.03-.03-.09-.08-.15-.15-.34,.07-.79,.41-1.33,1.02-.14,.2-.29,.46-.46,.77-.17,.31-.39,.63-.67,.97-.61,.55-1.16,1.21-1.64,2-.48,.79-.82,1.32-1.02,1.59-1.02,1.57-1.71,2.91-2.05,4-.34,.89-.65,1.68-.92,2.36-.27,.68-.51,1.27-.72,1.74-.07,.2-.1,.51-.1,.92-.14,1.57-.38,2.94-.72,4.1-.14,.41-.2,.99-.2,1.74,0,.68,.03,1.16,.1,1.44,.07,.27,.27,.41,.61,.41l.82-.1c.2-.07,.39-.14,.56-.21,.17-.07,.39-.14,.67-.2,.2,0,.41,.14,.61,.41,.07,.07,.07,.17,0,.31-.07,.14-.17,.24-.31,.31-1.09,.41-1.81,.75-2.15,1.03-.55,.27-.82,.72-.82,1.33-.07,.14-.07,.31,0,.51,.14,.82,.2,1.4,.2,1.74,0,.41-.07,1.02-.2,1.84-.07,.55,0,1.09,.2,1.64,.34,.89,.51,1.81,.51,2.77,0,.75,.1,1.44,.31,2.05,.61,.89,.92,1.57,.92,2.05v.2c.07,.48,.19,1.02,.36,1.62,.52,.07,.8,.37,.8,.91v.13c-.12,.21-.21,.38-.28,.53,.05,.14,.09,.26,.15,.4,0,0,0,0,0,.01,1.64,0,2.9,.05,3.74,.13,.4,0,.6,.18,.6,.54l-.45,.13c-.4,.09-.85,.13-1.36,.13h-1.05c-.42-.06-.85-.24-1.27-.53,.55,1.01,1.53,2.61,2.96,4.81,.07,.07,.31,.21,.72,.41,.07,.07,.27,.2,.61,.41,.34,.14,.55,.26,.61,.36s.03,.29-.1,.56c-.14,.34-.1,.68,.1,1.02,.82,.96,1.5,1.61,2.05,1.95,.68,.48,1.09,.89,1.23,1.23,.61,.89,1.5,1.68,2.67,2.36,.34,.2,.65,.43,.92,.67,.27,.24,.48,.43,.62,.56,.75,.62,1.33,.99,1.74,1.13,1.16,.61,2.02,1.06,2.56,1.33,1.16,.55,2.19,.96,3.08,1.23,1.84,.34,3.55,.75,5.12,1.23,.82,.14,1.4,.21,1.74,.21,1.16,.07,2.94,.1,5.33,.1s4.17-.04,5.33-.1c.27,0,.82-.07,1.64-.21l2.67-.72c1.3-.27,2.22-.58,2.77-.92l.2-.31c.14-.48,.34-.72,.61-.72h.2c.68,.14,1.16,.2,1.43,.2,.55,0,.99-.14,1.33-.41l.72-.31c2.46-1.23,4.17-2.32,5.13-3.28,.07-.07,.2-.17,.41-.31,.61-.27,1.28-.75,2-1.44,.72-.68,1.32-1.19,1.79-1.54,.41-.34,.61-.72,.61-1.13-.14-.62,.14-1.02,.82-1.23,1.57-.48,2.46-1.54,2.67-3.18l-.2-.2c0-.07,.02-.08,.05-.05,.03,.04,.09,.12,.15,.26,.07-.07,.17-.14,.31-.2,.14-.07,.24-.17,.31-.31l1.13-1.74c.48-.68,.75-1.3,.82-1.84-.07-.07-.15-.1-.26-.1s-.15-.03-.15-.1c.07-.07,.2,0,.41,.2l.41-.62,1.44-2.87c.27-.34,.41-.89,.41-1.64s-.03-1.3-.1-1.64l.1-.41c.61-.96,.92-1.71,.92-2.26,.07-.68,.2-1.33,.41-1.95,.2-.82,.31-1.61,.31-2.36,0-.55-.03-.96-.1-1.23l-.1-1.03,.1-1.02c.07-.55,.1-1.37,.1-2.46,0-.96-.1-1.88-.31-2.77l-.2-.82c-.2-1.91-.61-3.52-1.23-4.82-.07-.14-.1-.37-.1-.72,0-.75-.14-1.5-.41-2.25-.27-.75-.44-1.19-.51-1.33-1.16-2.6-2.39-4.75-3.69-6.46-.2-.34-.51-.82-.92-1.44s-.84-1.23-1.28-1.84-1.04-1.23-1.79-1.84h.82c.2-.07,.39-.15,.56-.26s.32-.19,.46-.26l.1-.31,.61-.82c.34-.61,.8-1.28,1.38-2,.58-.72,1.04-1.28,1.39-1.69,.68-.96,1.09-1.71,1.23-2.26l.51-.41c.75-.62,1.16-1.13,1.23-1.54l.41-.72c.27-.07,.53-.22,.77-.46,.24-.24,.43-.43,.56-.56l1.23-1.54c.55-.41,.82-.92,.82-1.54,.14-.27,0-.46-.41-.56-.41-.1-.68-.19-.82-.26h-1.33l-4.3-.1c-3.83-.14-6.73-.2-8.71-.2l-1.03,.1c-.89,.14-1.47,.45-1.74,.92v.51l-.51,8.71-.2-.2c-.48-.41-1.06-.79-1.74-1.13-.48-.2-1.13-.51-1.95-.92-.25-.13-.47-.22-.69-.33l-2.4,13.74c.23,.33,.45,.67,.63,1.05Zm-1.95-11.69c.2-.21,.44-.31,.72-.31,.2,.07,.37,.17,.51,.31,.14,.14,.2,.31,.2,.51,.14,.27,.07,.55-.2,.82-.34,.21-.72,.24-1.13,.1-.27-.27-.41-.51-.41-.72,0-.27,.1-.51,.31-.72Zm-6.77-3.49l.2,.41-.41-.2,.2-.21Zm-8.61,5.43l.2,.41c-.14,.27-.31,.38-.51,.31-.07,0-.14-.07-.2-.2,.14-.34,.31-.51,.51-.51Zm-1.74-3.59c.07-.07,.12-.12,.15-.15,.03-.03,.08-.05,.15-.05,.14,0,.15,.02,.05,.05-.1,.04-.22,.09-.36,.15l-.1,.2c-.2,0-.17-.07,.1-.2Zm-8.1,9.84l.2-.2c.07,0,.09,.02,.05,.05-.03,.03-.12,.09-.26,.15,0,.07-.07,.17-.2,.31-.2,0-.14-.1,.2-.31Zm-18.71,35.43v-.54l.6,.4-.6,.13Zm.67-10.62h-.31c-.27-.07-.41-.24-.41-.51s.1-.51,.31-.72c.27-.14,.51-.14,.72,0l.1,.21c.07,.48-.07,.82-.41,1.02Zm1.13,2.56l-.1-.41,.2,.1-.1,.31Zm1.43,14.25l-.41-.2,.41-.1v.31Zm7.38-33.11v.31l-.41-.2,.41-.1Zm-1.13-2.05c0-.14,.07-.07,.21,.2l.2,.1c0,.21-.07,.17-.2-.1-.07-.07-.14-.1-.21-.1s-.07-.03,0-.1Zm-.87,4.82c.03,.07,.05,.14,.05,.2l-.1-.2c0-.07,.02-.07,.05,0Zm-.05,37.01c0-.07,.02-.08,.05-.05,.03,.04,.09,.12,.15,.26l-.2-.2Zm.46,.41s-.09-.07-.15-.21l.2,.1c0,.07-.02,.1-.05,.1Zm1.39-27.57v-.31l.31,.2-.31,.1Zm.51-7.28h-.31c-.34-.07-.65-.31-.92-.72-.34,0-.58-.03-.72-.1-.14-.07-.26-.19-.36-.36-.1-.17-.12-.32-.05-.46l.31-.51c.41,.21,.68,.68,.82,1.44,.2,.07,.58,.1,1.13,.1,.27,0,.41,.17,.41,.51l-.31,.1Zm2.05,9.94c-.07,.34-.1,.79-.1,1.33,0,.34-.14,.51-.41,.51-.27,.14-.48,.03-.61-.31-.07-.21-.03-.44,.1-.72l.31-.31c.34-.14,.58-.31,.72-.51l.1-.21c.2,0,.17,.07-.1,.21Zm1.63,9.5l-.6-.27,.6-.13v.4Zm2.41,20.92c-.2,.18-.35,.27-.45,.27-.8-.18-1.2-.54-1.2-1.07,0-.18,.05-.27,.15-.27,.7-.27,1.2-.04,1.51,.67v.4Zm1.81-2.74l-.41-.1,.41-.1v.2Zm4.1,1.74l-.41-.2,.41-.2v.41Zm9.12-.82c0,.07-.03,.1-.1,.1s-.1,.04-.1,.1l-.2,.2c-.07,0-.09-.02-.05-.05,.03-.03,.12-.08,.26-.15v-.82c-.41-.34-.61-.58-.61-.72s.07-.21,.2-.21,.2,.04,.2,.1l.2,.82c.14,.07,.22,.17,.26,.31,.03,.14,.01,.24-.05,.31Zm6.25,5.02c-.14,.07-.37,.1-.72,.1l.31,.72c0,.41-.14,.61-.41,.61-.2,0-.31-.07-.31-.2-.27-.34-.41-.72-.41-1.13h-.82c-.55,.82-1.5,1.33-2.87,1.54-.27,0-.41-.14-.41-.41l.2-.41c.89-.48,1.91-.72,3.08-.72,.14-.21,.29-.31,.46-.31s.29,.1,.36,.31h.82c.34-.41,.58-.62,.72-.62l.21,.2c-.07,.2-.14,.31-.21,.31Zm4.72-7.07c-.07,0-.12-.03-.15-.1-.03-.07-.02-.1,.05-.1,0-.34,.14-.51,.41-.51l.31,.31c-.2,.34-.41,.48-.61,.41Zm3.59-3.79l-.2-.1,.2-.2v.31Zm1.9-4.05s-.12,.09-.26,.15l-.1,.41c-.21,0-.17-.14,.1-.41l.2-.2c.07,0,.08,.02,.05,.05Zm17.37-23.42c0,.2-.2,.27-.61,.2-.14,0-.2-.07-.2-.2,0-.34,.14-.55,.41-.62,.34,.14,.48,.34,.41,.62Zm-1.23-3.59c.2-.2,.48-.31,.82-.31,.27,0,.53,.14,.77,.41,.24,.27,.36,.58,.36,.92,0,.21-.17,.41-.51,.62-.48,.14-.89,.07-1.23-.2l-.2-.41c-.07-.14-.12-.31-.15-.51-.04-.2,.01-.37,.15-.51Zm-3.18,7.79v.31l-.31-.1,.31-.2Zm-.62,17.94c.34,0,.55,.07,.62,.21,0,.14-.1,.2-.31,.2,0,.14-.1,.2-.31,.2-.14,0-.24-.05-.31-.15s-.07-.19,0-.26c.14-.14,.24-.21,.31-.21Zm-.2-16.3v.31l-.31-.1,.31-.2Zm.2-30.75l-.1-.1,.1-.2v.31Zm-.41-9.74h.41v.31l-.41,.1v-.41Zm-1.43,11.07l.1,.1-.1,.1v-.21Zm.72,43.16l-.1,.2c-.2,0-.17-.07,.1-.2l.2-.31c.2,0,.14,.1-.2,.31Zm-1.08-37.67s.12-.08,.26-.15c.48-.34,.75-.51,.82-.51s.1,.04,.1,.1l-.1,.31-.82,.1-.2,.2c-.07,0-.09-.02-.05-.05Zm-.36,33.26c.14,0,.1,.1-.1,.31,0-.07,.03-.17,.1-.31Zm-3.59,4.2h-.31c-.34,0-.51-.1-.51-.31l.41-.21c.27,0,.44,.07,.51,.21l-.1,.31Zm.82-9.43l.31,.31h-.31v-.31Zm-.1-21.42h-.31l.2-.41,.1,.41Zm-.41-18.35h.2l-.2,.21v-.21Zm-.41,41.31h.31c.48,0,.72,.1,.72,.31s-.24,.31-.72,.31h-.2c-.34,0-.62-.1-.82-.31,0-.2,.24-.31,.72-.31Zm-.41-6.15c.2,0,.17,.07-.1,.21l.1-.21Zm-.82,.92c-.14,0-.2-.07-.2-.21-.07,0-.09-.05-.05-.15s.09-.15,.15-.15c.14-.07,.37-.1,.72-.1-.27,.41-.48,.62-.61,.62Zm.1-9.43c0,.14-.1,.07-.31-.21,.07,.07,.14,.1,.2,.1s.1,.03,.1,.1Zm-.51-.56c.07,.04,.14,.12,.2,.26l-.31-.1c0-.14,.03-.19,.1-.15Zm.31,25.99v.31l-.41-.2,.41-.1Zm-2.67,1.74l.41,.1-.41,.1v-.2Zm.92,4.92c.14,.14,.2,.24,.2,.31,0,.27-.17,.41-.51,.41-.14,0-.2-.1-.2-.31,.07-.27,.24-.41,.51-.41Zm-.82-38.65v.31l-.2-.1,.2-.2Z" style="fill: #fff;"></path><path d="M558.58,203.19c0,.5,.08,.99,.25,1.49,.25,.83,.7,1.24,1.36,1.24,.83,.08,1.76,.21,2.79,.37,1.03,.17,1.88,.25,2.54,.25,1.07,.17,1.94,.58,2.6,1.24,1.07,.83,1.94,1.98,2.6,3.47l1.12,2.73c.41,.58,.74,.95,.99,1.12,.08,.08,.23,.15,.43,.19,.2,.04,.35,.1,.43,.19,.58,.25,.87,.46,.87,.62l-.37,.74c-.17,.5-.25,.87-.25,1.12,0,.33,.04,.58,.12,.74,.74,1.41,1.2,2.65,1.36,3.72,.08,.41,.27,.87,.56,1.36,.29,.5,.51,.91,.68,1.24l1.36,1.86,1.12,3.97c.41,1.82,1.07,3.43,1.98,4.83,.17,.5,.66,.91,1.49,1.24h.37c.16-.08,.31-.16,.43-.25,.12-.08,.23-.16,.31-.25,0-.08,.12-.12,.37-.12,.17,.08,.21,.19,.12,.31-.08,.12-.21,.19-.37,.19-.17,.08-.46,.12-.87,.12l-.37,1.36c.25,2.23,.83,4.46,1.74,6.69,.25,.17,.45,.41,.62,.74,.5,.58,.87,1.32,1.12,2.23,0,.99,.2,2.11,.62,3.35,1.4,4.05,2.52,6.9,3.35,8.55,.66,1.07,1.32,2.93,1.98,5.58,.16,.83,.33,1.45,.5,1.86,.16,.66,.62,1.36,1.36,2.11,.5-.5,.83-.74,.99-.74,.25,0,.54,.25,.87,.74,.08,0,.2,.04,.37,.12,0,.17-.12,.12-.37-.12h-1.86c0,1.24,.25,2.31,.74,3.22,.41,.91,.95,2.27,1.61,4.09l.37,.99c.17,.41,.47,.74,.93,.99,.45,.25,.89,.37,1.3,.37h.25c.41-.08,.87-.19,1.36-.31s.95-.23,1.36-.31c1.49,.5,2.98,.74,4.46,.74h5.21c1.82,0,3.3-.21,4.46-.62,.16,.08,.37,.16,.62,.25,.25,.08,.54,.12,.87,.12,.66,.08,1.24-.17,1.74-.74,.33-.5,.58-1.07,.74-1.74,.66-2.4,1.36-4.21,2.11-5.45,.5-1.16,1.03-2.56,1.61-4.21,0-.08,.12-1.03,.37-2.85,1.32-1.82,2.15-3.18,2.48-4.09l.62-1.86c1.16-3.3,1.98-5.78,2.48-7.44l.37-1.24c-.08-.5-.12-1.03-.12-1.61,0-.33,.12-.66,.37-.99,.25-.33,.45-.58,.62-.74,1.57-2.4,2.36-4.46,2.36-6.2l.12-.5c.25-.91,.83-1.4,1.74-1.49,.25-.16,.54-.08,.87,.25,.25,.58,.52,1.24,.81,1.98,.29,.74,.62,1.47,.99,2.17,.37,.7,.89,1.47,1.55,2.29,0,.83-.04,1.53-.12,2.11,.74,2.4,1.32,4.01,1.74,4.83,.66,1.65,1.12,2.89,1.36,3.72,.41,1.16,.74,1.9,.99,2.23,.16,.5,.45,.83,.87,.99,.41,.08,.7,.33,.87,.74,0,.17-.04,.29-.12,.37-.41,.41-.62,.83-.62,1.24,0,.33,.12,.7,.37,1.12,.33,.66,.58,1.24,.74,1.74,.83,1.24,1.36,2.77,1.61,4.59,.08,.33,.33,.91,.74,1.74,.74,1.41,1.74,3.8,2.97,7.19l.37,.99c.25,.33,.62,.62,1.12,.87,.66,.16,1.16,.25,1.49,.25h16.61l1.49-.12c.66-.17,1.16-.54,1.49-1.12,.33-.41,.58-.99,.74-1.74,.25-.66,.56-1.53,.93-2.6,.37-1.07,.72-1.94,1.05-2.6,.25-.74,.6-1.71,1.05-2.91,.45-1.2,.85-2.17,1.18-2.91,.5-1.07,.97-2.31,1.42-3.72,.45-1.4,.76-2.36,.93-2.85,.33-.99,.91-2.48,1.74-4.46,.25-.66,.5-1.34,.74-2.05,.25-.7,.54-1.38,.87-2.05,.5-.83,.91-2.23,1.24-4.21,.08-.16,.29-.62,.62-1.36l1.12-2.6,2.85-7.44c1.9-4.3,3.47-8.39,4.71-12.27,.25-.91,.7-2.27,1.36-4.09,.08-.58,.25-1.07,.5-1.49,1.9-3.97,3.22-6.61,3.97-7.93,.66-.91,1.36-1.49,2.11-1.74,.33-.16,.93-.41,1.8-.74,.87-.33,1.67-.54,2.42-.62l-.37-1.36c-.08-.08-.04-.23,.12-.43,.17-.2,.33-.39,.5-.56,.58-.08,.95,.17,1.12,.74,0,.41-.08,.66-.25,.74-.25,.41-.62,.7-1.12,.87l.5,.37,.74,.5,1.61,.12,1.36-.12c.33-.08,.64-.25,.93-.5,.29-.25,.47-.5,.56-.74l.5-1.98c.25-.66,.37-1.32,.37-1.98,0-.99-.33-1.86-.99-2.6,0-.16-.04-.29-.12-.37l.37-2.48-.12-1.36c-.08-.33-.25-.62-.5-.87s-.54-.41-.87-.5l-1.49-.12h-18.97c-1.24,0-2.56,.12-3.97,.37l-2.48-.37c-1.08,0-1.86,.04-2.36,.12-.58,0-1.2,.25-1.86,.74l-.99,.87-.87,.62c-.08,.08-.21,.12-.37,.12s-.29-.04-.37-.12c-.17-.08-.25-.23-.25-.43s.08-.35,.25-.43c.16-.16,.25-.45,.25-.87,0-.16-.15-.31-.43-.43-.29-.12-.56-.19-.81-.19h-.99c-1.08,.08-1.82,.66-2.23,1.73-.17,.41-.33,.87-.5,1.36-.08,.74-.12,1.82-.12,3.22,0,2.07,.21,3.89,.62,5.45,.08,.41,.37,.79,.87,1.12,.83,.33,1.49,.54,1.98,.62l3.84,.25c.99,.17,1.78,.7,2.35,1.61,.33,.66,.5,1.28,.5,1.86l-.62,3.35c-1.65,4.13-2.65,6.69-2.97,7.69-.08,.08-.12,.25-.12,.5,.08,.66-.06,1.3-.43,1.92-.37,.62-.64,1.05-.81,1.3-.74,.99-1.16,2.03-1.24,3.1-.08,.74-.31,1.49-.68,2.23-.37,.74-.6,1.2-.68,1.36-.08,.33-.12,.7-.12,1.12v.37c.17,.83-.08,1.74-.74,2.73-.25,.5-.04,.87,.62,1.12,.33,.08,.5,.33,.5,.74l-1.36,.37c-.83,.33-1.36,.74-1.61,1.24-.17,.33-.46,.89-.87,1.67-.41,.79-.74,1.51-.99,2.17-.17,.83-.37,1.45-.62,1.86-1.08,2.56-1.86,4.71-2.36,6.45-.08,.41-.37,1.03-.87,1.86l-.5,.62c-.66,.33-1.12,.29-1.36-.12-.08-.25-.23-.5-.43-.74-.21-.25-.39-.58-.56-.99-.25-.83-.58-1.74-.99-2.73-.25-.66-.62-1.16-1.12-1.49-.58,.41-.91,.62-.99,.62s-.12-.04-.12-.12c0-.25,.04-.37,.12-.37,.17-.08,.5-.12,.99-.12v-.62c-.25-1.32-.62-2.44-1.12-3.35-.5-.91-1.28-1.65-2.36-2.23l-.25-.25c-.5-.33-.58-.78-.25-1.36,0-.08,.08-.2,.25-.37,.33-.5,.5-.95,.5-1.36,0-.25-.08-.54-.25-.87-.41-.83-.72-1.55-.93-2.17-.21-.62-.39-1.13-.56-1.55-.83-2.31-1.57-4.05-2.23-5.21-.25-.25-.46-.7-.62-1.36-.25-1.07-.66-2.15-1.24-3.22-.17-.33-.37-.93-.62-1.8s-.5-1.47-.74-1.8c-.66-1.16-1.32-1.82-1.98-1.98-.33-.08-.46-.37-.37-.87l.37-.74c.16-.33,.2-.66,.12-.99l-.87-2.11c-.33-1.9-.54-3.22-.62-3.97,0-.66,.2-1.4,.62-2.23,.66-.66,1.32-1.16,1.98-1.49,.49-.08,1.16,.04,1.98,.37,.99,.17,1.74,.25,2.23,.25l1.61-.12c.58-.08,1.2-.33,1.86-.74,.83-.41,1.24-1.16,1.24-2.23v-.25l-.25-1.36c-.5-2.15-.83-3.72-.99-4.71,.17-.82,.25-1.49,.25-1.98,.08-.16,.1-.33,.06-.5-.04-.16-.06-.33-.06-.5-.17-.5-.46-.82-.87-.99-.66-.16-1.12,0-1.36,.5-.08,.08-.17,.19-.25,.31-.08,.12-.21,.27-.37,.43-.08,.5-.33,.74-.74,.74l-.25-.12c-.91-.58-1.69-.87-2.36-.87h-.37c-.33,0-.54-.04-.62-.12-.17,0-.29-.04-.37-.12-.66-.66-1.49-.99-2.48-.99h-.62c-.5,.08-1.01,.25-1.55,.5-.54,.25-.97,.41-1.3,.5l-.12,.25c-.25,0-.21-.08,.12-.25-.33-.5-.87-.82-1.61-.99h-12.27c-1.08,0-2.01,.04-2.79,.12-.79,.08-1.8,.25-3.04,.5l-2.35-.62h-1.86c-.58,.17-.87,.37-.87,.62-.33,.99-.62,1.69-.87,2.11-.42,.5-.62,1.07-.62,1.74v.62c.16,.25,.25,.62,.25,1.12,0,.58-.08,.99-.25,1.24-.08,.41-.12,.99-.12,1.74,0,.99,.04,1.74,.12,2.23,.16,.5,.41,.95,.74,1.36,.33,.41,.74,.62,1.24,.62,.99,.17,1.78,.25,2.35,.25l2.85,.25c.58,0,1.09,.23,1.55,.68,.45,.46,.72,.93,.81,1.43,.08,.33,.12,.83,.12,1.49,0,1.16-.17,2.11-.5,2.85-.66,1.41-1.36,3.22-2.11,5.45-.08,.5,.08,.95,.5,1.36,.17,.33,.23,.58,.19,.74-.04,.17-.15,.33-.31,.5l-1.49,1.36c-.58,.5-.95,1.2-1.12,2.11,0,.58-.04,1.08-.12,1.49h.5c.5,.17,.74,.33,.74,.5,.16,.33,.04,.62-.37,.87l-1.24,.74c-.33,.17-.66,.46-.99,.87-.33,.41-.54,.7-.62,.87-.41,1.16-.62,1.82-.62,1.98-.41,.83-.74,1.74-.99,2.73l-.62,2.48c-1.32,2.15-2.17,3.64-2.54,4.46-.37,.83-.93,2.4-1.67,4.71-.41,.91-.72,1.72-.93,2.42-.21,.7-.39,1.26-.56,1.67-.17,.5-.5,1.24-.99,2.23-.25,.5-.41,.79-.5,.87-.17,.17-.39,.25-.68,.25s-.48-.08-.56-.25l-1.24-2.23-1.24-1.98-.25-1.86c-.33-1.32-.66-2.27-.99-2.85-.17-.5-.43-1.16-.81-1.98-.37-.82-.64-1.53-.81-2.11-.17-.5-.7-1.03-1.61-1.61l-.25,.25c-.08,0-.1-.02-.06-.06,.04-.04,.14-.1,.31-.19l.25-.99c.16-.33,.16-.66,0-.99l-1.12-2.85c-.17-.33-.43-1.01-.81-2.05-.37-1.03-.76-1.92-1.18-2.66-.17-.33-.41-.89-.74-1.67-.33-.78-.54-1.47-.62-2.05-.66-2.4-1.53-4.5-2.6-6.32l-.74-1.74-2.11-6.07c-.08-.33-.12-.91-.12-1.74v-.62c.17-1.24,.66-2.06,1.49-2.48,1.32-.66,2.36-1.03,3.1-1.12l2.48-.25c.66,0,1.24-.29,1.74-.87l-.37-.12c.16-.25,.29-.21,.37,.12,.58-.41,.87-.95,.87-1.61v-7.31l-.12-.5c0-.5-.21-.95-.62-1.36-.41-.41-.87-.66-1.36-.74h-.37c-1.07-.08-2.69-.12-4.83-.12s-3.8,.08-4.96,.25c-.41,.08-.76,.1-1.05,.06-.29-.04-.56-.06-.81-.06-3.14-.16-5.5-.25-7.07-.25-2.31,0-4.05,.08-5.21,.25-.33,.08-.6,.1-.81,.06-.21-.04-.43-.06-.68-.06-.08,0-.29-.02-.62-.06-.33-.04-.62-.02-.87,.06-.58,.08-1.12,.1-1.61,.06-.5-.04-.91-.06-1.24-.06-.74-.08-1.78-.12-3.1-.12-1.82,0-3.35,.21-4.59,.62h-1.12l-.87-.12c-.5-.25-.99-.37-1.49-.37-.08-.08-.14-.1-.19-.06-.04,.04-.1,.06-.19,.06-.41,.17-.62,.41-.62,.74,0,.17,.04,.29,.12,.37,.08,.33,.45,.66,1.12,.99,.58,.58,.95,1.07,1.12,1.49,.5,.25,.83,.62,.99,1.12,.25-.08,.58-.08,.99,0,.33-.58,.62-.87,.87-.87l.12,.25-.12,.25c-.08,.08-.23,.15-.43,.19-.21,.04-.35,.1-.43,.19-.41,.33-.74,.33-.99,0-.58-.41-.95-.78-1.12-1.12-.66,0-1.41-.2-2.23-.62-.58-.16-.87,.04-.87,.62v.25c.16,1.49,.25,2.6,.25,3.35v2.85Zm141.19-6.45c.41-.41,.7-.62,.87-.62,.08,0,.12,.08,.12,.25,.08,0,.1,.04,.06,.12-.04,.08-.1,.12-.19,.12-.17,.08-.46,.12-.87,.12l-.25,.25c-.08,0,0-.08,.25-.25Zm-.87,6.2v.5l-.37-.37,.37-.12Zm-7.31-1.86l.37-.37v-.99l-.25-.25c0-.08,.02-.1,.06-.06,.04,.04,.1,.14,.19,.31,.33,.17,.41,.37,.25,.62,0,.08-.08,.21-.25,.37,.25,.33,.62,.58,1.12,.74,.66,.17,1.16,.25,1.49,.25,.33,.17,.5,.41,.5,.74s-.21,.5-.62,.5c-.66,.08-1.57-.12-2.73-.62-.17-.16-.27-.37-.31-.62-.04-.25,.02-.45,.19-.62Zm-4.83,33.72c-.33,.17-.58,.04-.74-.37,.25-.25,.5-.33,.74-.25,.33,.08,.47,.19,.43,.31-.04,.12-.19,.23-.43,.31Zm.5-12.52c.08,.08,.1,.14,.06,.19-.04,.04-.06,.1-.06,.19l-.5,.12c-.41-.16-.5-.37-.25-.62s.5-.21,.74,.12Zm-1.24-19.34c0-.08,.04-.12,.12-.12s.17-.04,.25-.12c.33,0,.54,.12,.62,.37l-.12,.5h-.5c-.17,0-.29-.06-.37-.19-.08-.12-.08-.27,0-.43Zm-4.09,15.87c.17-.25,.41-.37,.74-.37,.66,0,.99,.33,.99,.99,0,.5-.21,.87-.62,1.12h-.5c-.5-.25-.74-.66-.74-1.24,0-.25,.04-.41,.12-.5Zm-4.09,21.94l-.12,.37-.12-.37h.25Zm-7.05,35.9c-.1-.09-.2-.13-.3-.13s-.15-.04-.15-.13c0-.27,.15-.18,.45,.27l.3,.13c0,.27-.1,.22-.3-.13Zm1.47-22.76l.25,.25-.25,.12v-.37Zm-1.49,17.35l.99-.25c.25-.08,.47-.1,.68-.06,.2,.04,.31,.15,.31,.31v.12c-.17,.41-.37,.66-.62,.74-.69,.23-1.27,.8-1.75,1.68,0,0,0,0,0,.02-.03,.06-.07,.11-.1,.17-.02,.04-.05,.07-.07,.11,.3,.33,.73,.59,1.3,.76,.8,.18,1.4,.27,1.81,.27,.4,.18,.6,.45,.6,.8s-.25,.54-.75,.54c-.81,.09-1.91-.13-3.31-.67-.2-.18-.33-.4-.38-.67-.02-.12-.01-.23,.02-.34-.11,.04-.22,.07-.33,.07-.17,0-.5-.08-.99-.25l-.74-.62-.12-.37c.58-.82,1.74-1.61,3.47-2.36Zm-2.98-13.51h.87c.33-.08,.58,0,.74,.25,.17,.08,.12,.25-.12,.5l-1.24,1.24c-.25,.25-.58,.29-.99,.12-.25-.16-.37-.41-.37-.74,0-.66,.37-1.12,1.12-1.36Zm-4.87,18.72c0-.09,.05-.13,.15-.13s.2-.04,.3-.13c.4,0,.65,.13,.75,.4l-.15,.54h-.6c-.2,0-.35-.07-.45-.2-.1-.13-.1-.29,0-.47Zm-3.13-4.83s-.1-.08-.19-.25l.25,.12c0,.08-.02,.12-.06,.12Zm.56-13.64c.25,0,.37,.04,.37,.12,.25,.25,.16,.46-.25,.62-.25,0-.37-.04-.37-.12-.41-.25-.33-.45,.25-.62Zm-.99,3.6c.08-.41,.33-.54,.74-.37,.08,.08,.12,.21,.12,.37-.08,.5-.37,.66-.87,.5v-.5Zm-.06,9.42s.1,.08,.19,.25l-.25-.12c0-.08,.02-.12,.06-.12Zm-5.52-10.16c.33-.33,.62-.33,.87,0v.37c-.25,.17-.54,.17-.87,0-.08-.08-.12-.16-.12-.25s.04-.12,.12-.12Zm-1.74-8.43c.16,0,.25,.08,.25,.25,0,.41-.17,.62-.5,.62-.17,0-.25-.12-.25-.37,0-.33,.16-.5,.5-.5Zm-.12,21.2l-.12,.25-.25-.12,.37-.12Zm-2.11-43.14v.37l-.37-.25,.37-.12Zm-.87,2.98v.25l-.5-.12,.5-.12Zm-3.97,3.22l-.37-.12,.37-.25v.37Zm.25-30l.12-.25,.12,.25h-.25Zm-.74-6.57l1.12,.74c.08,0,.21,.08,.37,.25-.17,.41-.46,.54-.87,.37-.5,0-.91-.16-1.24-.5-.17-.16-.25-.37-.25-.62,.17-.25,.45-.33,.87-.25Zm-7.56,12.77c.58-.25,.99-.04,1.24,.62v.37c-.17,.17-.29,.25-.37,.25-.66-.16-.99-.5-.99-.99,0-.16,.04-.25,.12-.25Zm-.74-18.72v.37l-.5-.25,.5-.12Zm-2.11,29.5v.25l-.25-.12,.25-.12Zm-.62-10.54l.25,.5c0,.17-.06,.29-.19,.37-.12,.08-.27,.08-.43,0-.17-.08-.25-.16-.25-.25,0-.41,.2-.62,.62-.62Zm-3.1,6.57v.25l-.5-.12,.5-.12Zm-6.2-23.68l.5,.37-.5,.12v-.5Zm3.6,5.45c-.33,.08-.7,.12-1.12,.12h-.87c-.5-.08-.99-.37-1.49-.87-.58,0-1.08-.04-1.49-.12-.17,0-.31-.04-.43-.12-.12-.08-.19-.21-.19-.37-.08-.25,0-.5,.25-.74,.33-.33,.78-.5,1.36-.5s.87,.29,.87,.87v.12c-.25,.5-.37,.79-.37,.87,1.49,0,2.6,.04,3.35,.12,.33,0,.5,.17,.5,.5l-.37,.12Zm1.49,38.68v.5l-.25-.37,.25-.12Zm-.99-12.27l-.37-.12,.37-.37v.5Zm-.5-4.83l.12,.5-.37-.12,.25-.37Zm-1.49,19.21c0-.08,.08-.12,.25-.12,.33-.08,.62,0,.87,.25-.17,.17-.29,.25-.37,.25h-.37c-.33,0-.46-.12-.37-.37Zm-5.95,9.79c.08-.08,.2-.12,.37-.12,.08-.08,.17-.1,.25-.06,.08,.04,.17,.06,.25,.06,0,.08,.04,.14,.12,.19,.08,.04,.08,.1,0,.19-.17,.33-.37,.41-.62,.25-.08,0-.21-.08-.37-.25-.08-.08-.08-.16,0-.25Zm-2.11,23.43l.37,.25-.37,.12v-.37Zm-1.61-7.81v.37l-.37-.12,.37-.25Zm-4.09,5.71l1.35,.8c.1,0,.25,.09,.45,.27-.2,.45-.55,.58-1.05,.4-.6,0-1.11-.18-1.51-.54-.2-.18-.3-.4-.3-.67,.2-.27,.55-.36,1.05-.27Zm-3.03,4.2c.04-.08,.1-.12,.19-.12,.08-.08,.23-.14,.43-.19,.2-.04,.35-.1,.43-.19,.58-.41,.91-.62,.99-.62l.25,.25c-.17,.17-.29,.25-.37,.25-.17,.08-.46,.12-.87,.12-.5,.58-.79,.87-.87,.87l-.12-.25c-.08,0-.1-.04-.06-.12Zm-8.12-18.47c.25-.25,.41-.37,.5-.37l.25,.37-.37,.12-.37-.12Zm.06-4.21c.04-.08,.14-.16,.31-.25l-.25,.37c-.08,0-.1-.04-.06-.12Zm1.01,12.45l-.6-.27,.6-.13v.4Zm2.28-10.47c.08,.08,.1,.15,.06,.19-.04,.04-.06,.1-.06,.19-.33,.08-.62,.08-.87,0-.17-.08-.23-.16-.19-.25,.04-.08,.14-.16,.31-.25,.25-.16,.49-.12,.74,.12Zm-3.97-8.43c.25-.08,.58-.08,.99,0,1.16,.83,1.74,1.69,1.74,2.6v1.12l.37,.99c0,.25-.29,.5-.87,.74-.17,.17-.29,.25-.37,.25l-.74,.37c-.74-1.32-1.53-2.36-2.35-3.1l-.37-.87c-.17-.5-.04-.95,.37-1.36,.25-.41,.66-.66,1.24-.74Zm-2.11-3.72c.5,.08,.74,.37,.74,.87,0,.33-.12,.58-.37,.74-.33,.08-.62-.08-.87-.5-.08-.16-.12-.41-.12-.74,.16-.41,.37-.54,.62-.37Zm.25,27.77v.37c-.25,.41-.54,.46-.87,.12-.17,0-.25-.08-.25-.25s.08-.25,.25-.25c.25-.08,.54-.08,.87,0Zm-.99-34.21v.25l-.25-.12,.25-.12Zm-3.1,18.97v-.37l.37,.25-.37,.12Zm.12-23.8c.33,0,.5,.17,.5,.5,0,.25-.08,.37-.25,.37-.33,0-.5-.16-.5-.5,0-.25,.08-.37,.25-.37Zm4.71-35.27c.08-.04,.17-.02,.25,.06,.17,0,.31,.06,.43,.19,.12,.12,.14,.23,.06,.31-.08,.08-.15,.15-.19,.19-.04,.04-.1,.06-.19,.06-.33-.08-.5-.29-.5-.62,0-.08,.04-.14,.12-.19Zm-2.98-3.29c0-.25,.08-.37,.25-.37,.17-.16,.39-.19,.68-.06,.29,.12,.43,.31,.43,.56,.08,.17,.02,.33-.19,.5-.21,.17-.48,.21-.81,.12-.33-.08-.46-.33-.37-.74Zm-4.59,62.35l-.5-.25,.5-.12v.37Zm0-41.28l-.5-.12,.5-.12v.25Zm1.98,35.08l-.12,.25-.25-.12,.37-.12Zm-1.74-52.19h.37l.62,.12c.08,.08,.29,.33,.62,.74l.25,.12c0,.08-.02,.12-.06,.12-.04,0-.1-.08-.19-.25-.66,0-1.16-.04-1.49-.12-.33,0-.5-.12-.5-.37,.17-.25,.29-.37,.37-.37Zm-1.61,5.83c-.08-.33,0-.58,.25-.74,.25-.16,.58-.16,.99,0,.17,.08,.25,.21,.25,.37s-.04,.29-.12,.37c-.17,.41-.54,.7-1.12,.87l-.12,.25c-.08,0-.12-.02-.12-.06s.08-.1,.25-.19c-.17-.33-.25-.62-.25-.87Zm-.37,32.35c.33-.08,.54-.12,.62-.12,0-.5,.04-.95,.12-1.36,0-.33,.12-.5,.37-.5,.08,0,.17,.04,.25,.12,.08,.08,.12,.17,.12,.25v.37c-.17,.5-.46,.87-.87,1.12,0,.66-.17,1.07-.5,1.24,0,.08-.06,.12-.19,.12s-.23-.04-.31-.12c-.25-.16-.33-.41-.25-.74,.08-.16,.29-.29,.62-.37Zm0,16.61c.16,0,.29,.04,.37,.12,.17,.25,.17,.5,0,.74-.08,.41-.33,.62-.74,.62-.17,0-.25-.08-.25-.25,0-.66,.21-1.07,.62-1.24Zm-1.98-13.14l-.37,.12-.25-.37,.37-.12,.25,.37Zm-.62-33.97l-.12,.25-.37-.25h.5Zm-2.73-.62l.37,.12-.37,.25v-.37Zm-.37,26.16c0,.17-.06,.29-.19,.37-.12,.08-.27,.12-.43,.12-.41-.16-.54-.37-.37-.62,0-.25,.08-.37,.25-.37,.5-.16,.74,0,.74,.5Zm-.37-16.98c.25,0,.2,.08-.12,.25l.12-.25Zm-1.24,.62c.08-.08,.16-.12,.25-.12,.08-.08,.33-.12,.74-.12-.08,.08-.19,.19-.31,.31-.12,.12-.25,.21-.37,.25-.12,.04-.23-.02-.31-.19-.08,0-.08-.04,0-.12Zm-.99-19.71l.37,.37-.37,.12v-.5Zm-1.98,25.54l.37,.37-.5,.12,.12-.5Zm-2.36-9.3c.08,.08,.12,.21,.12,.37-.08,.17-.19,.27-.31,.31-.12,.04-.27,.02-.43-.06-.08,0-.12-.08-.12-.25,.17-.41,.41-.54,.74-.37Zm-5.7-2.98c.25-.41,.5-.41,.74,0,.33,.25,.58,.62,.74,1.12,0,.08,.04,.15,.12,.19,.08,.04,.12,.1,.12,.19-.08,.17-.21,.12-.37-.12-.17-.08-.39-.16-.68-.25-.29-.08-.52-.2-.68-.37-.08-.25-.08-.5,0-.74Zm-.62-6.57l.25,.12c0,.25-.08,.21-.25-.12-.08-.08-.17-.12-.25-.12s-.12-.04-.12-.12c0-.25,.12-.16,.37,.25Z" style="fill: #fff;"></path><path d="M171.92,320.91c.01,.08,.02,.16,.01,.25-.04,.24-.12,.39-.26,.46-.48,.21-.99,.31-1.54,.31h-.41c-.27-.14-.34-.31-.2-.51,.27-.68,.79-1.02,1.54-1.02,0,0,0,0,.01,0-2.26-1.57-3.75-4.18-3.75-7.13v-45.2l-.32,.09v-.54l.32,.28v-69.43l-.6,.27c-.9-1.43-1.86-2.55-2.86-3.35l-.45-.94c-.2-.54-.05-1.03,.45-1.48,.3-.45,.8-.71,1.51-.8,.3-.09,.7-.09,1.2,0,.28,.18,.52,.37,.75,.55v-40.14c0-4.78,3.89-8.67,8.67-8.67h157.18c.35-.45,.86-.78,1.45-.88l1.3-.22c.27-.05,.53-.14,.77-.28l2.39-1.37c1.56-.9,3.5,.23,3.5,2.03v.73h51.99c.13-.08,.27-.07,.42,0h1.26c.65-1.41,1.31-2.83,1.97-4.26l-.48-.15c-.07,0-.14-.03-.2-.1-.07-.07-.07-.1,0-.1,0-.07,.1-.2,.31-.41,.18-.04,.45-.07,.77-.08,1.51-3.26,3-6.44,4.28-9.2H204.02c-.1,.03-.21,.04-.34,.04-.06,0-.1-.02-.14-.04h-27.55c-4.34,0-8.39,1.23-11.86,3.34l.15,.27c0,.18-.08,.31-.23,.4-.15,.09-.33,.09-.53,0-.12-.05-.19-.1-.24-.16-.42,.28-.83,.59-1.23,.9,0,0,0,.01,0,.02,.1,.18,.02,.36-.23,.54-.18,.13-.42,.16-.67,.15-1.53,1.29-2.88,2.78-4.02,4.43l.26,.11c0,.09-.03,.13-.07,.13-.05,0-.11-.08-.2-.23-.97,1.4-1.79,2.92-2.43,4.52,.2,.09,.3,.22,.3,.4s-.05,.31-.15,.4c-.13,.28-.37,.51-.7,.68-.72,2.23-1.12,4.6-1.12,7.06v27.2c.22-.04,.39-.07,.46-.07,0-.54,.05-1.03,.15-1.48,0-.36,.15-.54,.45-.54,.1,0,.2,.05,.3,.13,.1,.09,.15,.18,.15,.27v.4c-.2,.54-.55,.94-1.05,1.21,0,.62-.16,1.03-.46,1.24v16.91c.06,.02,.12,.05,.16,.09,.2,.27,.2,.54,0,.8-.03,.14-.09,.25-.16,.35v23.67c.05,.08,.08,.17,.08,.29l-.08,.02v28.34l.23-.2v.54l-.23-.07v57.94l.31-.08c.2,.07,.31,.14,.31,.21,.07,.41-.03,1.02-.31,1.84,0,.07-.04,.12-.1,.15-.07,.04-.14,.09-.21,.15h0s0,1.37,0,1.37c0,9.3,5.56,17.3,13.52,20.91,1.12-2.68,3.36-7.62,5.86-13.03-.16-.07-.32-.15-.48-.23Zm224.8-183.25c0,.27-.2,.41-.61,.41h-.51c-.27,0-.41-.14-.41-.41-.07-.2,.1-.31,.51-.31h.31c.48,0,.72,.1,.72,.31Zm-2.25-6.56c.27,.07,.48,.27,.62,.62h.41c.2,0,.37,.1,.51,.31-.07,.07-.17,.1-.31,.1-.2-.07-.41-.2-.61-.41-.07,0-.22-.02-.46-.05-.24-.03-.39-.19-.46-.46,.07-.07,.17-.1,.31-.1Zm-8-.51l.2,.21c0,.27-.14,.41-.41,.41,0,.07-.07,.04-.21-.1,0-.2,.14-.37,.41-.51Zm-6.66,2.67c.34-.41,.55-.62,.61-.62,.14,0,.21,.07,.21,.2s-.04,.24-.1,.31l-.72,.1-.1,.2c-.2,0-.17-.07,.1-.2Zm-3.38-.1l.41-.1c.2,.07,.31,.14,.31,.21,.07,.41-.03,1.02-.31,1.84,0,.07-.04,.12-.1,.15-.07,.04-.14,.09-.21,.15l-.51-.51c-.14-.75,0-1.33,.41-1.74Zm-2.77,1.13c.2-.14,.37-.07,.51,.2l-.1,.2h-.31c-.27,0-.41-.1-.41-.31,.07-.07,.17-.1,.31-.1Zm-21.98,3.67c.03-.1,.08-.15,.15-.15,.55-.41,1.09-.31,1.64,.31,.07,.07,.1,.17,.1,.31,.14,.2,.03,.38-.31,.51-.61,.14-1.09,.07-1.44-.2-.27-.14-.41-.31-.41-.51,.14-.07,.22-.15,.26-.26Zm-119.28-1.96c-.07,.07-.1,.14-.1,.21s-.03,.1-.1,.1c-.2,0-.14-.1,.21-.31v-.41c0-.2,.1-.37,.31-.51,.07,.07,.1,.17,.1,.31-.07,.2-.2,.41-.41,.61Zm3.64,7.61l-.45-.13,.45-.27v.4Zm62.16-11.13h1.05c.4-.09,.7,0,.9,.27,.2,.09,.15,.27-.15,.54l-1.51,1.34c-.3,.27-.7,.31-1.2,.13-.3-.18-.45-.45-.45-.8,0-.71,.45-1.21,1.36-1.48Zm-9.03,.27c.3,0,.45,.05,.45,.13,.3,.27,.2,.49-.3,.67-.3,0-.45-.04-.45-.13-.5-.27-.4-.49,.3-.67Zm-1.2,3.89c.1-.45,.4-.58,.9-.4,.1,.09,.15,.22,.15,.4-.1,.54-.45,.72-1.05,.54v-.54Zm-2.34-.37c.5-.45,.85-.67,1.05-.67,.1,0,.15,.09,.15,.27,.1,0,.12,.05,.07,.13-.05,.09-.13,.13-.23,.13-.2,.09-.55,.13-1.05,.13l-.3,.27c-.1,0,0-.09,.3-.27Zm-1.05,6.7v.54l-.45-.4,.45-.13Zm-3.38-7.14c.4-.36,.75-.36,1.05,0v.4c-.3,.18-.65,.18-1.05,0-.1-.09-.15-.18-.15-.27s.05-.13,.15-.13Zm-5.5,5.13l.45-.4v-1.07l-.3-.27c0-.09,.02-.11,.07-.07,.05,.05,.12,.16,.23,.33,.4,.18,.5,.4,.3,.67,0,.09-.1,.22-.3,.4,.3,.36,.75,.63,1.35,.8,.8,.18,1.4,.27,1.81,.27,.4,.18,.6,.45,.6,.8s-.25,.54-.75,.54c-.81,.09-1.91-.13-3.31-.67-.2-.18-.33-.4-.38-.67-.05-.27,.02-.49,.23-.67Zm-6.77,2.01c0-.09,.05-.13,.15-.13s.2-.04,.3-.13c.4,0,.65,.13,.75,.4l-.15,.54h-.6c-.2,0-.35-.07-.45-.2-.1-.13-.1-.29,0-.47Zm-21.24,.41l.72-.21c.34-.34,.72-.51,1.13-.51h.2c.2,0,.31,.03,.31,.1,.14,.14,.07,.2-.21,.2-.2,.14-.46,.2-.77,.2h-.67c-.27,.41-.48,.62-.62,.62s-.2-.07-.2-.2l.1-.2Zm-3.38-8l.31,.2-.31,.1v-.31Zm-8.71,.31l.41,.1c.2,.41,.1,.65-.31,.72-.07-.07-.17-.1-.31-.1-.14-.34-.07-.58,.21-.72Zm-5.13-4.51c.14-.07,.34-.24,.62-.51,.41-.14,.78-.07,1.13,.2,.55,.41,.82,.92,.82,1.54-.14,.55-.41,.72-.82,.51-.14-.07-.34-.17-.61-.31-.27-.14-.55-.2-.82-.2-.41-.14-.62-.34-.62-.62,0-.2,.1-.41,.31-.62Zm-1.16,11.43c.1,.09,.12,.16,.07,.2-.05,.05-.07,.11-.07,.2l-.6,.13c-.5-.18-.6-.4-.3-.67,.3-.27,.6-.22,.9,.13Zm-1.1-4.66l.21-.1,.1,.2c-.07,.07-.17,.1-.31,.1v-.2Zm-5.38,.91c.2-.27,.5-.4,.9-.4,.8,0,1.2,.36,1.2,1.07,0,.54-.25,.94-.75,1.21h-.6c-.6-.27-.9-.71-.9-1.34,0-.27,.05-.45,.15-.54Zm-2.13-7.45c.3-.18,.6-.13,.9,.13,.1,.09,.13,.16,.08,.2-.05,.05-.08,.11-.08,.2-.4,.09-.75,.09-1.05,0-.2-.09-.28-.18-.23-.27,.05-.09,.17-.18,.38-.27Zm-.18,7.26l-.1,.31-.31-.2,.41-.1Zm-2.38-5.12l.3,.4-.45,.13-.45-.13c.3-.27,.5-.4,.6-.4Zm.37,6.34l1.35,.8c.1,0,.25,.09,.45,.27-.2,.45-.55,.58-1.05,.4-.6,0-1.11-.18-1.51-.54-.2-.18-.3-.4-.3-.67,.2-.27,.55-.36,1.05-.27Zm-8.95-8.35l.45,.27-.45,.13v-.4Zm-1.14,1.91v.4l-.6-.27,.6-.13Zm-2.17-1.91v.4l-.6-.27,.6-.13Zm-12.43,3.92l.6,.4-.6,.13v-.54Zm-2.11,3.62c.4-.36,.95-.54,1.66-.54s1.05,.31,1.05,.94v.13c-.3,.54-.45,.85-.45,.94,1.81,0,3.16,.05,4.06,.13,.4,0,.6,.18,.6,.54l-.45,.13c-.4,.09-.85,.13-1.36,.13h-1.05c-.6-.09-1.2-.4-1.81-.94-.7,0-1.31-.04-1.81-.13-.2,0-.38-.04-.53-.13-.15-.09-.23-.22-.23-.4-.1-.27,0-.54,.3-.8Zm-23.52-6.66c.7-.27,1.2-.04,1.51,.67v.4c-.2,.18-.35,.27-.45,.27-.8-.18-1.2-.54-1.2-1.07,0-.18,.05-.27,.15-.27Zm-3.46,11.93l-.3-.13,.3-.13v.27Zm-.71-6.54c.1-.04,.2-.02,.3,.07,.2,0,.38,.07,.53,.2,.15,.13,.17,.25,.07,.33-.1,.09-.18,.16-.23,.2-.05,.05-.13,.07-.22,.07-.4-.09-.6-.31-.6-.67,0-.09,.05-.15,.15-.2Zm-2.11,43.38v.27l-.3-.13,.3-.13Zm-1.69-41.39v.27l-.6-.13,.6-.13Zm-1.35,22.12v.54l-.3-.4,.3-.13Zm-1.81-18.5l.15,.54-.45-.13,.3-.4Zm-1.81,20.78c0-.09,.1-.13,.3-.13,.4-.09,.75,0,1.05,.27-.2,.18-.35,.27-.45,.27h-.45c-.4,0-.55-.13-.45-.4Zm.56,78.71v.27l-.6-.13,.6-.13Zm-1.57-85.99l.6-.13v.27l-.6-.13Zm.6,44.38v.4l-.6-.27,.6-.13Zm-.78,73.58c-.1-.09-.2-.13-.3-.13s-.15-.04-.15-.13c0-.27,.15-.18,.45,.27l.3,.13c0,.27-.1,.22-.3-.13Zm.39-9.31l-.3-.4,.3-.13v.54Zm.36,16.42c.3-.45,.6-.45,.9,0,.4,.27,.7,.67,.9,1.21,0,.09,.05,.16,.15,.2,.1,.05,.15,.11,.15,.2-.1,.18-.25,.13-.45-.13-.2-.09-.48-.18-.83-.27-.35-.09-.63-.22-.83-.4-.1-.27-.1-.54,0-.8Zm.57,23.97c-.07,0-.1-.02-.1-.05s.07-.08,.2-.15c.14-.14,.29-.21,.46-.21s.29,.07,.36,.21l.2,.1c0,.14-.07,.1-.2-.1h-.82l-.1,.2Zm1.64,3.69l-.72,.1-.1,.2c-.2,0-.17-.07,.1-.2,.34-.41,.55-.62,.61-.62,.14,0,.21,.07,.21,.2s-.04,.24-.1,.31Zm.07-114.38l-.3-.13,.45-.13-.15,.27Zm.56-46.62l-.45-.13,.45-.4v.54Zm.49,53.06v-.4l.45,.27-.45,.13Zm-.15-25.34c0-.27,.1-.4,.3-.4,.4,0,.6,.18,.6,.54,0,.27-.1,.4-.3,.4-.4,0-.6-.18-.6-.54Zm1.65,60.38c-.15,.09-.33,.09-.53,0-.2-.09-.3-.18-.3-.27,0-.45,.25-.67,.75-.67l.3,.54c0,.18-.08,.31-.23,.4Zm.68,10.73l-.3-.13,.3-.13v.27Zm1.19,38.47c-.15,.05-.33,.02-.53-.07-.1,0-.15-.09-.15-.27,.2-.45,.5-.58,.9-.4,.1,.09,.15,.22,.15,.4-.1,.18-.23,.29-.38,.34Zm.25-67.48c0-.18,.1-.27,.3-.27,.3-.09,.65-.09,1.05,0v.4c-.3,.45-.65,.49-1.05,.13-.2,0-.3-.09-.3-.27Zm.52-3.05l.6-.13v.4l-.6-.27Zm.48,92.28c0,.07-.07,.04-.21-.1,0-.2,.14-.37,.41-.51l.2,.21c0,.27-.14,.41-.41,.41Zm-.55-118.34c-.1-.18-.15-.45-.15-.8,.2-.45,.45-.58,.75-.4,.6,.09,.9,.4,.9,.94,0,.36-.15,.63-.45,.8-.4,.09-.75-.09-1.05-.54Zm3.99,9.79c.05-.09,.17-.18,.38-.27l-.3,.4c-.1,0-.13-.04-.08-.13Zm-2.57,36.64c0-.18,.05-.27,.15-.27,.7-.27,1.2-.04,1.51,.67v.4c-.2,.18-.35,.27-.45,.27-.8-.18-1.2-.54-1.2-1.07Zm.96,59.46l.45,.4-.6,.13,.15-.54Zm.62,9.37c-.41,0-.62-.14-.62-.41,.07-.07,.1-.15,.1-.26s.03-.15,.1-.15c.2,0,.36,.05,.46,.15,.1,.1,.15,.22,.15,.36,0,.2-.07,.31-.2,.31Zm.9-100.91c.3-.27,.5-.4,.6-.4l.3,.4-.45,.13-.45-.13Zm.53,119.36l.1-.2,.2,.1-.31,.1Z" style="fill: #fff;"></path><path d="M724.02,129.6h-39.47l-.11,.05s-.02-.03-.03-.05h-13.48s-.02,.03-.03,.05c-.1,.45-.4,.67-.9,.67-.2,0-.3-.09-.3-.27,0-.17,.02-.31,.04-.45h-98.88c-.49,1.04-.9,1.77-.9,1.77,0,0-5.07,5.38-5.92,0,0,0-.52-.84-2.29-1.77h-27.52c-.48,1.16-1.21,2.65-2.29,4.27-2.4,3.59,0,0-2.11,0-1.27,0-.68-2.37,0-4.27h-8.25l-2.5,14.3h183.22l.07-.04v.04h21.67c4.78,0,8.67,3.89,8.67,8.67v120.58s.07-.08,.12-.12c.4-.36,.95-.54,1.66-.54s1.05,.31,1.05,.94v.13c-.3,.54-.45,.85-.45,.94,1.81,0,3.16,.05,4.06,.13,.4,0,.6,.18,.6,.54l-.45,.13c-.4,.09-.85,.13-1.36,.13h-1.05c-.6-.09-1.2-.4-1.81-.94-.7,0-1.31-.04-1.81-.13-.2,0-.38-.04-.53-.13-.02-.01-.03-.03-.04-.04v39.06c0,4.78-3.89,8.67-8.67,8.67h-7.14l.14,.14c0,.27-.14,.41-.41,.41,0,.07-.07,.04-.21-.1,0-.18,.12-.33,.33-.45h-159.27c.16,.16,.25,.37,.25,.65,0,.36-.15,.63-.45,.8-.4,.09-.75-.09-1.05-.54-.1-.18-.15-.45-.15-.8,.02-.05,.04-.08,.07-.12h-51.91c-.13,.04-.28,.04-.46,0h-78.12s.02,0,.04,.01c.04,.04,.1,.14,.19,.31,.33,.17,.41,.37,.25,.62,0,.08-.08,.21-.25,.37,.25,.33,.62,.58,1.12,.74,.66,.17,1.16,.25,1.49,.25,.33,.17,.5,.41,.5,.74s-.21,.5-.62,.5c-.66,.08-1.57-.12-2.73-.62-.17-.16-.27-.37-.31-.62-.04-.25,.02-.45,.19-.62l.37-.37v-.99l-.25-.25s0-.07,.01-.08h-54.05l9.16,14.3h250.49c.09-.09,.25-.17,.53-.24,.3,0,.45,.05,.45,.13,.04,.04,.06,.07,.08,.11h7.56c.22-.21,.53-.39,.94-.51h1.05c.4-.09,.7,0,.9,.27,.11,.05,.14,.13,.09,.24h80.53s0,0,0-.01c.27-.68,.79-1.02,1.54-1.02,.2-.14,.44-.07,.72,.2,.14,.14,.19,.33,.15,.56-.01,.07-.04,.12-.06,.18,.15-.01,.3,0,.44-.02,.79-1.7,1.59-3.45,2.4-5.19l-.48-.15c-.07,0-.14-.03-.2-.1-.07-.07-.07-.1,0-.1,0-.07,.1-.2,.31-.41,.18-.04,.45-.07,.77-.08,3.86-8.31,7.57-16.22,8.09-17.51l8.46-4.19s-8.89,15-16.24,27.22c10.14-2.39,17.71-11.49,17.71-22.34V152.57c0-12.67-10.3-22.97-22.97-22.97Zm-117.64,7.2c0,1.05-.7,1.97-1.7,2.25l-4.25,1.2c-.2,.06-.39,.14-.57,.25-1.62,.97-3.67-.28-3.53-2.17l.15-2.15c.08-1.08,.88-1.96,1.94-2.14l1.3-.22c.27-.05,.53-.14,.77-.28l2.39-1.37c1.56-.9,3.5,.23,3.5,2.03v2.62Zm37.14,1.55c-.1,.45-.4,.67-.9,.67-.2,0-.3-.09-.3-.27,0-.71,.25-1.16,.75-1.34,.2,0,.35,.05,.45,.13,.2,.27,.2,.54,0,.8Zm1.66,2.95l-.6-.27,.6-.13v.4Zm2.26-6.44l-.3-.13,.45-.13-.15,.27Zm1.05,6.44v-.4l.45,.27-.45,.13Zm8.43,2.15l-.45-.13c.3-.27,.5-.4,.6-.4l.3,.4-.45,.13Zm-.38-4.69c.05-.09,.17-.18,.38-.27l-.3,.4c-.1,0-.13-.04-.08-.13Zm1.88-1.07c-.2,.18-.35,.27-.45,.27l-.9,.4c-.9-1.43-1.86-2.55-2.86-3.35l-.45-.94c-.2-.54-.05-1.03,.45-1.48,.3-.45,.8-.71,1.51-.8,.3-.09,.7-.09,1.2,0,1.4,.89,2.11,1.83,2.11,2.82v1.21l.45,1.07c0,.27-.35,.54-1.05,.8Zm2.18,3.42c-.05,.05-.08,.11-.08,.2-.4,.09-.75,.09-1.05,0-.2-.09-.28-.18-.23-.27,.05-.09,.17-.18,.38-.27,.3-.18,.6-.13,.9,.13,.1,.09,.13,.16,.08,.2Zm23.3-11.05c.05-.09,.17-.18,.38-.27l-.3,.4c-.1,0-.13-.04-.08-.13Zm-11.36,2.55l-.6-.27,.6-.13v.4Zm3.31,0v-.4l.45,.27-.45,.13Zm4.84,3.34c-.2,.36-.45,.45-.75,.27-.1,0-.25-.09-.45-.27-.1-.09-.1-.18,0-.27,.1-.09,.25-.13,.45-.13,.1-.09,.2-.11,.3-.07,.1,.05,.2,.07,.3,.07,0,.09,.05,.16,.15,.2,.1,.05,.1,.11,0,.2Zm3.58-1.2l-.45-.13c.3-.27,.5-.4,.6-.4l.3,.4-.45,.13Zm3.69-2.35c-.05,.05-.08,.11-.08,.2-.4,.09-.75,.09-1.05,0-.2-.09-.28-.18-.23-.27,.05-.09,.17-.18,.38-.27,.3-.18,.6-.13,.9,.13,.1,.09,.13,.16,.08,.2Zm29.75,4.62c-.2,0-.3-.13-.3-.4,0-.36,.2-.54,.6-.54,.2,0,.3,.09,.3,.27,0,.45-.2,.67-.6,.67Zm10.54,5.9c-.3,0-.45-.04-.45-.13-.5-.27-.4-.49,.3-.67,.3,0,.45,.05,.45,.13,.3,.27,.2,.49-.3,.67Zm-349.12,186.27l.12-.25,.12,.25h-.25Zm-.12-5.21c-.5,0-.91-.16-1.24-.5-.17-.16-.25-.37-.25-.62,.17-.25,.45-.33,.87-.25l1.12,.74c.08,0,.21,.08,.37,.25-.17,.41-.46,.54-.87,.37Zm41.78,2.11h-.5c-.17,0-.29-.06-.37-.19-.08-.12-.08-.27,0-.43,0-.08,.04-.12,.12-.12s.17-.04,.25-.12c.33,0,.54,.12,.62,.37l-.12,.5Zm9.38,7.47c-.3,.45-.65,.49-1.05,.13-.2,0-.3-.09-.3-.27s.1-.27,.3-.27c.3-.09,.65-.09,1.05,0v.4Zm2.64-7.6l-.37-.37,.37-.12v.5Zm18.88,2.37l-.45-.13,.45-.27v.4Zm42.75,6.3l-.3-.13,.45-.13-.15,.27Zm9.03-2.95c0-.09,.02-.13,.07-.13,.05,0,.12,.09,.23,.27l-.3-.13Zm.68,.54c-.05,0-.13-.09-.23-.27l.3,.13c0,.09-.03,.13-.07,.13Zm15.73-.27c-.2,.45-.45,.72-.75,.8-.9,.27-1.66,.94-2.26,2.01-.4,.63-.85,.94-1.36,.94-.2,0-.6-.09-1.2-.27l-.9-.67-.15-.4c.7-.89,2.11-1.74,4.21-2.55l1.2-.27c.3-.09,.58-.11,.83-.07,.25,.05,.38,.16,.38,.33v.13Zm27.31,.27c-.1,.45-.4,.67-.9,.67-.2,0-.3-.09-.3-.27,0-.71,.25-1.16,.75-1.34,.2,0,.35,.05,.45,.13,.2,.27,.2,.54,0,.8Zm1.66,2.95l-.6-.27,.6-.13v.4Zm2.26-6.44l-.3-.13,.45-.13-.15,.27Zm1.05,6.44v-.4l.45,.27-.45,.13Zm8.13-2.41c-.1,0-.13-.04-.08-.13,.05-.09,.17-.18,.38-.27l-.3,.4Zm1.81-1.21c-.2,.18-.35,.27-.45,.27l-.9,.4c-.9-1.43-1.86-2.55-2.86-3.35l-.45-.94c-.2-.54-.05-1.03,.45-1.48,.3-.45,.8-.71,1.51-.8,.3-.09,.7-.09,1.2,0,1.4,.89,2.11,1.83,2.11,2.82v1.21l.45,1.07c0,.27-.35,.54-1.05,.8Zm2.18,3.42c-.05,.05-.08,.11-.08,.2-.4,.09-.75,.09-1.05,0-.2-.09-.28-.18-.23-.27,.05-.09,.17-.18,.38-.27,.3-.18,.6-.13,.9,.13,.1,.09,.13,.16,.08,.2Zm20.09-5.16c-.2,.36-.45,.45-.75,.27-.1,0-.25-.09-.45-.27-.1-.09-.1-.18,0-.27,.1-.09,.25-.13,.45-.13,.1-.09,.2-.11,.3-.07,.1,.05,.2,.07,.3,.07,0,.09,.05,.16,.15,.2,.1,.05,.1,.11,0,.2Zm37.03,1.07c-.2,0-.3-.13-.3-.4,0-.36,.2-.54,.6-.54,.2,0,.3,.09,.3,.27,0,.45-.2,.67-.6,.67Zm88.77-6.36c.34-.41,.55-.62,.61-.62,.14,0,.21,.07,.21,.2s-.04,.24-.1,.31l-.72,.1-.1,.2c-.2,0-.17-.07,.1-.2Zm-63.94,7.43v-.4l.3,.27-.3,.13Zm48.05,.74c-.1,.45-.4,.67-.9,.67-.2,0-.3-.09-.3-.27,0-.71,.25-1.16,.75-1.34,.2,0,.35,.05,.45,.13,.2,.27,.2,.54,0,.8Zm1.66,2.95l-.6-.27,.6-.13v.4Zm2.26-6.44l-.3-.13,.45-.13-.15,.27Zm1.05,6.44v-.4l.45,.27-.45,.13Zm4.06-12.34c-.1-.18-.15-.45-.15-.8,.2-.45,.45-.58,.75-.4,.6,.09,.9,.4,.9,.94,0,.36-.15,.63-.45,.8-.4,.09-.75-.09-1.05-.54Zm.81,2.65c-.27,0-.41-.1-.41-.31,.07-.07,.17-.1,.31-.1,.2-.14,.37-.07,.51,.2l-.1,.2h-.31Zm3.26,7.27c-.1,0-.13-.04-.08-.13,.05-.09,.17-.18,.38-.27l-.3,.4Zm1.81-1.21c-.2,.18-.35,.27-.45,.27l-.9,.4c-.9-1.43-1.86-2.55-2.86-3.35l-.45-.94c-.2-.54-.05-1.03,.45-1.48,.29-.42,.76-.68,1.41-.78-.13-.74,0-1.32,.41-1.72l.41-.1c.2,.07,.31,.14,.31,.21,.06,.36-.02,.89-.22,1.56,.13,.01,.25,.01,.4,.04,1.4,.89,2.11,1.83,2.11,2.82v1.21l.45,1.07c0,.27-.35,.54-1.05,.8Zm2.18,3.42c-.05,.05-.08,.11-.08,.2-.4,.09-.75,.09-1.05,0-.2-.09-.28-.18-.23-.27,.05-.09,.17-.18,.38-.27,.3-.18,.6-.13,.9,.13,.1,.09,.13,.16,.08,.2Zm13.62-12.51c-.24-.03-.39-.19-.46-.46,.07-.07,.17-.1,.31-.1,.27,.07,.48,.27,.62,.62h.41c.2,0,.37,.1,.51,.31-.07,.07-.17,.1-.31,.1-.2-.07-.41-.2-.61-.41-.07,0-.22-.02-.46-.05Zm1.49,6.41h-.51c-.27,0-.41-.14-.41-.41-.07-.2,.1-.31,.51-.31h.31c.48,0,.72,.1,.72,.31,0,.27-.2,.41-.61,.41Zm14.62-11.66l-.3-.4,.3-.13v.54Zm-6.17-47.74v-.54l.6,.4-.6,.13Zm.88-126.63c0-.71,.45-1.21,1.36-1.48h1.05c.4-.09,.7,0,.9,.27,.2,.09,.15,.27-.15,.54l-1.51,1.34c-.3,.27-.7,.31-1.2,.13-.3-.18-.45-.45-.45-.8Zm3.49,155.32l.15,.54-.45-.13,.3-.4Zm.6,5.23l-.45-.13,.45-.4v.54Zm2.56-8.58l-.6-.13,.6-.13v.27Zm4.52,4.02v.27l-.3-.13,.3-.13Zm-.75-11.4l.3,.54c0,.18-.08,.31-.23,.4-.15,.09-.33,.09-.53,0-.2-.09-.3-.18-.3-.27,0-.45,.25-.67,.75-.67Zm-.96-137.62l-.15,.27-.3-.13,.45-.13Zm-3.28,5.89c.3-.09,.58-.11,.83-.07,.25,.05,.38,.16,.38,.33v.13c-.2,.45-.45,.72-.75,.8-.9,.27-1.66,.94-2.26,2.01-.4,.63-.85,.94-1.36,.94-.2,0-.6-.09-1.2-.27l-.9-.67-.15-.4c.7-.89,2.11-1.74,4.21-2.55l1.2-.27Z" style="fill: #fff;"></path><path d="M516.32,143.91l2.09-14.3h-24.63c.09,.04,.19,.1,.28,.17,.55,.41,.82,.92,.82,1.54-.14,.55-.41,.72-.82,.51-.14-.07-.34-.17-.61-.31-.27-.14-.55-.2-.82-.2-.41-.14-.62-.34-.62-.62,0-.2,.1-.41,.31-.62,.13-.06,.32-.23,.58-.48h-85.15c-2.67,4.48-5.72,9.58-8.56,14.3h117.15Zm-6.79-1.63l.72-.21c.34-.34,.72-.51,1.13-.51h.2c.2,0,.31,.03,.31,.1,.14,.14,.07,.2-.21,.2-.2,.14-.46,.2-.77,.2h-.67c-.27,.41-.48,.62-.62,.62s-.2-.07-.2-.2l.1-.2Zm-.36-4.51l-.15,.4-.15-.4h.3Zm-3.02-3.48l.31,.2-.31,.1v-.31Zm-8.71,.31l.41,.1c.2,.41,.1,.65-.31,.72-.07-.07-.17-.1-.31-.1-.14-.34-.07-.58,.21-.72Zm-3.18,.31v-.41c0-.2,.1-.37,.31-.51,.07,.07,.1,.17,.1,.31-.07,.2-.2,.41-.41,.61-.07,.07-.1,.14-.1,.21s-.03,.1-.1,.1c-.2,0-.14-.1,.21-.31Zm-4.2,1.95l.21-.1,.1,.2c-.07,.07-.17,.1-.31,.1v-.2Zm-7.69,.72l-.1,.31-.31-.2,.41-.1Zm-8.26-7.71v.27l-.6-.13,.6-.13Zm-4.82,3.08v.4l-.45-.13,.45-.27Zm-19.11,4.16v.54l-.3-.4,.3-.13Zm-3.61,2.28c0-.09,.1-.13,.3-.13,.4-.09,.75,0,1.05,.27-.2,.18-.35,.27-.45,.27h-.45c-.4,0-.55-.13-.45-.4Zm-33.56,2.68c.6,.09,.9,.4,.9,.94,0,.36-.15,.63-.45,.8-.4,.09-.75-.09-1.05-.54-.1-.18-.15-.45-.15-.8,.2-.45,.45-.58,.75-.4Zm-.9-6.97v.27l-.3-.13,.3-.13Zm-3.61-5.23c.4,0,.6,.18,.6,.54,0,.27-.1,.4-.3,.4-.4,0-.6-.18-.6-.54,0-.27,.1-.4,.3-.4Z" style="fill: #fff;"></path><path d="M358.52,321.93c.03,.1,.05,.2,.05,.32v.12c-.25,.5-.37,.79-.37,.87,1.49,0,2.6,.04,3.35,.12,.33,0,.5,.17,.5,.5l-.37,.12c-.33,.08-.7,.12-1.12,.12h-.87c-.5-.08-.99-.37-1.49-.87-.58,0-1.08-.04-1.49-.12-.17,0-.31-.04-.43-.12-.12-.08-.19-.21-.19-.37-.08-.23,0-.46,.22-.7h-28.74c.08,.1,.16,.19,.26,.32l.25,.12c0,.08-.02,.12-.06,.12-.04,0-.1-.08-.19-.25-.66,0-1.16-.04-1.49-.12-.23,0-.35-.08-.42-.2H187.75s-.07,.1-.13,.13c-.24,.05-.46,0-.66-.13h-10.98c-.4,0-.8-.04-1.19-.09-3.24,5.39-6.12,10.11-7.7,12.6,2.74,1.15,5.74,1.79,8.89,1.79h93.9c-.04-.11-.09-.22-.09-.36,0-.71,.45-1.21,1.36-1.48h1.05c.4-.09,.7,0,.9,.27,.2,.09,.15,.27-.15,.54l-1.16,1.03h94.95c.01-.39,.21-.59,.62-.59l.25,.5s-.01,.06-.02,.1h3.35c-.15-.16-.23-.36-.23-.59,0-.16,.04-.25,.12-.25,.58-.25,.99-.04,1.24,.62v.22h6.51c-2.78-4.5-5.74-9.29-8.85-14.3h-11.21Zm-180.98,8.98c-.1,.45-.4,.67-.9,.67-.2,0-.3-.09-.3-.27,0-.71,.25-1.16,.75-1.34,.2,0,.35,.05,.45,.13,.2,.27,.2,.54,0,.8Zm1.66,2.95l-.6-.27,.6-.13v.4Zm2.26-6.44l-.3-.13,.45-.13-.15,.27Zm1.05,6.44v-.4l.45,.27-.45,.13Zm8.43,2.15l-.45-.13c.3-.27,.5-.4,.6-.4l.3,.4-.45,.13Zm-.38-4.69c.05-.09,.17-.18,.38-.27l-.3,.4c-.1,0-.13-.04-.08-.13Zm1.88-1.07c-.2,.18-.35,.27-.45,.27l-.9,.4c-.9-1.43-1.86-2.55-2.86-3.35l-.45-.94c-.2-.54-.05-1.03,.45-1.48,.3-.45,.8-.71,1.51-.8,.3-.09,.7-.09,1.2,0,1.4,.89,2.11,1.83,2.11,2.82v1.21l.45,1.07c0,.27-.35,.54-1.05,.8Zm2.18,3.42c-.05,.05-.08,.11-.08,.2-.4,.09-.75,.09-1.05,0-.2-.09-.28-.18-.23-.27,.05-.09,.17-.18,.38-.27,.3-.18,.6-.13,.9,.13,.1,.09,.13,.16,.08,.2Zm20.09-5.16c-.2,.36-.45,.45-.75,.27-.1,0-.25-.09-.45-.27-.1-.09-.1-.18,0-.27,.1-.09,.25-.13,.45-.13,.1-.09,.2-.11,.3-.07,.1,.05,.2,.07,.3,.07,0,.09,.05,.16,.15,.2,.1,.05,.1,.11,0,.2Zm37.03,1.07c-.2,0-.3-.13-.3-.4,0-.36,.2-.54,.6-.54,.2,0,.3,.09,.3,.27,0,.45-.2,.67-.6,.67Zm10.54,5.9c-.3,0-.45-.04-.45-.13-.5-.27-.4-.49,.3-.67,.3,0,.45,.05,.45,.13,.3,.27,.2,.49-.3,.67Zm14.3-4.83v-.4l.3,.27-.3,.13Zm28.69-5.42c-.08-.08-.17-.12-.25-.12s-.12-.04-.12-.12c0-.25,.12-.16,.37,.25l.25,.12c0,.25-.08,.21-.25-.12Zm1.98,7.93c-.17-.08-.39-.16-.68-.25-.29-.08-.52-.2-.68-.37-.08-.25-.08-.5,0-.74,.25-.41,.5-.41,.74,0,.33,.25,.58,.62,.74,1.12,0,.08,.04,.15,.12,.19,.08,.04,.12,.1,.12,.19-.08,.17-.21,.12-.37-.12Zm4.15,2.29c-.12,.04-.27,.02-.43-.06-.08,0-.12-.08-.12-.25,.17-.41,.41-.54,.74-.37,.08,.08,.12,.21,.12,.37-.08,.17-.19,.27-.31,.31Zm7.5-6.63v-.37l.37,.12-.37,.25Zm2.6,.5l-.37-.25h.5l-.12,.25Zm4.46-2.11c-.17,.41-.54,.7-1.12,.87l-.12,.25c-.08,0-.12-.02-.12-.06s.08-.1,.25-.19c-.17-.33-.25-.62-.25-.87-.08-.33,0-.58,.25-.74,.25-.16,.58-.16,.99,0,.17,.08,.25,.21,.25,.37s-.04,.29-.12,.37Z" style="fill: #fff;"></path><path d="M418.86,148.89v1.21l.45,1.07c0,.27-.35,.54-1.05,.8-.2,.18-.35,.27-.45,.27l-.9,.4c-.9-1.43-1.86-2.55-2.86-3.35l-.4-.82h-17.23c-1.04,1.72-2.02,3.33-2.9,4.77h8.7s-.07-.11-.07-.19c0-.71,.25-1.16,.75-1.34,.2,0,.35,.05,.45,.13,.2,.27,.2,.54,0,.8-.07,.31-.24,.5-.49,.59h112.09l.7-4.77h-96.87c.03,.14,.08,.28,.08,.42Zm-11.59,.27l-.3-.13,.45-.13-.15,.27Zm9.18,4.02c-.1,0-.13-.04-.08-.13,.05-.09,.17-.18,.38-.27l-.3,.4Zm85.94-1.21l.3,.27-.3,.13v-.4Zm-24.53-1.61c.2,0,.3,.09,.3,.27,0,.45-.2,.67-.6,.67-.2,0-.3-.13-.3-.4,0-.36,.2-.54,.6-.54Zm-38.53-.4c.1-.09,.25-.13,.45-.13,.1-.09,.2-.11,.3-.07,.1,.05,.2,.07,.3,.07,0,.09,.05,.16,.15,.2,.1,.05,.1,.11,0,.2-.2,.36-.45,.45-.75,.27-.1,0-.25-.09-.45-.27-.1-.09-.1-.18,0-.27Z" style="fill: #fff;"></path><path d="M180.77,311.9s-.01,0-.02,0c-.86,1.44-1.74,2.91-2.61,4.36,.83,.26,1.71,.41,2.63,.41h185.69c-.98-1.57-1.97-3.16-2.97-4.77H180.77Zm5.49,1.72l-.3-.13,.3-.13v.27Zm38.08,2.28l-.3-.4,.3-.13v.54Zm58.7,.13h.3l-.15,.4-.15-.4Z" style="fill: #fff;"></path><path d="M718.77,153.24c2.15,0,3.9,1.75,3.9,3.9v150.85c0,2.15-1.75,3.9-3.9,3.9h-23.2c.03,.05,.06,.1,.06,.16v.4c-.04,.1-.11,.17-.15,.26,.01,.04,.03,.07,.03,.13,0,.27-.07,.51-.2,.72-.14,.2-.34,.34-.62,.41-.05,0-.09,0-.13,0-.05,.54-.24,.89-.58,1.04,0,.09-.07,.13-.22,.13s-.28-.04-.38-.13c-.3-.18-.4-.45-.3-.8,.1-.18,.35-.31,.75-.4,.08-.02,.12-.03,.19-.04-.05-.05-.09-.11-.15-.19,0-.34,.27-.72,.82-1.13,0,0,0,0,0,0,.01-.08,.02-.17,.04-.25,0-.13,.04-.21,.08-.29h-146.26v.09c-.2,.54-.55,.94-1.05,1.21,0,.72-.2,1.16-.6,1.34,0,.09-.07,.13-.22,.13s-.28-.04-.38-.13c-.3-.18-.4-.45-.3-.8,.1-.18,.35-.31,.75-.4,.4-.09,.65-.13,.75-.13,0-.47,.05-.89,.12-1.3h-52.59c-.05,.32-.24,.48-.58,.48-.2,0-.3-.13-.3-.4,0-.03,.01-.05,.01-.08h-58.11l.15,.35c0,.27-.35,.54-1.05,.8-.2,.18-.35,.27-.45,.27l-.9,.4c-.43-.68-.87-1.29-1.33-1.83h-67.28l3.05,4.77h53.65l-.59-.26,.6-.13v.39h3.31v-.39l.45,.27-.43,.13h10.95c-.19-.09-.26-.17-.21-.26s.17-.18,.38-.27c.3-.18,.6-.13,.9,.13,.1,.09,.13,.16,.08,.2-.05,.04-.07,.11-.07,.19h281.52c4.78,0,8.67-3.89,8.67-8.67V157.14c0-.1-.01-.19-.01-.29-.05,0-.12-.09-.22-.26l.21,.09c-.24-4.57-4.02-8.21-8.65-8.21h-200.51l-.83,4.77h201.34Zm-298.53,160.48c-.1,.45-.4,.67-.9,.67-.2,0-.3-.09-.3-.27,0-.71,.25-1.16,.75-1.34,.2,0,.35,.05,.45,.13,.2,.27,.2,.54,0,.8Zm13.1,.54c-.1,0-.13-.04-.08-.13,.05-.09,.17-.18,.38-.27l-.3,.4Zm85.94-.8v-.4l.3,.27-.3,.13Zm36.64,1.48l-.3-.13,.3-.13v.27Zm57.19-2.01l-.45-.13,.45-.27v.4Zm89.89,2.48l-.3-.13,.3-.13v.27Zm23.83-159.21s.12,.09,.23,.27l-.3-.13c0-.09,.02-.13,.07-.13Zm-22.53-3.88l.45,.27-.45,.13v-.4Zm-24.53-3.22c.3-.09,.65-.09,1.05,0v.4c-.3,.45-.65,.49-1.05,.13-.2,0-.3-.09-.3-.27s.1-.27,.3-.27Zm-4.79,3.88l-.45-.13,.45-.27v.4Z" style="fill: #fff;"></path><path d="M176.33,312.41c.04-.07,.12-.13,.21-.19,.33-.71,.66-1.41,.98-2.1-.4-.61-.64-1.34-.64-2.13v-84.47c-.37,.37-.6,.55-.67,.55l-.15-.27c-.1,0-.13-.04-.07-.13,.05-.09,.12-.13,.22-.13,.1-.09,.28-.15,.53-.2,.06-.01,.1-.03,.14-.04v-66.16c0-2.15,1.75-3.9,3.9-3.9h48.1c.56-.35,.9-.54,.99-.54l.3,.27c-.2,.18-.35,.27-.45,.27,0,0,0,0,0,0h150.01s-.03-.07-.03-.11v-.1c0-.07,.07-.17,.21-.31,.2-.07,.44-.03,.72,.1,.19,.05,.29,.21,.35,.42h11.02c.65-1.44,1.38-3.05,2.16-4.77h-54.82l-2.7,.76c-.2,.06-.39,.14-.57,.25-1.25,.75-2.75,.17-3.31-1.01h-30.2c-.51,.36-.96,.86-1.35,1.55-.4,.63-.85,.94-1.36,.94-.2,0-.6-.09-1.2-.27l-.9-.67-.15-.4c.31-.39,.77-.77,1.35-1.15h-84.43v.34c-.3,.45-.65,.49-1.05,.13-.2,0-.3-.09-.3-.27,0-.1,.04-.16,.1-.21h-32.49c-4.78,0-8.67,3.89-8.67,8.67v64.7c.21-.14,.47-.21,.85-.14l1.35,.8c.1,0,.25,.09,.45,.27-.2,.45-.55,.58-1.05,.4-.6,0-1.11-.18-1.51-.54-.04-.04-.07-.09-.1-.13v85.49c0,.08,0,.16,.01,.24,.14,.04,.27,.12,.37,.27-.07,.07-.17,.1-.31,.1-.02,0-.03-.02-.05-.02,.17,2.49,1.39,4.7,3.22,6.17,.32-.68,.63-1.36,.94-2.03,0-.1,0-.2,.03-.32Zm165.44-161.12c.07-.07,.17-.07,.31,0,.14,.07,.24,.17,.31,.31,.07,.07,.08,.12,.05,.15-.04,.03-.05,.09-.05,.15-.07,.14-.17,.26-.31,.36-.14,.1-.27,.15-.41,.15s-.24-.03-.31-.1c-.07,0-.17-.1-.31-.31-.14-.34,.1-.58,.72-.72Zm-62.84-1.67l-.15,.27-.3-.13,.45-.13Zm-40.94,2.01l.45,.27-.45,.13v-.4Zm-54.16-.19v.4l-.45-.27,.45-.13Zm-10.28,109.41v.4l-.45-.13,.45-.27Zm.21,18.43l-.45-.27h.6l-.15,.27Zm.09-50.48l.15-.27,.15,.27h-.3Z" style="fill: #fff;"></path></svg> 