<?xml version="1.0" encoding="UTF-8"?> <svg xmlns="http://www.w3.org/2000/svg" id="Layer_1" data-name="Layer 1" viewBox="0 0 900 450"><path d="M288.67,168.97c-4.55-8.26-9.99-14.92-16.32-20-.94-.76-1.89-1.49-2.84-2.17-4.02-.01-8.84-.27-10.99-.49-3.42-.36-6.75-1.33-10.04-2.93-1.8-.89-3.27-2.05-4.39-3.47-1.13-1.41-1.8-2.93-2.02-4.52-.01-.07-.01-.15-.03-.21-2.25-.39-4.32-.59-6.18-.59h-57.55c1.89,2.33,3.85,4.49,5.92,6.49,1.71,1.68,3.54,3.22,5.52,4.63,1.97,1.42,3.89,2.3,5.78,2.63,1.02,.16,2.69,.29,5,.37,2.32,.08,5.02,.12,8.1,.12h20.55c11.81,0,20.94,.17,27.36,.51,6.42,.33,11.12,2.29,14.13,5.88,2.99,3.58,4.76,9.45,5.26,17.62,.52,8.16,.68,20.08,.52,35.74,0,4.84-.26,9.59-.78,14.25-.51,4.67-1.79,8.79-3.85,12.38-2.05,3.58-5.14,6.45-9.24,8.62-4.11,2.17-9.77,3.26-16.96,3.26h-3.35c-.86,0-1.71,.08-2.57,.24,0-1.33,.04-3.7,.14-7.11,.08-3.42,.12-7.5,.12-12.26v-78.35c-2.91,1.99-6.12,4.16-9.63,6.49-3.51,2.34-6.72,4.51-9.63,6.5l-10.02,7.01c1.02,.16,1.97,1,2.83,2.5,.85,1.49,1.57,3.46,2.19,5.86,.59,2.42,1.07,5.17,1.41,8.26,.34,3.08,.6,6.29,.77,9.63,.18,2.17,.26,6.45,.26,12.87v49.62c0,9.49-.04,18.49-.12,26.99-.1,8.5-.14,15.88-.14,22.12v12.13c0,2.99-.6,5.45-1.79,7.37-1.2,1.91-2.71,3.38-4.5,4.37-1.8,1-3.81,1.62-6.04,1.87-2.23,.25-4.37,.29-6.42,.13-4.62-.35-8.83-1.8-12.59-4.37-3.77-2.59-6.68-5.68-8.73-9.25-2.06-3.59-3.18-7.34-3.35-11.25-.18-3.91,.94-7.46,3.35-10.62-3.61,1.5-6.64,3.96-9.13,7.38-2.49,3.42-4.15,7.07-5,11-.86,3.91-.7,7.79,.51,11.62,1.2,3.83,3.59,6.91,7.2,9.25,5.14,3.32,10.82,4.95,17.08,4.87,6.25-.08,12.37-1.5,18.37-4.24,6-2.75,11.6-6.63,16.82-11.63,5.23-5,9.21-10.74,11.96-17.24,1.02-2.33,1.87-5.33,2.57-9,.67-3.66,1.02-7.91,1.02-12.74v-34.99c.85,.16,1.75,.2,2.69,.12,.94-.08,2.01-.12,3.21-.12,8.57-.17,16.02-1.79,22.36-4.88,6.33-3.08,11.56-7.09,15.68-11.99,4.1-4.92,7.19-10.5,9.24-16.75,2.06-6.25,3.09-12.62,3.09-19.12,0-12.01-2.27-22.12-6.81-30.37Z" style="fill: #fff;"></path><path d="M363.05,299.32c-.14-3.72-.26-7.45-.38-11.17-.14-3.72-.26-7.17-.38-10.33-.14-3.16-.23-5.9-.29-8.19-.07-2.3-.1-3.82-.1-4.56,0-7.21-.38-12.66-1.15-16.38s-1.89-6.42-3.35-8.1c-1.48-1.68-3.25-2.61-5.36-2.79s-4.5-.28-7.17-.28c-1.15,0-2.84,.98-5.07,2.98-2.24,1.98-4.54,4.31-6.89,6.98-2.36,2.66-4.56,5.27-6.6,7.82-2.05,2.54-3.51,4.37-4.4,5.49v-25.13c0-11.79-.16-31.91-.48-39.24-.33-7.31-1.24-20.3-2.77-24.52-1.53-4.21-3.89-7.17-7.08-8.84-3.2-1.68-7.6-2.7-13.2-3.07,3.87,4.21,6.18,10.04,7.08,14.43,.89,4.41,1.34,17.86,1.34,25.92v121.7c0,.12,.79,1.26,2.39,3.44,1.59,2.17,3.31,4.56,5.17,7.17,1.84,2.61,4.36,6.01,7.56,10.24v-77.81c2.92-3.72,5.74-7.02,8.42-9.87,2.3-2.49,4.55-4.79,6.79-6.89,2.23-2.11,3.92-3.11,5.07-2.98,1.27,0,2.42,1.91,3.44,5.77,1.01,3.84,1.82,8.78,2.39,14.8,.57,6.01,.82,12.75,.77,20.2-.07,7.45-.61,14.76-1.63,21.96h52.42l5.78-4.64,5.12-4.11h-47.45Z" style="fill: #fff;"></path><path d="M450.12,240.78c-4.28,1.54-8.9,3.26-13.87,5.12-4.97,1.86-9.99,3.96-15.02,6.33-5.04,2.35-9.51,5.21-13.39,8.56-3.89,3.35-6.93,7.26-9.09,11.73-2.17,4.47-2.94,9.8-2.3,16.01,.38,3.47,1.46,6.57,3.25,9.31,.34,.52,.7,1.01,1.09,1.49,1.26,1.57,2.79,2.95,4.58,4.11,.53,.36,1.11,.69,1.69,1.01,3.12,1.68,6.91,2.79,11.38,3.35,4.46,.56,9.5,.4,15.11-.47,2.68-.51,5.58-1.4,8.71-2.7,3.12-1.3,5.99-2.95,8.61-4.93,2.61-1.99,4.78-4.25,6.51-6.79,1.72-2.55,2.58-5.3,2.58-8.28l.19-48.77c-2.43,1.73-5.78,3.38-10.04,4.93Zm-4.69,49.98c0,1.61-.42,3.1-1.24,4.47-.83,1.36-1.91,2.63-3.25,3.82-1.34,1.17-2.84,2.17-4.5,2.98-1.67,.8-3.32,1.45-4.97,1.95-3.96,1.12-7.24,1.49-9.85,1.12-2.62-.37-4.69-1.25-6.22-2.61-1.53-1.37-2.68-3.14-3.44-5.3-.77-2.18-1.41-4.51-1.91-6.98-.9-4.72-.62-9.65,.86-14.8,1.46-5.16,3.83-9.68,7.08-13.59,3.25-3.91,7.23-6.83,11.96-8.75,4.71-1.93,9.88-2.09,15.5-.47v38.16Z" style="fill: #fff;"></path><path d="M528.71,299.32v-35.18c0-7.21-.38-12.63-1.15-16.29-.77-3.67-1.85-6.28-3.25-7.82-1.41-1.56-3.16-2.39-5.26-2.51-2.1-.13-4.56-.19-7.37-.19-1.02,0-2.46,.77-4.3,2.33-1.85,1.54-3.83,3.4-5.93,5.58-2.1,2.17-4.14,4.43-6.12,6.79-1.98,2.35-3.61,4.28-4.88,5.77v-20.48c-2.17,1.49-4.43,3.03-6.79,4.65-2.36,1.61-4.62,3.1-6.79,4.47-2.42,1.61-4.78,3.16-7.08,4.65,1.02,.12,1.91,1.08,2.68,2.89,.77,1.79,1.37,4.03,1.82,6.7,.45,2.66,.77,5.58,.96,8.75,.19,3.16,.29,6.1,.29,8.84v30.99l14.92,17.5v-64.86c1.15-1.74,2.61-3.72,4.4-5.96,1.79-2.23,3.61-4.32,5.45-6.24,1.85-1.93,3.54-3.44,5.07-4.56,1.53-1.12,2.68-1.37,3.44-.74,1.02,.74,1.85,2.35,2.49,4.84,.64,2.47,1.15,5.52,1.53,9.12,.38,3.59,.67,7.59,.86,12.01,.19,4.4,.31,8.87,.38,13.4,.07,4.52,.1,8.89,.1,13.12v11.17h51.08l6.6-5.29,4.31-3.46h-47.45Z" style="fill: #fff;"></path><path d="M629.28,276.22c-.05-3.41-.1-6.92-.1-10.51,0-8.32-.05-17.82-.19-28.48-1.78,1.12-3.92,2.17-6.41,3.17-2.49,.99-5.26,2.05-8.32,3.16-5.35,1.87-11.15,3.94-17.41,6.24-6.24,2.28-11.96,5.14-17.12,8.55-5.17,3.41-9.31,7.57-12.44,12.48-3.11,4.9-4.3,10.89-3.53,17.97,.49,4.19,1.9,7.65,4.23,10.42,.7,.85,1.49,1.62,2.36,2.33,.5,.39,.99,.76,1.51,1.12,3.41,2.41,7.32,4.02,11.7,4.83,5.05,.92,10.27,.92,15.69,0,5.43-.93,10.05-2.51,13.87-4.75l1.34,5.96c.29,1.96,.47,5.87,.6,11.61,4.04,.22,8.11,.68,12.1,1.1,.69,.1,1.34,.13,2.03,.23,.05-8.01,.09-13.98,.1-15.45,.06-4.28,.1-8.1,.1-11.45v-9.31c0-2.75-.03-5.82-.1-9.22Zm-15.02,14.62c0,3.21-1.43,5.98-4.3,8.28-2.87,2.29-6.08,3.94-9.67,4.94-4.21,1.11-7.65,1.48-10.33,1.11-2.67-.37-4.8-1.25-6.4-2.61-1.59-1.37-2.81-3.14-3.64-5.3-.83-2.18-1.49-4.44-2.01-6.79-.89-4.73-.59-9.56,.87-14.52,1.47-4.97,3.86-9.35,7.17-13.12,3.33-3.79,7.44-6.7,12.35-8.76,4.92-2.05,10.23-2.38,15.97-1.02v37.79Zm9.75,57.77l-1.66-.29c-2.03-.26-.87-.11-2.96-.37-1.02-.12-1.98-.31-2.96-.43-.37-.04-.82-.14-1.26-.2-.13,11.89-.49,22.05-1.1,24.67-.63,2.6-1.59,5.09-2.87,7.44-1.27,2.36-3.02,4.44-5.26,6.23-2.23,1.81-5,3.17-8.32,4.1-3.32,.92-7.27,1.21-11.87,.84-5.6-.5-10.61-1.77-15.02-3.82-4.4-2.06-8.06-4.65-11-7.82-2.91-3.16-5.02-6.7-6.31-10.61-1.27-3.91-1.59-7.91-.95-12.01-3.95,2.37-6.7,5.19-8.24,8.47-1.53,3.3-2.06,6.61-1.62,9.96,.45,3.35,1.81,6.58,4.11,9.68,2.3,3.12,5.3,5.59,8.99,7.45,6.77,3.35,13.56,5.44,20.38,6.23,6.83,.81,13.29,.56,19.42-.74,6.13-1.3,11.71-3.44,16.74-6.42,5.05-2.98,9.09-6.64,12.16-10.98,1.28-1.73,2.24-4.31,2.86-7.73,.65-3.4,1.12-7.17,1.44-11.27,.1-1.14,.18-5.56,.24-11.46-.75-.15-1.51-.3-2.25-.43l-2.69-.5Z" style="fill: #fff;"></path><g><path d="M499.92,178.32c-.38-6.5-2.57-12.52-6.53-18.06-3.96-5.52-9.06-10.18-15.29-13.96-5.6-3.48-10.62-6.25-15.06-8.3-4.43-2.05-8.79-3.82-13.06-5.33-4.29-1.52-8.76-2.99-13.43-4.44-4.66-1.44-9.96-3.28-15.87-5.56-5.3-2.11-8.87-4.92-10.74-8.4-1.87-3.48-2.57-7.27-2.1-11.35,.46-4.1,1.91-8.14,4.32-12.15,2.42-4.02,5.29-7.54,8.64-10.57,3.35-3.02,6.93-5.33,10.74-6.93,3.81-1.58,7.27-1.85,10.39-.78,1.24,.31,2.97,1.74,5.14,4.31,2.17,2.58,4.36,5.42,6.53,8.52,2.19,3.1,4.21,5.94,6.08,8.51,1.86,2.58,3.1,4.1,3.73,4.55,2.34,1.52,4.91,1.93,7.71,1.25,2.8-.68,5.37-1.7,7.69-3.07,2.8-1.66,5.6-3.78,8.4-6.36-1.56-.6-4.09-2.3-7.58-5.11-3.5-2.81-7.04-5.76-10.62-8.86-3.58-3.11-6.76-5.92-9.57-8.42-2.8-2.49-4.29-3.74-4.44-3.74-.93-.16-2.92,0-5.96,.45s-6.57,1.33-10.62,2.61c-4.05,1.29-8.4,3.07-13.08,5.34-4.66,2.26-9.02,5.03-13.06,8.28-4.05,3.26-7.63,7.13-10.74,11.58-3.12,4.47-5.22,9.65-6.3,15.57-1.41,8.18-.7,14.68,2.09,19.53,2.8,4.84,6.78,8.86,11.92,12.03,5.14,3.18,10.97,5.84,17.51,7.95,6.53,2.13,12.76,4.47,18.68,7.05,4.81,1.97,9.61,3.98,14.35,6.01,4.74,2.05,9.1,4.24,13.08,6.59,3.96,2.34,7.46,4.92,10.51,7.71,3.03,2.81,5.25,6.02,6.64,9.65,1.24,3.03,1.91,5.8,2,8.3,.07,2.5-.23,4.69-.94,6.58-.7,1.9-1.71,3.56-3.03,5-1.33,1.45-2.76,2.7-4.32,3.75-3.58,2.42-8.09,4.1-13.54,5-11.36,.45-21.87,.68-31.51,.68-4.05,0-23.51-.04-27.62-.11-4.13-.08-7.94-.23-11.44-.47-1.72-.11-3.33-.24-4.85-.39,0,0-.04,0-.11-.01-1.15-.11-2.24-.23-3.28-.35-.2-.03-.42-.07-.66-.09-2.23-.36-5.19-1-8.34-2.13-7.84-2.78-16.86-8.55-18.86-20.48-.36-2.06-.49-4.29-.37-6.74,1.61-33.25,30.93-20.28,31.83-20.04-.87-.57-32.98-24.55-46.9,9.19-12.86,34.02,11.87,50.92,39.81,50.92h80.21c.93-.47,1.86-.92,2.8-1.37,2.01-1.05,3.5-1.97,4.43-2.73,9.18-6.66,15.67-13.47,19.5-20.44,3.8-6.97,5.52-13.71,5.12-20.22Z" style="fill: #fff;"></path><path d="M569.08,101.03c-.25-2.31-1.05-4.56-2.43-6.77-1.39-2.19-3.48-3.91-6.26-5.16,.92,2.71,1.27,5.5,1.04,8.38-.23,2.87-.98,5.61-2.27,8.2-2.31,5.41-6.03,9.39-11.12,11.93-5.1,2.54-10.95,3.47-17.56,2.79,3.02,1.01,6.15,1.58,9.39,1.69,3.95,.23,7.94-.28,12-1.53,4.06-1.24,7.89-3.38,11.48-6.42,2.2-1.79,3.76-3.86,4.69-6.17s1.27-4.63,1.05-6.94Zm-6.35,26.64l-6.78,3.38c-1.97,.9-4.55,1.76-7.73,2.54-3.18,.78-6.34,1.13-9.47,1.01-3.13-.11-6.03-.98-8.69-2.62-2.68-1.64-4.81-5.16-6.44-10.57-.34,5.41,.37,9.79,2.17,13.11,1.79,3.32,5.64,6.12,11.56,8.38,2.66,.56,6.2,0,10.6-1.7,4.4-1.69,8.64-4.23,12.7-7.61,3.35-2.59,6.37-5.86,9.03-9.81l-6.96,3.9Zm-.77,87.27c1.41-1.91,2.65-4.03,3.7-6.34s1.59-4.6,1.59-6.85l.34-43.3c-1.75,.12-3.59,0-5.53-.33-1.94-.35-4.51-.96-7.72-1.86-3.21-.9-7.26-2.26-12.12-4.07-4.76-1.91-9.27-2.85-13.56-2.79-4.29,.07-7.97,.93-11.04,2.63-3.07,1.69-5.36,4.08-6.86,7.18-1.52,3.11-1.86,6.79-1.05,11.09,1.16-2.26,2.56-4.29,4.18-6.09,1.27-1.58,2.83-3.04,4.69-4.4,1.86-1.36,3.94-2.14,6.26-2.37,4.17-.45,8.43,.08,12.78,1.61,4.35,1.52,8.38,3.4,12.08,5.66-4.99,1.69-10.17,3.63-15.55,5.84-5.4,2.19-10.26,4.88-14.61,8.03-4.35,3.15-7.79,6.9-10.35,11.25-2.56,4.33-3.47,9.49-2.77,15.48,.68,6.32,4.09,11.13,10.17,14.47,6.08,3.32,14.57,4.19,25.46,2.62,2.56-.45,4.78-1.08,6.7-1.86,1.91-.78,3.51-1.64,4.78-2.54v5.08h42.71l3.95-3.24,5.96-4.88h-44.17Zm-8.45-10.82c0,3.5-1.34,6.65-4,9.47-2.66,2.82-5.85,4.73-9.55,5.76-3.83,1.01-6.98,1.38-9.48,1.09-2.49-.28-4.48-1.06-5.99-2.37-1.52-1.29-2.64-2.93-3.39-4.91-.77-1.97-1.37-4.03-1.83-6.17-.81-4.28-.52-8.74,.87-13.36,1.38-4.63,3.65-8.71,6.78-12.26,3.13-3.55,6.98-6.18,11.56-7.87,4.58-1.69,9.58-1.79,15.03-.33v30.95Z" style="fill: #fff;"></path><path d="M625.83,215.12c-6.41,0-9.02-.09-11.92-.25-2.9-.17-5.66-.55-8.25-1.1-2.61-.56-4.91-1.36-6.87-2.37-1.97-1.02-3.13-2.42-3.47-4.23-.59-2.82-.23-5.76,1.04-8.8,1.27-3.04,3.24-5.89,5.92-8.54,2.66-2.65,5.85-5.01,9.55-7.1,3.72-2.09,7.68-3.64,11.92-4.65,4.22-1.02,8.6-1.36,13.12-1.02,4.52,.35,8.87,1.58,13.04,3.72,.12,.12-.26-.81-1.12-2.79-.87-1.97-1.83-4.08-2.87-6.34-1.28-2.82-2.73-5.97-4.35-9.47-3.02-1.91-6.41-2.97-10.18-3.12-3.76-.17-7.58,.45-11.47,1.86-3.88,1.41-7.63,3.48-11.22,6.25-3.59,2.77-6.72,6.06-9.39,9.89-2.66,3.84-4.69,8.15-6.08,12.95-1.39,4.79-1.79,9.95-1.22,15.48,.34,2.47,.9,4.79,1.65,6.93,.31,.89,.72,1.74,1.23,2.54,.68,1.12,1.54,2.13,2.6,3.04,.77,.68,1.65,1.29,2.68,1.83,1.34,.74,2.91,1.37,4.7,1.89,3.13,.9,7.13,1.36,12,1.36h42.08l13.83-7.95h-46.94Z" style="fill: #fff;"></path></g><g><path d="M153.95,92.44c.8,.66,1.56,1.45,2.3,2.36,.74,.91,1.34,1.87,1.79,2.86,.45,1,.75,1.99,.89,2.99,.14,1,.04,1.94-.3,2.82-.17,.44-.51,.97-1.02,1.58-.51,.61-1.15,1.2-1.92,1.78-.77,.58-1.65,1.11-2.64,1.58-.99,.47-2.12,.76-3.37,.87-3.01,.33-5.73,.1-8.14-.71-2.42-.8-4.51-2.1-6.27-3.9-1.76-1.8-3.2-4.02-4.31-6.68-1.11-2.65-1.92-5.67-2.43-9.04-.63-4.42-.82-8.34-.6-11.74,.23-3.4,.74-6.39,1.53-8.96,.8-2.57,1.82-4.78,3.07-6.64,1.25-1.85,2.59-3.41,4.01-4.69,3.3-2.93,7.25-4.81,11.85-5.64,1.76,1.16,3.44,2.21,5.03,3.15,1.36,.83,2.74,1.63,4.14,2.41,1.39,.77,2.49,1.3,3.28,1.58-.97,.5-1.99,.89-3.07,1.16-.91,.22-1.93,.33-3.07,.33s-2.3-.3-3.5-.91c-.34-.17-.75-.44-1.24-.83-.48-.39-.99-.8-1.53-1.24-.54-.44-1.11-.84-1.7-1.2-.6-.36-1.18-.57-1.75-.62-1.53-.22-2.89,.22-4.05,1.33-1.17,1.11-2.15,2.64-2.94,4.6-.8,1.96-1.41,4.26-1.83,6.88-.43,2.63-.71,5.34-.85,8.13-.14,2.79-.14,5.56,0,8.29,.14,2.74,.41,5.24,.81,7.51,.4,2.21,.92,4.44,1.58,6.68,.65,2.24,1.48,4.15,2.47,5.72,.99,1.58,2.22,2.68,3.67,3.32,1.45,.64,3.2,.43,5.24-.62,1.02-.55,1.96-1.23,2.81-2.03,.85-.8,1.52-1.77,2-2.9,.48-1.13,.74-2.49,.77-4.06,.03-1.58-.21-3.41-.72-5.52Z" style="fill: #fff;"></path><path d="M213.55,105.46l-4.86,3.9h-23.36c.45-3.21,.7-6.47,.72-9.79,.03-3.32-.09-6.32-.34-9-.26-2.68-.61-4.88-1.07-6.59-.46-1.71-.97-2.57-1.53-2.57-.51-.05-1.27,.39-2.26,1.33-.99,.94-2,1.96-3.03,3.07-1.19,1.27-2.44,2.74-3.75,4.4v39.31c-1.42-1.88-2.54-3.4-3.37-4.56-.82-1.16-1.59-2.23-2.3-3.19-.71-.97-1.07-1.48-1.07-1.53v-54.16c0-3.59-.2-6.37-.6-8.34-.4-1.96-.82-3.41-1.28-4.35-.57-1.11-1.19-1.8-1.88-2.07,2.5,.17,4.46,.62,5.88,1.37,1.42,.75,2.47,2.06,3.15,3.94,.68,1.88,1.09,4.45,1.24,7.71,.14,3.26,.21,7.52,.21,12.77v11.2c.4-.5,1.05-1.31,1.96-2.45,.91-1.13,1.89-2.29,2.94-3.48,1.05-1.19,2.07-2.23,3.07-3.11,.99-.88,1.75-1.33,2.26-1.33,1.19,0,2.26,.04,3.2,.12s1.73,.5,2.39,1.24c.65,.75,1.15,1.95,1.49,3.61,.34,1.66,.51,4.09,.51,7.3,0,.33,.01,1.01,.04,2.03,.03,1.02,.07,2.24,.13,3.65,.09,2.27,.18,4.87,.27,7.79l1.9,1.79h19.31Z" style="fill: #fff;"></path><path d="M259.71,105.38l-4.86,3.98h-24.13v-9.79c-.63,.72-1.42,1.63-2.39,2.74-.97,1.11-1.95,2.18-2.94,3.23-.99,1.05-1.93,1.95-2.81,2.7-.88,.75-1.55,1.12-2,1.12-1.25,0-2.34-.05-3.28-.17-.94-.11-1.73-.54-2.39-1.29-.65-.75-1.15-1.96-1.49-3.65-.34-1.69-.54-4.13-.6-7.34v-19.24c1.36,1.44,2.59,2.74,3.67,3.9,.97,1,1.82,1.89,2.56,2.7,.74,.8,1.11,1.23,1.11,1.29,0,2.16-.04,4.38-.13,6.68-.09,2.3-.14,4.41-.17,6.35-.03,1.94,.01,3.61,.13,5.02,.11,1.41,.34,2.34,.68,2.78,.28,.33,.85,.21,1.7-.37s1.79-1.37,2.81-2.36c1.02-1,2.03-2.06,3.03-3.19,.99-1.13,1.83-2.11,2.51-2.94v-19.82l6.74,7.38v20.32h22.25Z" style="fill: #fff;"></path><path d="M283.68,102.39c0,1.44,.03,3.1,.09,4.98,.06,1.88,.04,17.74-.04,19.53-.09,1.8-.24,3.45-.47,4.98-.23,1.52-.63,2.64-1.19,3.36-1.36,1.88-3.14,3.48-5.33,4.81-2.19,1.33-4.63,2.27-7.33,2.82-2.7,.55-5.56,.66-8.57,.33-3.01-.33-5.97-1.24-8.87-2.74-1.59-.83-2.89-1.91-3.88-3.23-1-1.33-1.59-2.74-1.79-4.23-.2-1.49,.04-2.96,.72-4.4,.68-1.44,1.88-2.68,3.58-3.73-.29,1.82-.14,3.59,.43,5.31,.57,1.71,1.49,3.26,2.77,4.64,1.28,1.38,2.88,2.53,4.82,3.44,1.93,.91,4.12,1.45,6.56,1.62,2.67,.22,4.82,.25,6.44,.08,1.62-.17,2.87-.54,3.75-1.12,.88-.58,1.48-1.34,1.79-2.28,.31-.94,.45-2.06,.43-3.36-.03-1.3-.11-2.79-.26-4.48-.14-1.69-.21-17.54-.21-19.53v-9.54c-.57,.72-1.34,1.63-2.3,2.74-.97,1.11-1.93,2.17-2.9,3.19-.97,1.02-1.89,1.91-2.77,2.65-.88,.75-1.55,1.12-2,1.12-1.25,0-2.34-.05-3.28-.17-.94-.11-1.72-.54-2.34-1.29-.63-.75-1.11-1.95-1.45-3.61-.34-1.66-.51-4.06-.51-7.22v-2.7c0-1.35,.01-2.94,.04-4.77,.03-1.82,.04-3.76,.04-5.81v-5.64c1.31,1.44,2.5,2.71,3.58,3.82,.85,.94,1.65,1.81,2.39,2.61,.74,.8,1.11,1.23,1.11,1.29,0,2.16-.04,4.35-.13,6.59-.09,2.24-.14,4.31-.17,6.22-.03,1.91,.01,3.54,.13,4.89,.11,1.36,.37,2.25,.77,2.7,.28,.33,.84,.22,1.66-.33,.82-.55,1.72-1.31,2.68-2.28,.97-.97,1.95-2.02,2.94-3.15,.99-1.13,1.83-2.09,2.51-2.86v-19.91l6.56,7.63v17Z" style="fill: #fff;"></path><path d="M326.72,105.46l-4.69,3.9h-19.27c-1.65-.44-3.18-1.08-4.6-1.91-1.19-.66-2.39-1.55-3.58-2.65-1.19-1.11-2.08-2.49-2.64-4.15-.51-1.66-.8-3.44-.85-5.35-.06-1.91,.13-3.8,.55-5.68,.43-1.88,1.12-3.66,2.09-5.35,.97-1.69,2.22-3.11,3.75-4.27,.97-.72,1.95-1.27,2.94-1.66,.99-.39,1.92-.68,2.77-.87,.85-.19,1.55-.3,2.09-.33,.54-.03,.84-.04,.89-.04,2.67,0,4.89,.5,6.65,1.49,1.76,1,3.11,2.27,4.05,3.82,.94,1.55,1.49,3.25,1.66,5.1,.17,1.85-.01,3.62-.55,5.31-.54,1.69-1.42,3.19-2.64,4.52-1.22,1.33-2.77,2.21-4.65,2.65-2.5,.66-4.65,.69-6.44,.08-1.79-.61-3.27-1.44-4.43-2.49-1.17-1.05-2.08-2.16-2.73-3.32-.65-1.16-1.07-1.96-1.24-2.41-.85,1.39-1.49,2.85-1.92,4.38-.43,1.53-.5,3.07-.21,4.63,.17,.89,.74,1.63,1.71,2.21,.97,.58,2.12,1.06,3.45,1.42,1.33,.36,2.74,.61,4.22,.75,1.48,.14,2.78,.21,3.92,.21h19.69Zm-28.13-34.84c1.76,.11,3.45-.17,5.07-.83s3.08-1.71,4.39-3.15c0-1.05,.2-2.05,.6-2.99,.62-1.11,1.56-2.07,2.81-2.9-.34,1.38-.29,2.82,.17,4.31,0,.28,.11,.61,.34,1,.34,1.6,1.01,3.04,2,4.31,.99,1.27,2.17,2.32,3.54,3.15,1.36,.83,2.83,1.41,4.39,1.74,1.56,.33,3.11,.36,4.65,.08h.68l.17,.08c-.74,.22-1.85,.46-3.33,.71s-3.34,.21-5.58-.12c-2.25-.33-4.36-1.11-6.35-2.32-1.19-.83-2.19-1.77-2.98-2.82-.4-.77-.68-1.58-.85-2.41-.63,.83-1.36,1.6-2.22,2.32-1.42,1.49-3.13,2.63-5.12,3.4-1.19,.55-2.36,.76-3.5,.62-1.14-.14-2.12-.54-2.94-1.2-.82-.66-1.52-1.55-2.09-2.65-.51-1.11-.68-2.43-.51-3.98,.74,1.05,1.73,1.87,2.98,2.45,1.25,.58,2.47,.98,3.67,1.2Zm7.42,13.35c-2.1,.44-4.06,1.41-5.88,2.9-.57,.44-1.08,.91-1.54,1.41-.46,.5-.91,1.05-1.36,1.66,.06,1.22,.5,2.28,1.32,3.19,.82,.91,1.89,1.63,3.2,2.16,1.31,.53,2.74,.87,4.3,1.04,1.56,.17,3.07,.12,4.52-.12,1.45-.25,2.74-.69,3.88-1.33,1.14-.63,1.96-1.51,2.47-2.61,.51-1.05,.55-2.14,.13-3.28-.43-1.13-1.17-2.13-2.22-2.99-1.05-.86-2.34-1.51-3.88-1.95-1.53-.44-3.18-.47-4.95-.08Zm-2.28,33.36h0c-.82-.85-.81-2.17,.02-3h0c.87-.87,2.3-.88,3.17-.02h0c.86,.84,.87,2.2,.02,3.05h0c-.88,.88-2.35,.87-3.22-.02Z" style="fill: #fff;"></path><path d="M375.83,105.46l-4.86,3.9h-22.76v-4.98c0-1.88-.01-3.83-.04-5.85-.03-2.02-.09-4.01-.17-5.97-.09-1.96-.21-3.75-.38-5.35-.17-1.6-.4-2.96-.68-4.06-.29-1.11-.65-1.82-1.11-2.16-.34-.28-.85-.17-1.53,.33-.68,.5-1.44,1.18-2.26,2.03-.82,.86-1.63,1.78-2.43,2.78-.8,1-1.45,1.88-1.96,2.65v34.32l-6.65-8.33v-18.69c0-1.22-.04-2.53-.13-3.94-.09-1.41-.23-2.71-.43-3.9-.2-1.19-.47-2.18-.81-2.99-.34-.8-.74-1.23-1.19-1.29,1.02-.66,2.07-1.35,3.15-2.07,.97-.61,1.97-1.27,3.03-1.99,1.05-.72,2.06-1.41,3.03-2.07v9.12c.57-.66,1.29-1.52,2.17-2.57,.88-1.05,1.79-2.06,2.73-3.03,.94-.97,1.82-1.8,2.64-2.49,.82-.69,1.46-1.04,1.92-1.04,1.25,0,2.34,.03,3.28,.08,.94,.06,1.72,.43,2.34,1.12,.62,.69,1.11,1.85,1.45,3.48,.34,1.63,.51,4.05,.51,7.26v15.68h21.14Z" style="fill: #fff;"></path></g><g><path d="M759.59,352.38c16.92-3.78,33.84-9.15,48.66-15.11-5.93,2.38-11.92,4.62-17.98,6.64,9.07-3.09,16.71-5.75,25.87-9.19-1.27,.79-3.41,1.68-5.38,2.54-1.98,.83-3.79,1.6-4.4,2.17-5.48,2.1-11.04,4.03-16.63,5.77-5.6,1.72-11.25,3.26-16.91,4.6l-4.24,.96-4.25,.87c-2.82,.53-5.7,1.08-8.4,1.42-5.48,.74-10.99,.96-16.46,.77,4.35-.66,7.79-.83,10.99-.79,1.59-.06,3.11-.02,4.61-.1,1.51-.12,2.95-.2,4.51-.55Z" style="fill: #fff;"></path><path d="M606.55,332.49c-1.36-.09-2.73-.08-4.09-.09-1.36-.02-2.71-.04-4.03-.06,1.34-.03,2.69-.03,4.04,0,1.36,.01,2.72,.04,4.08,.16Z" style="fill: #fff;"></path><path d="M729.85,357.29c-1.41-.03-2.83-.07-4.27-.15-10.7-1.37-21.39-4.01-32.13-7.19,11.73,3.4,24.47,5.63,36.4,7.34Z" style="fill: #fff;"></path><path d="M741.46,359c5.52-.11,11.07-.56,16.5-1.4,5.44-.87,10.83-1.87,16.03-2.91-5.18,1.11-10.52,2.13-15.94,3.01-5.41,.84-10.97,1.28-16.59,1.3Z" style="fill: #fff;"></path><path d="M524.84,347.02c.07,.11-.12,.24-.42,.37-.32,.1-.6,.2-.83,.32-4.42,.7-8.84,1.42-13.25,2.17,1.08-.29,2.04-.72,3.15-.96,4.89-.84,6-.45,11.35-1.91Z" style="fill: #fff;"></path><path d="M609.59,332.69l.29-.04c.94,.04,1.86,.08,2.78,.12,.11,.02,.21,.04,.33,.06-1.13-.03-2.26-.08-3.4-.15Z" style="fill: #fff;"></path><path d="M530.44,346.04c.13,.21,.26,.41,.67,.52-2.49,.37-4.98,.73-7.46,1.14,.29-.11,.56-.21,.78-.31,1.62-.49,4.23-.73,6.01-1.35Z" style="fill: #fff;"></path><path d="M586.83,341.28c1.57-.03,2.95-.51,3.69-.63,4.08,.17,8.11,.68,12.87,1,.75-.12,2.3,0,3.78-.12,.86,.25,1.78,.48,2.76,.7-10.4-.93-21.14-1.11-32.28-.55,1.49-.09,3-.17,4.53-.26,1.53-.08,3.08-.17,4.66-.14Z" style="fill: #fff;"></path><path d="M327.32,348.72c3.24,1.86,6.71,3.57,10.27,5.27,3.6,1.6,7.29,3.18,11.09,4.41,7.56,2.59,15.42,4.12,22.65,4.42-8.34-1.39-18.14-3.88-25.72-7.11-7.61-3.17-12.97-6.77-13.56-8.2-.57-1.48,4.28,1.32,11.18,4.29,6.88,2.99,15.97,5.85,22.37,6.82-1.65-.48-1.64-.51-3.27-1.05,1.62,.57,3.27,1.06,4.81,1.07-.83-.23-1.84-.51-2.93-.82-1.08-.33-2.23-.68-3.34-1.02-2.2-.73-4.18-1.49-4.99-2.05,1,.11,2.02,.17,3.02,.26-3.99-1.69-9.7-3.81-15.09-6.52-5.41-2.66-10.46-5.91-13.57-8.69,7.89,6.26,18.07,11.44,29.66,14.57,11.58,3.19,24.47,4.31,37.6,3.91,13.16-.37,26.58-2.23,39.84-4.66,13.24-2.44,26.44-5.36,39.12-8.11,28.28-6.7,54.35-14.5,79.85-19.61,1.21-.21,2.85-.44,4.76-.68,.96-.12,1.98-.24,3.05-.37,1.08-.09,2.2-.19,3.36-.28,2.31-.18,4.72-.38,7.1-.53,2.38-.08,4.72-.16,6.84-.24,15.01-1,30.23-.79,45.34,.79,16.18,2.13,31.12,6.71,45.79,11.3,14.66,4.59,29.21,9.4,44.47,12,3.03,.53,6.55,1.5,7.46,2.16,.9,.63-.82,1.22-8.47,.17-12.7-1.6-25.54-5.1-38.41-9,1.67-.14,7.69,2.07,10.66,2.43-9.33-3.1-17.12-5.76-26.61-8.48,6.27,1.84,12.53,3.68,18.8,5.52-15.51-4.51-32.9-10.38-51.34-13.24-3.36-.6-6.45-1.38-9.93-2.17-3.47-.85-7.36-1.17-12.19-.86,3,.32,6.01,.65,9.03,.97,3.01,.47,6.02,.95,9.04,1.42,6.06,1.04,12.05,2.46,17.94,4.02,11.78,3.14,23.23,6.94,34.6,10.38-.05,0-.1,0-.13,0,10.16,3,19.23,5.74,28.96,7.98-3.04-.62-6.15-1.28-8.79-2.09,13.99,4.27,28.07,7.13,42.08,7.24-9.87,.52-20.23-.56-30.64-2.64-10.42-2.06-20.89-5.09-31.41-8.28-10.52-3.19-21.12-6.55-31.87-9.3-5.37-1.37-10.79-2.58-16.23-3.52-1.36-.22-2.73-.43-4.08-.65-1.36-.16-2.72-.32-4.08-.48-1.35-.16-2.71-.31-4.05-.47l-2.02-.22-2.02-.12c.75,.12,1.51,.24,2.29,.36,.78,.14,1.56,.28,2.36,.42,1.6,.27,3.24,.51,4.91,.74,.84,.11,1.68,.22,2.52,.33,.84,.14,1.69,.27,2.54,.41,1.71,.26,3.4,.58,5.08,.88,6.74,1.25,13.16,2.85,18.02,4.83-4.7-1.28-9.45-2.49-14.26-3.56-4.8-1.05-9.68-2.06-14.61-2.65-2.46-.32-4.92-.7-7.39-.99-2.48-.22-4.96-.44-7.45-.66-2.49-.27-4.99-.29-7.5-.42-2.51-.1-5.02-.26-7.54-.22,1.49-.09,2.96-.2,4.42-.25-12.54-.94-25.87,.53-38.22,1.85-1.11,.11-2.21,.21-3.32,.32,1.1-.11,2.21-.21,3.32-.32,11.37-1.13,22.65-1.79,33.79-1.6-2.55,.16-5.18,.22-7.98,.31-2.79,.16-5.76,.28-8.99,.38,1.76,.12,3.9,.16,6.22,.17,1.16,0,2.38,0,3.61,0,1.24,.03,2.5,.06,3.76,.1l4.96-.04c1.65-.03,3.31,.09,4.96,.13,3.3,.12,6.6,.2,9.87,.55-1.27-.09-2.53-.17-3.79-.25-1.26-.02-2.52-.04-3.77-.06-2.51-.01-5-.11-7.45,0-2.45,.12-4.87,.23-7.25,.34-2.38,.09-4.7,.41-6.97,.63,13.67-.3,27.81,.07,41.41,2.14l-5.62-.67-5.64-.39c-1.88-.11-3.76-.3-5.64-.33l-5.64-.12c-12.62-.5-25.37,.06-38.16,1.39,.48-.07,.97-.14,1.46-.21-.97,.12-1.94,.24-2.91,.36l-3.76,.4-3.75,.5c-2.5,.35-5.02,.66-7.52,1.05-4.49,.78-8.86,1.72-13.15,2.86-.74,.14-1.48,.28-2.21,.42,1.36-.45,2-.76-.71-.37-11.62,1.57-23.83,5.18-37.08,7.23-3.48,.54-8.09,1.64-13.05,2.86-1.39,.14-2.08,.39-2.69,.66-1.07,.26-2.15,.52-3.24,.78-2.66,.57-5.32,1.14-7.91,1.8,2.59-.54,5.25-1.17,7.91-1.8,1-.22,1.99-.44,2.97-.65-.64,.3-1.32,.64-2.79,.96,18.36-3.63,37.35-7.82,56.59-11.46-1.13,.35-2.72,.84-3.39,1.05l5.6-1.47c3.1-.61,6.22-1.16,9.34-1.7l4.67-.83,4.69-.75c-1.85,.39-3.57,.77-5.05,1.25l6.7-.94c2.23-.32,4.47-.64,6.72-.88l6.74-.8,6.76-.62,3.39-.31c1.13-.09,2.26-.14,3.4-.21l6.8-.4,6.82-.15,3.41-.08,3.42,.07c2.13,.1,4.26,.2,6.39,.3,2.12,.2,4.24,.39,6.36,.59,4.24,.3,8.42,1.06,12.61,1.64,8.36,1.33,16.55,3.37,24.64,5.63-4.29-1.45-8.74-2.78-13.33-3.91-4.59-1.12-9.31-2.12-14.12-2.74,6.42,.65,12.78,1.92,19.06,3.32,6.28,1.43,12.5,3.12,18.66,4.93,12.32,3.62,24.44,7.68,36.65,11.26-4.62-.49-10.84-1.79-13.87-1.74,.04,.49,7.92,2.95,3.24,1.86-8.58-1.86-15.74-4.07-21.72-5.66-5.98-1.6-10.78-2.6-14.51-2.31-.73,.15,3.41,2.08,6.93,3.89,3.53,1.81,6.46,3.45,3.39,2.8-5.09-1.27-14.08-3.71-23.69-5.7-2.75-.67-5.61-1.29-8.57-1.82-.36-.11-1.01-.07-1.81-.05-2.6-.39-5.2-.64-7.69-.97-1.25-.14-2.46-.35-3.67-.42-1.2-.09-2.37-.18-3.5-.27-2.27-.16-4.36-.4-6.26-.47-1.9-.09-3.58-.17-4.98-.24-2.08-.13-4.14-.26-6.21-.25-1.08-.12-2.01-.29-2.74-.51-1.3,.19-2.61,.33-3.91,.44-2.78,.04-5.54,.16-8.3,.24-1.38,.03-2.75,.11-4.13,.22-1.37,.1-2.74,.19-4.11,.29-3.06,0-6.12,.14-9.15,.31,.08,.15,.59,.31,.03,.53-3.43,.32-6.84,.79-10.25,1.25-3.41,.42-6.81,1-10.2,1.53-2.79,.23-5.38,.41-7.7,.41-3.57,1.34-9.64,2.65-16.3,3.98-6.66,1.35-13.93,2.72-19.85,4.1l.03,.05c-6,1.26-12.05,2.53-18.18,3.81-1.04,.08-2.04,.12-2.99,.12-1.47,.54-3.07,.89-3.8,1.16-4.95,.84-9.12,1.34-13.34,1.87-.73,.26-2.07,1-3.68,1.32-3.24,.57-6.37,1.18-9.44,1.76-3.61,.6-7.28,1.16-11.01,1.68-12.54,1.72-25.09,2.78-37.61,2.64-.4-.17-.5-.39-.61-.62-1.94,.3-4.66,.11-6.41,.22,.33-.07,.54-.16,.49-.28-2.87,.16-4.57,.03-6.19-.16-1.62-.16-3.17-.49-5.73-.76-1.16-.09-2.26,.01-3.41-.03-.56-.08-1.12-.16-1.69-.24-5.68-1.69-11.45-2.35-17.79-4.02-6.25-1.9-12.34-4.32-18.15-7.27-1.15-.59-2.1-1.12-2.93-1.62-.82-.52-1.51-1.02-2.15-1.49-.63-.48-1.23-.93-1.85-1.39-.6-.49-1.22-.99-1.93-1.53Z" style="fill: #fff;"></path><path d="M508.74,350.15c-5.78,.99-11.54,1.98-17.3,2.97,6.16-1.29,11.57-2.8,17.3-2.97Z" style="fill: #fff;"></path><path d="M662.63,352.75c2.08,1.07,4.48,2.11,7.13,3.14-14.28-4.44-28.21-8.75-42.38-11.39v-.05c5.69,.92,12.6,2.71,19.03,4.47,6.43,1.75,12.4,3.42,16.22,3.84Z" style="fill: #fff;"></path><path d="M524.43,347.39c-.21,.1-.49,.2-.78,.31-.02,0-.03,0-.05,0,.23-.12,.51-.22,.83-.32Z" style="fill: #fff;"></path><path d="M692.58,352.65c.47,.13,.93,.26,1.39,.39-3.56-.85-7.11-1.79-10.66-2.76,2.87,.66,6.02,1.51,9.27,2.37Z" style="fill: #fff;"></path><path d="M731.24,360.47c3.75,.27,7.51,.25,11.27,.17,3.75-.18,7.51-.42,11.22-.99,4.8-.55,9.51-1.43,14.13-2.35,4.63-.89,9.16-1.9,13.6-2.85-8.13,2.22-16.34,4.11-24.74,5.43-8.42,1.22-16.98,1.34-25.48,.59Z" style="fill: #fff;"></path><path d="M690.32,361.56c3,1.01,6.05,2.07,9.16,3.05-3.16-.81-6.25-1.67-9.32-2.54,.62,0,.19-.33,.17-.5Z" style="fill: #fff;"></path><path d="M662.96,344.38c.72,.21,1.44,.43,2.15,.64-1.88-.41-3.76-.82-5.64-1.23,.7,.12,2.33,.4,3.49,.59Z" style="fill: #fff;"></path><path d="M724.14,369.61c-2.44-.36-4.86-.72-7.24-1.16,1.44,.12,2.86,.24,4.32,.23,.75,.33,1.75,.64,2.91,.92Z" style="fill: #fff;"></path><path d="M762.89,368.17c1.61-.33,3.21-.65,4.77-.97,1.55-.33,3.08-.66,4.58-.98-1.84,.45-3.71,.9-5.58,1.36-1.91,.41-3.73,.85-5.71,1.23,.91-.31,1.53-.6,1.95-.64Z" style="fill: #fff;"></path></g></svg> 