<?xml version="1.0" encoding="UTF-8"?> <svg xmlns="http://www.w3.org/2000/svg" id="Layer_1" data-name="Layer 1" viewBox="0 0 900 450"><defs><style>.cls-1{fill:#fff;}</style></defs><path class="cls-1" d="M148.7,249.68a40.68,40.68,0,0,1,10.34,1v-7.14H133.89v6.53a49.81,49.81,0,0,1,8.05-.38,86.73,86.73,0,0,1-1.75,20.21,47.1,47.1,0,0,0-12.91-7.37,12.25,12.25,0,0,0,4.18-8.89,11.45,11.45,0,0,0-11.86-11.17c-6.45,0-12.46,4.41-12.46,11.7,0,4.94,2.21,7.22,4,9a15,15,0,0,0-8.2,13.53c0,10.25,9.72,14.66,18.91,14.66a31.05,31.05,0,0,0,15.43-4.1,19.59,19.59,0,0,0,5.54-5.24c8.74,8,10.34,8.66,14.13,9.19l7.68-4.64c-8.66-3.49-11.17-4.48-18.62-11.09C148.78,266.32,149.24,254.39,148.7,249.68ZM119.3,249c3.34,0,5.7,2.2,5.7,5a5.51,5.51,0,0,1-5.7,5.32c-2.66,0-5.62-2-5.62-5.17C113.68,251.43,115.81,249,119.3,249Zm3.19,35.25c-8,0-11.85-3.95-11.85-8.36,0-5.92,6.23-8.51,8.13-9.27,8.51,2.74,12.76,4.94,18.61,10.34C134.19,281.44,129.56,284.25,122.49,284.25Z"></path><path class="cls-1" d="M207.63,282.49c4.45-3.31,11.4-8.32,11.4-18.47,0-7.75-5.93-21.19-27.24-21.19H172.65c1.14,2.84,3,6.95,3,22.45v38.4c0,5-.34,15.16-3.31,24.39l19.38.23a50.36,50.36,0,0,0,16.75-3.08c6.84-2.39,14.59-11.05,14.59-20.51S216,287.5,207.63,282.49Zm-19.37-32.37c9.23.8,16.75,4.9,16.75,14.59,0,9.91-7.52,14.93-16.75,17.32Zm0,70.54v-37c16.87,4.11,20.4,14.14,20.4,20.52C208.66,307,208,321,188.26,320.66Z"></path><path class="cls-1" d="M247.32,242.83H228.06c2.17,5.24,3.31,10.59,3.31,20.28V303.8c0,14.24-1.6,19.14-3.31,24.5h19.26a74,74,0,0,1-3.19-23.59V265.39C244.13,252.51,245.73,247.84,247.32,242.83Z"></path><path class="cls-1" d="M278.77,257.3c16.53-5.93,21.54-5.93,27.24-5.81v55a88.71,88.71,0,0,1-2.39,21.77h17.43a77,77,0,0,1-2.39-20.4V251.49c9.91,0,13,.79,22.34,4.55l5.92-13.1H283.33Z"></path><path class="cls-1" d="M461.93,134v55a88.71,88.71,0,0,1-2.39,21.77H477a76.65,76.65,0,0,1-2.4-20.4V134c9.92,0,13,.8,22.34,4.56l5.93-13.1h-63.6l-4.56,14.35C451.22,133.85,456.23,133.85,461.93,134Z"></path><path class="cls-1" d="M418.37,242.6H398.89c1.48,4.56,3.3,10,3.3,21.76v15.16H365.61V262.2c0-10.83,1.94-15.61,3.42-19.6H349.42c1.37,3.87,3.31,9.8,3.31,22V306.3c0,12.77-1.82,18-3.31,22H368.8c-1.48-5-3.19-10.26-3.19-23.82V290.35h36.58v15c0,13.68-1.48,17.67-3.3,22.91h19.48c-1.82-5-3.3-9.23-3.3-23.36V265.39C415.07,252.28,416.44,248.18,418.37,242.6Z"></path><path class="cls-1" d="M496,247.58h4.65a35.72,35.72,0,0,0,5.25-14.47H495.19a34,34,0,0,1-1.93,9.72h-14c3.08,6.49,3.08,15.72,3.08,19.6v33.73c0,5.36-.23,6.84-.68,8.55-2.4,8-10.37,14.93-19.61,14.93a21.68,21.68,0,0,1-19.6-13.45c-1.25-3.19-1.71-6.38-1.71-11.74V263.34c0-11.85.8-14.93,2.74-20.51H425.2c1.49,3.64,2.74,6.61,2.74,19.6v33.73c0,19.49,10.14,32.94,27.81,32.94,12.19,0,22.1-6.16,27.12-9.24.11,2.51,0,3.54-.57,8.44h15.16c-2.28-11.51-2.28-16.53-2.28-22.45V260.26C495.18,253.77,495.49,250.18,496,247.58Z"></path><path class="cls-1" d="M570.31,247.58h0a35.74,35.74,0,0,0,5.24-14.47H564.88a35.85,35.85,0,0,1-2.41,11.09,47.38,47.38,0,0,0-14.19-2.06c-29.74,0-46.84,23.48-46.84,42.51,0,21.88,17.1,44.22,44.67,44.22,24.16,0,44.68-17,44.68-43.65C590.79,270.21,583.93,255.31,570.31,247.58Zm-20.66,72.06c-16.3,0-33.85-13.79-33.85-36.93,0-16.52,11.05-31.45,28.26-31.45,20,0,33.51,19.37,33.51,37.15C577.57,301.75,568.68,319.64,549.65,319.64Z"></path><path class="cls-1" d="M747.7,285.11H726.85c3.19,4.33,5.69,7.74,5.69,21v9.46a33.77,33.77,0,0,1-15,3c-22,0-34.64-15.05-34.64-33.74,0-22.9,16.29-33.5,30.77-33.5,12.19,0,21.42,4.78,27.12,7.75V244.76a86.36,86.36,0,0,0-22.22-2.85c-18.12,0-28.95,4.22-38.07,15.16a47.62,47.62,0,0,0-10.71,30.32c0,16.18,8.77,41.48,47.18,41.48,15.73,0,24.16-3.31,30-5.59-1.59-5.81-1.59-7.52-1.59-13.22V299.92C745.31,291.6,746.79,287.73,747.7,285.11Z"></path><path class="cls-1" d="M165,125.07H145.46c1.48,4.56,3.31,10,3.31,21.77V162H112.18V144.68c0-10.83,1.94-15.62,3.42-19.61H96c1.37,3.88,3.31,9.81,3.31,22v41.71c0,12.77-1.83,18-3.31,22h19.37c-1.48-5-3.19-10.26-3.19-23.82V172.83h36.59v15c0,13.68-1.49,17.66-3.31,22.91H165c-1.82-5-3.31-9.23-3.31-23.37V147.87C161.64,134.76,163,130.66,165,125.07Z"></path><path class="cls-1" d="M174.51,178.64c0,19.49,10.15,32.93,27.81,32.93,12.2,0,22.11-6.15,27.12-9.23.12,2.51,0,3.54-.56,8.44H244c-2.28-11.51-2.28-16.53-2.28-22.45V142.74c0-11.17.91-13.79,2.28-17.44H225.8c3.08,6.5,3.08,15.73,3.08,19.6v33.74c0,5.35-.23,6.84-.69,8.54-2.39,8-10.37,14.93-19.6,14.93A21.66,21.66,0,0,1,189,188.67c-1.26-3.19-1.71-6.38-1.71-11.74V145.82c0-11.86.8-14.93,2.73-20.52H171.78c1.48,3.65,2.73,6.61,2.73,19.6Z"></path><path class="cls-1" d="M212.12,121.2h5.24c-7.17-8.78-8.31-13.45-9-16.3H195.94A30.8,30.8,0,0,0,212.12,121.2Z"></path><path class="cls-1" d="M268.41,152l36.36,46.5c3,3.76,5.81,7.75,7.29,12.31H327.9c-1.25-3.54-2.85-8.1-2.85-21.32V143.54a65.49,65.49,0,0,1,2.17-18.24H310.81c1.37,4.9,2.39,8.89,2.39,24.62v38.86l-38.63-49c-6.73-8.55-7.52-10.6-9.12-14.48h-20.4a58.11,58.11,0,0,1,11.51,11.51v51.4c0,1.6-.11,13.68-2.85,22.57h18.12c-2.62-7-3.42-17.55-3.42-25.08Z"></path><path class="cls-1" d="M377,211.35c15.73,0,24.17-3.31,30-5.59-1.6-5.81-1.6-7.52-1.6-13.22V182.4c0-8.32,1.48-12.2,2.4-14.82H386.93c3.19,4.33,5.7,7.75,5.7,21V198a33.68,33.68,0,0,1-15.05,3c-22,0-34.64-15-34.64-33.73,0-22.91,16.3-33.5,30.77-33.5,12.19,0,21.43,4.78,27.12,7.75V127.24a86.36,86.36,0,0,0-22.22-2.85c-18.12,0-28.95,4.22-38.06,15.16a47.57,47.57,0,0,0-10.72,30.31C329.83,186.05,338.61,211.35,377,211.35Z"></path><path class="cls-1" d="M504.75,210.78h17.33c-2.28-9.12-2.4-11.86-2.4-18.47V171.23c17.67,23.48,22.91,29.63,34.42,39.55h23.13c-.46-6.73,2.85-14.14,4.33-17.33l4.33-9.23h30l5,11.51c3.07,7,3.53,11.29,3.53,15.05l20.29-.23c-3.19-4.33-7.18-9.8-13.34-23.14L602.42,125h-.69L568.8,190.38c-3.62,7.17-6,11.46-7.92,14.4-8.52-10.34-16.91-21-23.31-32.3,3.88-2,16.19-8.89,16.19-22.79,0-11.51-10.37-24.73-32.37-24.39l-16.64.23c.91,3,2.28,7.64,2.28,17.67v45.47A96.2,96.2,0,0,1,504.75,210.78Zm96.75-59.49,9.92,22.9H590.68ZM519.68,132.6c17.1,1.7,21.09,12,21.09,18.35,0,13.1-13,16.75-21.09,19Z"></path><path class="cls-1" d="M614.84,104.9H602.42c-.69,2.85-1.83,7.64-9,16.41h5.24A30.65,30.65,0,0,0,614.84,104.9Z"></path><path class="cls-1" d="M665,269.17c0-16.67-.34-33.32-.34-50V152L701,198.47c3,3.75,5.81,7.74,7.29,12.3h15.85c-1.27-3.53-2.85-8.09-2.85-21.3V143.54a65.51,65.51,0,0,1,2.15-18.23H707c1.38,4.89,2.4,8.87,2.4,24.61v38.87l-38.63-49c-6.73-8.55-7.53-10.59-9.12-14.46h-20.4a57.53,57.53,0,0,1,11.51,11.5v71.45c0,20.17.33,40.63.33,60.91V306.3l-38.63-49c-6.73-8.54-7.52-10.6-9.12-14.48H585a58.16,58.16,0,0,1,11.52,11.51v51.4c0,1.6-.12,13.68-2.85,22.57h18.13c-2.63-7-3.42-17.55-3.42-25.07V269.49L644.69,316c3,3.77,5.81,7.75,7.28,12.31h15.84c-1.25-3.54-2.84-8.1-2.84-21.32Z"></path><path class="cls-1" d="M801.61,182.4c0-8.32,1.48-12.2,2.39-14.82H783.15c3.19,4.33,5.69,7.75,5.69,21V198a33.63,33.63,0,0,1-15,3c-22,0-34.64-15-34.64-33.73,0-22.91,16.29-33.5,30.77-33.5,12.19,0,21.42,4.78,27.12,7.75V127.24a86.36,86.36,0,0,0-22.22-2.85c-18.12,0-29,4.22-38.07,15.16a47.62,47.62,0,0,0-10.71,30.31c0,16.19,8.77,41.49,47.18,41.49,15.73,0,24.16-3.31,30-5.59-1.59-5.81-1.59-7.52-1.59-13.22Z"></path></svg> 