<?xml version="1.0" encoding="UTF-8"?> <svg xmlns="http://www.w3.org/2000/svg" xmlns:xlink="http://www.w3.org/1999/xlink" version="1.1" x="0px" y="0px" viewBox="0 0 900 450" style="enable-background:new 0 0 900 450;" xml:space="preserve"> <style type="text/css"> .st0{display:none;} .st1{display:inline;} .st2{opacity:0.5;fill:#46C8F5;} .st3{fill:none;} .st4{fill:none;stroke:#6CCCE2;stroke-miterlimit:10;} .st5{font-family:'MyriadPro-Regular';} .st6{font-size:21px;} .st7{fill:#2E3192;} .st8{opacity:0.5;fill:#ED1C24;} .st9{fill:#FFFFFF;} </style> <g id="series" class="st0"> <g class="st1"> <rect x="96" y="48" class="st2" width="708" height="354"></rect> <line class="st3" x1="0" y1="0" x2="0" y2="449.9"></line> <g> <line class="st4" x1="0" y1="402" x2="900" y2="402"></line> <line class="st4" x1="0" y1="450" x2="900" y2="450"></line> </g> <g> <line class="st4" x1="0" y1="0" x2="900" y2="0"></line> <line class="st4" x1="0" y1="48" x2="900" y2="48"></line> </g> <g> <line class="st4" x1="0" y1="0" x2="0" y2="450"></line> <line class="st4" x1="96" y1="0" x2="96" y2="450"></line> </g> <g> <line class="st4" x1="804" y1="0" x2="804" y2="450"></line> <line class="st4" x1="900" y1="0" x2="900" y2="450"></line> </g> <text transform="matrix(1 0 0 1 332.9386 231.1637)"><tspan x="0" y="0" class="st5 st6">series titles (900px : 450px)</tspan><tspan x="20.14" y="25.2" class="st7 st5 st6">series_titles_black.svg</tspan></text> <rect y="402" class="st8" width="900" height="48"></rect> <rect class="st8" width="900" height="48"></rect> <rect class="st8" width="96" height="450"></rect> <rect x="804" class="st8" width="96" height="450"></rect> </g> </g> <g id="Layer_2"> <g> <path class="st9" d="M213.45,152.16c0.21-1.27,0.58-2.55,0.61-3.83c0.29-12.81,4.36-24.91,11.04-36.49 c2.96-5.12,5.85-10.31,9.48-15.14c9.14-12.17,20.98-22.39,36.6-29.88c9.61-4.61,19.12-9.27,29.83-12.23 c0.65-0.18,1.32-0.29,2.67-0.58c-0.6,0.84-2.96,2.58-6.31,5.35c-4.74,4.03-7.78,9.15-10.29,14.27c-1.63,3.33-3.72,6.52-5.58,9.71 c2.63-0.68,7.05-2.58,9.78-4.83c3.45-2.67,5.37-4.13,8.3-6.93c2.78-3.03,5.29-5.25,7.9-6.86c-1.08,1.96-2.61,7.55-5.88,12.34 c-15.56,22.64-28.16,26.9-43.3,62.9c-15.45,35.32-11.83,60.42-10.75,72.79c0.22,2.55,0.67,5.1,0.38,7.83 c-2.53-3.7-8.21-10.96-8.52-10.89c0.16,8.61,1.03,17.19,3.2,26.42c-1.5-1.09-2.45-1.65-3.2-2.35 c-5.98-5.61-12.16-11.12-17.79-16.94c-3.69-3.82-6.71-8.05-9.8-12.19c-4.52-6.06-9.11-12.1-13.16-18.34 c-3.54-5.46-6.52-11.15-9.45-16.83c-2.42-4.71-4.18-9.62-6.62-14.32c-2.94-5.66-3.86-11.64-5.49-17.52 c-2.12-8.6-0.51-16.95,0.2-23.36c0.65-7.48,5.89-15.76,7.93-18.34c2.36-2.97,5.22-5.71,7.94-8.5c1.7-1.74,3.47-3.45,5.34-5.08 c1.52-1.32,3.25-2.5,5.48-3.42c-0.66,1.4-1.36,2.79-1.97,4.2c-1.32,3.06-2.96,6.08-3.81,9.22c-1.32,4.88-1.26,9.88-0.53,14.84 c0.59,3.99,1.2,7.99,2.26,11.92c1.05,3.92,2.67,7.75,4.05,11.62c0.72,2.02,1.38,4.06,2.19,6.07 C208.1,141.63,213.24,152.17,213.45,152.16z"></path> <path class="st9" d="M356.48,211.91c2.43,12.04,5.2,24.03,3.75,36.45c-1.54-0.7-7.1-14.57-9.88-20.39 c-2.36-4.95-6.77-8.98-10.43-13.35c-2.47-2.94-5.32-5.58-8.8-7.83c-2.92-1.89-6.03-3.48-9.57-4.59 c-10.65-4.82-15.95-8.51-18.41-11.41c-0.69,9.63-3.95,18.07-2.7,26.25c-1.9-1.79-6.29-9.55-5.68-15.89 c-1.44,4.46-1.6,10.72-1.88,14.91c-0.3,4.54,0.97,8.64,2.53,12.96c2.48,6.04,3.9,8.65,7.96,12.59c-2.46-0.82-9.51-4.97-13.5-9.13 c-5.07-5.69-7.24-8.5-10.24-13.42c-1.56-2.56-3.09-5.13-4.38-7.77c-6.12-12.5-7.56-25.38-5.3-38.52c0.94-5.5,2.1-10.99,3.27-16.46 c0.34-1.61,0.88-3.21,1.6-4.74c4.35-9.22,8.49-18.51,13.29-27.59c2.79-5.28,6.77-10.16,10.05-15.29 c7.65-11.96,14.64-18.57,19.93-28.75c1.49-3.38,3.98-7.49,4.84-11.22c5.12,10.61,7.66,23.57,7.98,28.44 c1.27,9.07,2.12,17.23,1.91,23.08c-0.01,7.64,1.47,16.84,4.04,25.61c0.52,1.78,1.05,3.57,1.36,5.37 c1.12,6.42,4.64,12.25,7.62,18.2c3.53,7.07,7.45,14.03,10.99,21.1c2,4,3.53,8.13,5.34,12.19c3.3,7.4,4.29,15.14,5.78,22.8 c0.12,0.62,0.03,1.26,0.04,1.89C367.74,227.43,361.63,216.51,356.48,211.91z M314.77,148.06c-0.75,1.45-4.4,8.38-5.01,9.86 c-1.5,3.62-4.78,9.72-4.69,13.61c0.1,4.01,1.25,4.19,4.74,7.24c3.75,3.28,14.7,7.37,15.32,7.4c-3.57-5.36-4.46-8.6-6.32-14.14 C316.96,166.53,315,148.1,314.77,148.06z"></path> <path class="st9" d="M498.71,210.55c-4.14,4.53-11.98,8.78-15.1,8.41c1.34-2.27,1.83-3.75,1.96-4.26 c1.63-6.35,1.19-12.62-1.74-18.72c-4.93-10.28-9.91-20.55-14.96-30.8c-3.77-7.65-6.93-15.44-9.02-23.46 c-2.35-9-2.38-17.93,1.3-26.73c0.53-1.27,0.68-2.65,1.29-3.89c0.96-1.95,1.86-3.98,3.3-5.72c4.6-5.57,10-10.68,16.26-15.16 c3.11-2.22,6.76-3.99,10.16-5.96c0.19,0.14,0.39,0.28,0.58,0.42c-0.39,0.64-0.7,1.32-1.17,1.92c-5.59,7.27-8.77,15.16-9.79,23.59 c-0.48,3.91-1.02,7.82-1.37,11.75c-0.4,4.54,0.18,8.99,2.01,13.37c2.18,5.21,3.05,9.1,5.1,14.34c0.39,0.99,2.07,3.31,3.25,4.21 c0.13-0.57,0.32-1.13,0.37-1.7c0.58-6.32,1.11-10.64,1.98-16.93c0.41-2.91,1.44-7.81,2.68-10.59c1.8-4.06,3.07-7.07,5.64-10.56 c2.08-3.35,3.82-5.75,7.7-7.29c-2.41,7.33-0.07,10.44,0.19,10.5c0.38-0.48,0.83-0.93,1.14-1.44c3.54-5.91,7.23-11.75,12.09-17.08 c1.2-1.31,2.58-2.54,4.04-3.69c13.33-10.5,30.12-15.51,48.4-18.23c4.7-0.7,9.32-1.77,13.88-2.9c2.49-0.62,4.77-1.72,7.32-2.66 c-1.13,3.03-3.75,5.15-6.59,7.1c-5.24,3.61-10.61,7.1-15.83,10.73c-5.78,4.01-11.49,8.08-17.15,12.19 c-16.93,17.7-20.42,29.59-23.1,35.35c-1.33,2.86-2,5.92-2.9,8.9c-1.87,6.15-3.47,12.35-3.61,18.71c-0.04,2.02,0.3,4.04,0.14,6.05 c-0.65,8.04-1.11,16.11-2.28,24.11c-0.79,5.38-3.15,11.11-6.87,15.64c-5.97,7.29-10.15,10.59-18.68,16.76 c-2.65,2.06-6.99,5.2-9.42,6.35C493.44,226.46,497.11,218.09,498.71,210.55z"></path> <path class="st9" d="M392.35,158.25c0.56,1.6,1.08,3.21,1.7,4.8c2.09,5.34,4.54,10.61,6.24,16.02c1.57,5.02,2.4,10.18,3.47,15.29 c1.05,5.01,1.95,10.04,2.97,15.06c0.85,4.19,1.2,24.28-18.28,32.59c1.52-3.59,3.06-6.98,4.38-10.43c1.3-3.38,2.36-6.82,0.97-10.51 c-1.73,2.88-3.45,5.76-5.18,8.64c-0.18-0.06-0.37-0.12-0.55-0.18c0.1-1.68,0.28-3.36,0.28-5.04c0.01-4.83-1.49-9.47-3.1-14.1 c-2.57-7.36-7.06-14.1-11.31-20.93c-8.49-13.65-14.71-27.88-17.75-42.86c-1.3-6.39-2.68-12.81-3.25-19.25 c-0.43-4.84,0.19-9.75,0.66-14.6c0.95-9.76,3.7-19.24,7.59-28.51c0.85-2.04,2.31-3.92,4.22-5.9c0.2,1.07,0.55,2.13,0.59,3.2 c0.32,7.65,2.12,15.03,6.61,21.95c0.63,0.98,1.19,2,1.64,3.04c3.63,8.34,10.62,14.95,18.21,21.25c0.16,0.13,0.45,0.17,1.03,0.37 c-0.55-1.79-1.04-3.42-1.54-5.04c-1.99-6.47-2.37-12.99-1.18-19.57c1.65-9.15,3.19-18.32,4.81-27.47 c0.17-0.95,0.49-1.88,0.93-3.48c3.36,5.38,6.58,15.33,8.25,20.36c0.27,0,1.62-4.67,2.35-10.11c2.2,3.84,2.92,5.03,3.37,8.95 c0.31,2.67,0.09,4.11-0.05,6.79c-0.44,8.49,1.57,15.45,5.77,23.35c3.73,7.03,7.9,13.85,12.45,20.58 c7.65,11.33,14.55,22.93,18.22,35.5c2.54,8.74,3.56,17.51,2.11,26.4c-0.42,2.57-0.72,5.15-1.24,7.7 c-1.17,5.68-4.36,10.76-7.83,15.75c-0.24,0.35-1.94,3.42-2.2,3.75c-0.28-0.09,0.18-4.19,0.25-4.76 c0.74-6.26,1.18-12.57-0.84-18.71c-1.51-4.6-3.58-9.16-6.16-13.47c-6.94-11.6-17.94-20.87-29.51-29.77 c-2.9-2.23-5.68-4.55-8.52-6.83C392.71,158.12,392.53,158.18,392.35,158.25z"></path> <path class="st9" d="M623.95,98.63c-1.14,1.7-3.55,6.51-5.99,9.98c-2.67,3.79-5.13,7.67-7.88,11.43 c-6.85,9.34-10.52,19.46-13,29.86c-0.49,2.06-0.53,4.2-0.6,6.3c-0.29,8.52-0.73,17.05-0.67,25.58c0.02,4.01,0.78,8.05,1.65,12.03 c1.79,8.18,2.65,16.4,2.76,24.66c0.04,2.92,0.01,5.87,0.54,8.75c0.77,4.21-0.48,8.24-1.4,12.26c-1.27,5.58-3.04,11.1-6.3,16.3 c-1.17,1.86-1.48,4.03-2.14,6.06c-0.31,0.97-0.51,1.96-0.93,3.61c-1.6-2.52-2.14-4.58-2.48-6.66c-1.37-8.2-2.54-16.42-4.17-24.59 c-0.63-3.15-2.08-6.25-3.54-9.27c-0.59-1.22-2.11-6.53-3.49-7.39c-1.99-1.25-2.41-1.65-4.7-2.56 c-12.82-6.7-15.97-13.12-17.01-14.38c-0.09,0.93-0.8,3.48-1.88,5.34c-2.08,4.89-6.02,8.99-10.21,12.93 c-5.07,4.78-13.49,8.19-23.1,8.32c1-0.69,1.69-1.25,2.5-1.7c5.65-3.16,9.88-7.12,12-12.16c1.86-4.44,3.75-8.9,5.04-13.45 c1.01-3.55,1.29-7.24,1.59-10.89c0.63-7.87,1.1-15.75,1.57-23.63c0.51-8.55,2.83-16.85,6.27-24.96 c1.09-2.58,5.24-15.57,25.11-26.05c9.11-5.34,20.66-5.35,31.55-8.51C617.91,102.79,623.76,98.49,623.95,98.63z M573.6,191.84 c-5.98-16.56-3.55-32.69-0.76-48.92c-1.65,1.07-3.19,2.14-4.07,3.46c-4.06,6.1-6.79,12.57-8.03,19.3 c-1.02,5.52-1.1,11.15-1.75,16.71c-0.18,1.55,0.52,2.64,1.94,3.67C564.39,188.54,568.34,190.4,573.6,191.84z"></path> <path class="st9" d="M284.97,327.5c-0.53-1.31-1.03-2.53-1.53-3.76c-3.07-7.6-6.23-15.18-9.17-22.81 c-2.39-6.2-4.49-12.47-6.78-18.7c-1.06-2.87-1.99-5.8-3.46-8.55c-4.54-8.5-6.47-17.34-7.15-26.47 c-0.55-7.43,0.22-14.69,2.18-21.91c0.08-0.28,0.25-0.53,0.64-1.36c1.8,7.5,0.77,14.77,4.42,21.61c0.18-3.04,0.35-6.08,0.53-9.13 c0.29-0.03,13.5,23.01,21.12,32.41c4.8,5.92,9.72,11.77,14.4,17.74c4.04,5.15,10.7,21.3,11.39,23.73c1.02,3.6,1.85,7.23,2.6,10.86 c2.02,9.78,2.81,19.58,1.51,29.46c-0.83,6.28-2.44,12.33-5.32,18.23c-3.12,6.41-6.28,12.78-10.79,18.68 c-1.17,1.53-2.55,2.97-3.91,4.4c-0.4,0.42-1.07,0.68-2.11,1.31c-0.05-3.29-0.19-6.12-0.13-8.94c0.17-7.79-0.94-15.52-2.22-23.22 c-0.85-5.14-3.83-9.64-9-13.21c-5.01-3.46-10.49-6.32-16.76-9.24c0.05,1.55,0.07,2.62,0.12,3.68c0.2,4.59-1.51,19.04-2.15,21.65 c-2.18,8.91-5.12,17.59-12.21,25.09c-3.61,3.82-6.62,7.99-9.91,12c-0.39,0.48-0.87,0.91-2.05,1.24c0.09-2.82-0.23-5.69,0.34-8.45 c2.83-13.81,3.54-27.71,2.85-41.69c-0.53-10.56-3.96-20.66-8.51-30.56c-1.16-2.52-2.95-4.88-4.67-7.22 c-3.13-4.24-5.97-8.68-9.77-12.54c-14.39-13.59-19-27.15-19.33-30.54c5.05,5.44,9.29,11.05,14.86,15.71 c5.6,4.68,12.08,8.84,19.33,12.25c-2.45-4.12-5.19-8.09-5.91-12.72c0.47,0.07,6.93,6.42,11.18,8.82c2.95,1.66,5.41,4,7.58,6.31 c4.63,4.94,8.37,10.32,11.01,16.09c0.78,1.72,1.87,3.04,3.99,3.79c2.44,0.87,4.84,1.87,7.38,2.5 C274.51,325.3,279.55,326.31,284.97,327.5z"></path> <path class="st9" d="M689.53,48.39c9.43,6.56,13.19,26.34,9.48,32.75c3.62-1.83,4.1-5.66,7.57-8.69 c-2.47,7.06,0.74,14.1-6.97,26.42c-6.31,11.31-13.5,18.36-22.09,27.27c-3.28,3.4-4.86,7.17-5.54,11.24 c-1.93,11.67-1.84,23.43-1.96,35.19c-0.09,8.46,0.29,16.97-2.47,25.24c-3.61,10.83-8.71,21.11-17.19,30.31 c-5.93,6.43-11.18,13.26-16.55,20c-1.79,2.25-3.04,4.76-4.87,7.13c-0.1-3.39-0.14-6.78,0.44-10.12c0.82-4.72,2.06-9.41,2.72-14.14 c0.9-6.42,1.32-12.89,2.11-19.33c0.8-6.48-0.13-12.93-0.27-19.4c-0.26-12.34-0.94-24.7,1.24-36.99c0.21-1.15,0.15-2.34,0.24-3.8 c-2.32,0.36-3.54,1.5-4.83,2.51c-5.88,4.61-10.52,9.94-14.69,15.54c-1.2,1.61-2.43,3.21-4,5.28c-1.22-2.43-1.19-4.47-1.23-6.43 c-0.2-10.29,3.99-19.49,11.04-28.07c5.59-6.79,12.67-12.61,19.39-18.65c7.05-6.35,17.09-16.05,23.47-24.39 c4.94-6.54,14.78-21.17,19.99-28.19C688.1,64.71,691.69,53.46,689.53,48.39z"></path> <path class="st9" d="M623.51,315.43c2.55-1.1,4.83-1.69,6.43-2.85c4.07-2.92,7.83-6.28,8.11-10.79 c0.7-11.36,6.07-21.69,10.89-32.14c2.03-4.39,4.22-8.76,6.82-12.95c2.53-4.1,5.67-7.96,8.55-11.93 c8.33-11.48,14.59-23.58,17.81-36.59c0.14-0.55,0.39-1.09,0.81-2.24c0.66,1.06,2.31,8.48,2.64,11.64 c0.25,2.37,0.58,4.77,0.29,7.12c-0.54,4.44-1.39,8.86-2.32,13.25c-0.84,3.99-1.95,7.95-3.08,12.48 c4.07-2.07,11.16-13.19,13.28-16.33c0.34,0.86,1.61,10.78-2.97,19.57c-4.89,11.2-11.4,21.87-17.01,32.83 c-2.93,5.71-6.48,11.21-8.31,17.27c-2.55,8.45-3.85,17-4.63,25.66c-0.72,7.91-1.31,15.9-4.56,23.53 c-4.03,9.47-11.32,17.25-20.22,24.25c-4.63,3.64-9.18,7.36-13.21,11.66c0.42-1.27,0.74-2.57,1.27-3.82 c2.85-6.57,6.01-13.07,8.52-19.72c1.39-3.69,1.75-7.62,2.5-11.46c0.68-3.44,1.54-6.88,1.82-10.34c0.44-5.41,0.45-10.84,0.67-16.8 c-1.21,0.61-1.73,0.83-2.19,1.1c-6.79,4.12-12.66,8.92-17.48,14.47c-1.42,1.63-2.34,3.52-3.73,5.18 c-4.62,5.52-10.33,10.26-16.76,14.57c-4.9,3.29-9.31,7.02-13.92,10.57c-0.44,0.34-0.72,0.82-1.07,1.23 c-0.25-0.15-0.51-0.3-0.76-0.45c0.89-2,1.72-4.02,2.69-5.99c3.42-6.93,6.87-13.85,10.35-20.76c1.9-3.77,3.95-7.49,5.83-11.27 c1.96-3.93,2.61-8.08,2.97-12.26c0.36-4.17,0.22-8.33-1.01-12.45c-0.17-0.58-0.2-1.18-0.24-1.78c-0.3-4.46-0.77-8.92-0.83-13.38 c-0.08-6.74,0-13.46,1.26-20.17c1.02-5.43,2.3-10.76,4.86-15.85c1.34-2.65,3.16-5.15,5.15-7.65c-2.69,14.11,1.92,24.07,5.65,31.85 c3.64,7.59,5.08,15.42,4.87,23.47C623.22,309.73,623.41,312.3,623.51,315.43z"></path> <path class="st9" d="M545.56,372.42c-16.25-0.89-32.26-0.51-47.92,2.91c-15.47,3.38-29.72,8.83-43.85,15.57 c-0.57-2.49-1.15-4.67-1.55-6.88c-1.34-7.3-3.05-14.58-3.8-21.91c-0.81-7.96,0.19-15.93,2.08-23.77 c2.19-9.09,4.78-18.12,9.32-26.69c1.93-3.65,4.31-7.19,6.86-10.62c3.51-4.71,5.59-9.76,6.98-15.04c0.51-1.95,1.34-3.86,1.65-5.82 c0.64-4.04,1.03-8.1,1.51-12.15c0.08-0.65,0.08-1.31,0.15-2.5c4.53,3.13,5.49,7.09,7.34,11.15c2.93-4.7,2.1-9.26,2.28-13.64 c0.18-4.34-0.45-8.71-0.76-13.79c2.82,3.33,4.77,6.31,6.34,9.41c3.37,6.67,5.08,13.58,4.84,20.75c-0.08,2.29,0.28,4.6-0.03,6.87 c-0.39,2.95-1.12,5.87-1.92,8.77c-2.19,7.99-11.72,31.63-12.46,35.85c-0.88,5.01-1.25,10.08-1.91,15.12 c-0.62,4.74-1.36,9.47-2.02,14.21c-0.11,0.78-0.1,1.57-0.17,2.81c11.31-3.67,22.63-6.34,34.83-4.69 c3.61,0.49,7.17,1.25,10.94,2.46c-2.34,1.02-4.69,2.04-7.72,3.36C527.26,365.64,537.14,367.3,545.56,372.42z"></path> <path class="st9" d="M318.45,276.53c6.66,8.03,13.67,15.92,19.87,24.16c3.92,5.21,7.97,10.51,9.31,16.66 c2.09,9.62,2.61,19.23-0.18,28.78c-0.67,2.28-2.13,4.42-3.23,6.64c9.45,0.72,15.93-4.58,17.52-10.84 c2.43-11.17-2.41-27.97-4.32-34.17c-3.06-9.95-3.61-19.9-1.1-29.91c0.67-2.69,1.73-5.31,2.79-8.52c0.69,1.03,4.83,8.9,7.25,12.21 c1.77,2.42,3.15,5.01,4.67,7.54c0.62,1.03,1.14,2.1,2.44,3.1c0.45-1.1,1.01-2.18,1.33-3.3c1.88-6.51,3.4-13.07,3.52-19.77 c0.03-1.64,0.82-2.72,2.28-3.84c3.25-2.5,6.25-5.19,9.63-8.03c0.46,0.8,0.94,1.44,1.2,2.14c2.63,7.11,2.75,14.09-1.12,21 c-2.31,4.11-4.72,8.13-8.13,11.77c-2.84,3.02-3.72,6.43-3.14,10.16c0.84,5.44,2.19,10.79,3.6,16.17 c5.5,24.55-6.51,33.71-7.96,34.94c-4.93,4.17-10.65,7.28-18,8.48c-7.99,1.3-15.91,2.85-23.85,4.35c-1.98,0.37-3.99,0.78-5.82,1.44 c-1.81,0.65-3.41,1.64-5.58,2.72c0.16-2.22,1.24-3.87,2.04-5.58c1.19-2.51,2.62-4.97,3.53-7.54c2.8-7.92,3.77-16.04,2.86-24.23 c-0.4-3.64-8.35-31.31-10.91-41.58C317.72,286.56,317.67,281.57,318.45,276.53z"></path> <path class="st9" d="M576.43,262.15c0.57,7.83,5.4,14.7,8.06,22.04c2.86,7.9,3.56,15.97,4.26,24.07 c0.66,7.57-0.17,15.09-1.3,22.55c-0.84,5.51-2.83,10.94-4.77,16.3c-1.33,3.68-3.45,7.19-5.24,10.76c-0.21,0.43-0.59,0.8-1.32,1.75 c-4.06-11.61-10.98-21.65-18.25-31.93c-8.34,11.49-18.53,20.93-34.27,26.85c0.14-1.11,7.67-13.57,8.83-18.47 c1.23-5.2,3.18-10.31,4.08-15.54c1.12-6.48,1.78-13.03,2.07-19.57c0.3-6.73-0.28-13.48-0.11-20.21c0.1-4.21,1.27-8.34,3.44-12.35 c6.82,15.39,15.92,29.77,28.25,42.89c0.38-0.18-1.41-23.17-0.06-28.84c0.78-3.3,0.86-6.7,1.5-10.03 C572.3,268.8,573.21,265.22,576.43,262.15z"></path> <path class="st9" d="M421.22,350.7c0.61-1.9,1.51-4.9,2.28-7.28c-4.05,2.41-8.11,4.81-11.85,6.35c-3.94,1.63-7.92,3.2-11.83,4.86 c-3.78,1.6-7.48,3.33-12.2,4.36c0.23-0.66,0.27-1.01,0.47-1.29c3.82-5.3,4.33-11.19,4.38-17.05c0.06-7.45-0.34-14.92-0.78-22.37 c-0.2-3.36-1.03-6.7-1.51-10.06c-0.64-4.53-0.04-9.02,1.98-13.23c3.22-6.71,6.4-13.39,6.97-21c0.71,0.58,1.51,1.1,2.12,1.74 c6,6.22,8.8,13.27,8.72,20.97c-0.04,3.68-0.72,7.35-0.76,11.03c-0.08,7.05,0.08,14.11,0.16,21.17c0.01,0.46,0.19,0.93,0.34,1.59 c2.22-0.58,2.93-1.93,3.65-3.09c3.64-5.87,5.64-12.02,5.81-18.65c0.18-6.95,0.75-13.93,1.8-20.83c1.01-6.66,3.85-12.96,8.37-18.72 c2.45-3.12,11.46-12.18,11.7-12.09c-0.29,0.75-0.54,1.52-0.89,2.25c-6.16,12.97-7.65,26.26-4.16,39.9 c2.95,11.53,2.75,22.97-1.48,34.27c-1.1,2.95-1.96,6.02-3.79,8.72C427.17,347.48,421.4,350.85,421.22,350.7z"></path> <path class="st9" d="M508.73,287.59c3.91,2.78,7.36,5.4,11.03,7.8c4.21,2.76,5.92,6.14,5.86,10.39 c-0.09,6.68-2.02,13.09-3.74,19.55c-0.65,2.42-1.1,4.88-1.58,7.32c-1.01,5.15-3.16,10.02-5.98,14.71c-0.93,1.55-3.97,4.54-6.8,5.6 c2.42-2.81,3.04-4.6,3.77-7.6c-7.81,8.14-13.29,9.45-17.27,9.81c3.57-3.71,4.06-9.87,4.2-13.65c0.42-11.84,2.87-23.43,6.05-34.96 c1.44-5.23,2.43-10.55,3.64-15.82C508.14,289.72,508.44,288.7,508.73,287.59z"></path> <path class="st9" d="M634.78,86.87c-4.41,3.77-7.02,5.89-15.32,8.18c-3.44,0.62-13.31,2.34-17.1,2.27 c0.26-0.25,7.36-3.71,7.7-3.88c7.76-3.83,13.82-9.06,19.6-14.49c4.47-4.21,8.73-8.58,14.89-11.44c2.12-0.99,4.4-1.78,6.7-2.69 c0.18,0.59-3.53,5.64-3.83,16c-0.72,8.01-4.49,15.2-9.99,21.93c-2.44,2.99-5.66,5.33-8.9,7.71c-0.6,0.44-5.64,3.87-6.38,4.2 C621.92,114.49,633.57,102.11,634.78,86.87z"></path> <path class="st9" d="M526.45,292.05c-4.45-2.21-8.53-4.02-11.29-7.24c-1.77-2.06-3.27-4.19-3.71-6.58 c-0.95-5.24-1.58-10.52-2.39-16.12c0.93,0.52,8.5,6.15,11.59,8.66c3.64,2.95,6.04,6.28,5.79,10.57 C526.24,284.78,526.43,288.24,526.45,292.05z"></path> <path class="st9" d="M235.11,273.87c-10.21-10.04-21.72-19.9-26.8-21.98c2.63,4.39,4.87,8.53,4.22,13.58 c-1.24-1.84-2.3-3.28-3.22-4.78c-4.32-7.03-10.94-13.09-14.45-20.45c-1.45-3.05-1.38-7.46-1.09-11.15 c2.03,6.17,14.35,13.81,21.94,19.19c6.71,4.76,12.36,10.15,15.34,16.98C232.32,268.14,233.75,271,235.11,273.87z"></path> <path class="st9" d="M347.15,258.92c2.37,0.05,3.7-0.92,4.5-2.44c1.37-2.59,1.88-3.6,1.23-6.39c-0.23-0.96-0.96-3.47-1.67-4.49 c4.51,3.78,8.05,8,7.63,13.28c-0.43,5.37-4.25,8.76-10.46,11.42c0.9-1.76,1.59-3.08,2.56-4.96c-2.48,0.53-4.17,0.87-5.86,1.25 c-1.62,0.36-3.31,0.61-4.82,1.15c-5.72,2.03-8.13,5.37-7.63,10.27c0.09,0.84-0.01,1.69-0.04,3.1c-4.73-2-7.49-4.81-8.68-8.15 c-1.74-4.41-1.14-8.73,4.98-12.35C336.67,257.09,342.69,258.83,347.15,258.92z"></path> <path class="st9" d="M690.2,181.05c0.33-4.86,1.27-9.72,0.15-14.64c-2.07,7.64-4.7,15.07-10.36,21.71 c0.34-1.16,0.68-2.31,1.02-3.47c0.35-1.16,0.59-2.36,1.09-3.48c3.05-6.85,3.91-13.99,4.28-21.16c0.48-9.24,4.57-17.8,7.96-23.41 c-1.32,7.39-0.01,16.97,1.03,26.44c0.65,5.9,0.03,11.76-3.62,17.14c-0.23,0.34-0.52,0.65-0.79,0.98 C690.72,181.13,690.46,181.09,690.2,181.05z"></path> <path class="st9" d="M310.56,203.92c6.96,3.82,12.56,7.92,15.29,13.89c2.18,4.78,2.74,9.72,2.6,15.19 c-1.18-0.52-1.91-0.73-2.46-1.11c-2.48-1.69-5.06-3.31-7.33-5.16c-2.37-1.94-3.97-4.23-4.52-6.99c-0.95-4.78-2.19-9.52-3.3-14.28 C310.76,205.11,310.71,204.76,310.56,203.92z"></path> <path class="st9" d="M557.78,215.79c0.3,0.55,0.47,1.18,0.92,1.65c1.7,1.74,3.35,3.53,5.28,5.11c7,5.75,10.26,14.13,8.31,22.36 c-0.73-0.56-1.44-0.93-1.81-1.44c-2.2-3.05-5.52-5.22-9.19-7.09c-2.08-1.06-3.28-2.44-3.7-4.32 C555.72,222.85,557.41,216.01,557.78,215.79z"></path> <path class="st9" d="M178.02,58.19c0,0,0.54,14.21-4.16,24.17c-5.8,12.27-3.41,25.36-3.41,25.36s3.83-10.96,10.02-21.47 C187.1,74.99,183.36,65.72,178.02,58.19z"></path> </g> </g> </svg> 