<svg width="24" height="24" viewBox="0 0 24 24" fill="none" xmlns="http://www.w3.org/2000/svg">
                            <mask id="mask0_6257_79142" style="mask-type:alpha" maskUnits="userSpaceOnUse" x="0" y="0" width="24" height="24">
                                <rect width="24" height="24" class="fill-current"></rect>
                            </mask>
                            <g mask="url(#mask0_6257_79142)">
                                <path d="M1 19.5V17.5H13V19.5H1ZM1 13.5375V11.5375H9V13.5375H1ZM1 7.46249V5.46249L9 5.46249V7.46249L1 7.46249ZM21.6 18L17.75 14.15C17.35 14.4333 16.9125 14.6458 16.4375 14.7875C15.9625 14.9292 15.4833 15 15 15C13.6167 15 12.4375 14.5125 11.4625 13.5375C10.4875 12.5625 10 11.3833 10 10C10 8.61667 10.4875 7.4375 11.4625 6.4625C12.4375 5.4875 13.6167 5 15 5C16.3833 5 17.5625 5.4875 18.5375 6.4625C19.5125 7.4375 20 8.61667 20 10C20 10.4833 19.9292 10.9625 19.7875 11.4375C19.6458 11.9125 19.4333 12.35 19.15 12.75L23 16.6L21.6 18ZM15 13C15.8333 13 16.5417 12.7083 17.125 12.125C17.7083 11.5417 18 10.8333 18 10C18 9.16667 17.7083 8.45833 17.125 7.875C16.5417 7.29167 15.8333 7 15 7C14.1667 7 13.4583 7.29167 12.875 7.875C12.2917 8.45833 12 9.16667 12 10C12 10.8333 12.2917 11.5417 12.875 12.125C13.4583 12.7083 14.1667 13 15 13Z" class="fill-current"></path>
                            </g>
                        </svg>